<svg width="444" height="559" viewBox="0 0 444 559" fill="none" xmlns="http://www.w3.org/2000/svg">
<path d="M236.034 479.589C232.612 453.309 234.729 427.442 228.585 401.592C221.996 373.847 226.134 345.545 228.188 317.466C228.936 307.056 207.497 299.017 206.478 312.452C204.409 340.817 204.712 369.852 211.142 397.899C217.508 425.469 220.261 453.611 222.283 481.722C225.816 530.622 219.736 500.68 224.416 542.751C224.941 547.527 248.672 565.625 246.698 554.419C240.761 520.721 242.448 528.903 236.034 479.589Z" fill="#B2B2B2"/>
<path d="M262.694 307.931C261.401 307.459 259.993 307.403 258.667 307.772C256.159 306.17 253.492 304.831 250.709 303.777C248.56 302.933 242.337 301.023 244.708 305.368L247.892 311.306C246.3 311.942 244.549 312.611 242.958 313.407C242.671 313.55 239.599 315.365 239.997 315.556C243.965 317.574 247.496 320.355 250.388 323.739C253.28 327.123 255.477 331.044 256.852 335.278C257.123 336.074 260.672 335.437 264.89 334.243C266.442 335.064 268.035 335.803 269.665 336.456C271.813 337.3 278.053 339.194 275.665 334.864L273.883 331.299C277.305 329.882 279.819 328.497 279.565 327.717C278.19 323.472 275.993 319.54 273.098 316.145C270.203 312.75 266.668 309.959 262.694 307.931V307.931Z" fill="#B2B2B2"/>
<path d="M354.418 318.564C354.723 317.647 354.815 316.673 354.688 315.715C354.207 311.412 354.719 307.055 356.184 302.981C357.967 297.664 351.839 291.615 347.446 289.833C342.767 287.954 336.655 287.843 334.713 293.446C332.922 298.939 332.304 304.747 332.899 310.494C331.785 310.494 330.671 310.605 329.589 310.701H328.872L328.172 309.3C326.103 304.986 320.214 299.447 315.041 302.296C309.869 305.146 309.837 312.118 312.129 316.877C315.668 324.228 320.523 330.869 326.453 336.472C330.098 339.942 336.926 340.324 339.186 335.151C340.481 332.11 340.544 328.686 339.361 325.6H340.077C342.608 325.6 345.138 325.425 347.669 325.186C349.956 325.008 352.231 324.695 354.481 324.247C355.5 324.04 357.282 323.881 357.887 322.926C358.555 321.935 358.843 320.737 358.699 319.551C358.794 318.899 356.996 318.564 354.418 318.564Z" fill="#B2B2B2"/>
<path d="M180.073 199.085C180.312 200.358 180.583 201.616 180.933 202.889C181.283 204.163 182.524 204.784 184.116 204.927C190.037 212.122 210.839 212.281 203.12 200.756C202.435 199.722 201.719 198.687 201.003 197.652C201.651 197.039 202.136 196.274 202.414 195.427C202.692 194.579 202.754 193.675 202.595 192.797C199.825 182.69 201.847 172.375 198.234 162.267C194.621 152.159 188.986 142.593 191.676 131.355C192.838 126.5 183.368 128.569 181.458 129.174C177.129 130.527 170.842 133.726 169.664 138.613C169.086 141.052 168.83 143.557 168.9 146.063C161.627 142.274 150.326 142.64 152.602 151.459C157.027 168.746 169.617 184.313 180.073 199.085Z" fill="#B2B2B2"/>
<path d="M222.951 201.695L223.795 203.017C224.224 203.717 227.408 208.699 228.06 207.012C233.408 193.243 237.053 177.946 249.993 169.223C252.109 167.79 243.801 154.276 242.337 155.263C237.15 158.883 232.918 163.705 230.002 169.319C228.782 154.462 227.689 139.605 226.723 124.749C233.071 104.444 237.891 83.6929 241.143 62.669C241.844 58.1484 223.636 62.1915 222.824 67.1419C222.394 69.8798 221.949 72.6018 221.471 75.3078C215.805 75.3078 202.77 81.7705 202.977 86.307C204.78 125.709 207.502 165.042 211.142 204.306C211.253 205.707 217.365 204.338 222.951 201.695Z" fill="#B2B2B2"/>
<path d="M275.84 151.777C283.557 141.015 291.84 130.67 300.653 120.785C307.911 112.635 294.287 93.2154 286.058 102.4C277.249 112.288 268.966 122.633 261.245 133.392C257.791 138.167 259.112 144.741 262.646 149.183C265.304 152.509 272.386 156.616 275.84 151.777Z" fill="#B2B2B2"/>
<path d="M371.289 261.387C368.519 257.997 362.439 252.473 357.633 252.33C329.137 251.474 300.726 248.778 272.577 244.26C267.25 242.285 261.774 240.741 256.2 239.644C253.43 239.087 250.629 238.577 247.828 238.052C261.77 230.777 275.983 223.471 286.934 212.281C295.56 210.275 304.123 207.941 312.622 205.277C316.697 203.988 324.575 200.756 326.533 196.634C327.647 194.31 326.533 193.8 324.846 193.959C322.842 192.745 320.752 191.68 318.591 190.776C315.502 189.29 312.311 188.03 309.041 187.003C314.898 181.517 320.734 176.031 326.549 170.544C326.938 170.186 327.232 169.737 327.405 169.237C327.577 168.736 327.622 168.201 327.535 167.679C330.114 165.228 332.766 162.813 335.493 160.436C339.106 157.253 326.899 147.4 322.442 151.331C320.294 153.21 318.193 155.136 316.076 157.062C314.695 157.639 313.48 158.553 312.542 159.72C312.065 160.405 311.588 161.105 311.094 161.789C306.097 166.565 301.29 171.674 296.595 176.816C288.806 184.074 281.008 191.322 273.198 198.56L262.471 202.587C261.309 203.017 263.346 204.322 265.558 205.468C265.065 205.882 264.572 206.312 264.062 206.71C258.877 209.21 253.891 212.105 249.149 215.369C247.141 216.859 245.213 218.453 243.371 220.144C236.149 223.787 228.707 226.977 221.089 229.695C218.765 230.555 218.718 232.735 219.848 235.059C216.967 235.059 214.07 235.059 211.189 235.171C209.982 235.235 208.804 235.561 207.736 236.126C207.062 235.881 206.37 235.69 205.666 235.553C200.494 234.677 195.353 233.627 190.244 232.369C185.692 231.159 181.14 229.966 176.604 228.692C165.014 225.217 153.813 220.555 143.18 214.78C122.887 203.637 106.573 187.035 90.5777 170.672C88.9861 169.08 84.2112 165.896 82.0467 168.188C80.9485 169.382 81.2986 171.022 82.1422 172.55C81.025 172.71 79.9731 173.172 79.1004 173.888C78.2277 174.604 77.5678 175.545 77.1923 176.609V176.609C74.7412 173.537 70.6031 171.133 66.64 173.012C65.8207 173.422 65.0996 174.004 64.5259 174.718C63.9522 175.433 63.5394 176.262 63.3158 177.151C63.0922 178.04 63.063 178.966 63.2301 179.867C63.3973 180.768 63.7569 181.622 64.2844 182.371C73.1656 193.514 85.1026 199.738 96.8168 206.519C93.3948 204.752 90.0206 202.889 86.726 200.852C79.6593 196.506 74.1524 191.588 65.701 190.553C56.5811 189.423 53.4297 203.287 63.616 204.624C64.1618 204.703 64.6962 204.848 65.2076 205.054L64.7301 204.927C56.5334 202.81 56.9949 211.167 61.5469 215.433C56.5493 215.56 51.5516 215.751 46.554 215.958C42.941 216.101 42.2726 219.269 43.8324 221.943C45.7423 225.127 50.549 226.718 54.0823 226.591C67.7223 226.034 81.4419 225.493 95.1137 225.907C114.213 231.541 133.153 237.511 152.3 242.62C144.288 244.679 136.155 246.237 127.949 247.284C124.765 247.682 130.209 248.876 130.67 249.003C134.244 249.748 137.911 249.931 141.541 249.545C148.944 248.59 156.291 247.245 163.553 245.517C172.561 247.73 181.601 249.704 190.705 251.311C162.049 264.701 135.588 282.359 112.223 303.681C109.343 305.528 106.462 307.438 103.645 309.443C103.269 309.412 102.891 309.412 102.515 309.443C88.7474 310.319 76.2851 318.341 64.0934 324.183C61.1649 325.6 59.812 329.166 62.5018 331.474C65.4463 334.084 70.4598 332.938 73.5316 331.474L85.8189 325.568C81.4628 330.63 78.3167 336.618 76.6193 343.078C76.1896 344.94 78.4337 344.67 80.4551 344.144C82.5878 348.92 88.62 352.231 92.3444 347.678C119.564 314.29 153.591 287.092 192.154 267.898L191.422 268.614C179.055 281.794 170.381 298.444 160.974 313.789C158.444 317.88 171.32 327.144 173.532 323.563C182.509 308.966 190.801 293.319 202.181 280.409C210.76 270.859 221.28 263.361 232.119 256.532C238.485 257.233 244.74 258.379 250.741 259.477C260.131 261.196 270.126 263.887 277.686 269.983C282.382 273.771 289.162 275.586 294.366 271.575C295.745 270.414 296.783 268.901 297.369 267.196C297.955 265.492 298.067 263.66 297.693 261.897C322.093 265.379 346.668 267.505 371.304 268.264C376.318 268.375 373.055 263.52 371.289 261.387ZM137.578 226.368H137.673H137.578Z" fill="#B2B2B2"/>
<path d="M51.8381 313.248C47.0525 313.903 42.4459 315.508 38.2889 317.968C34.1318 320.428 30.5079 323.694 27.6298 327.574C22.1547 335.087 17.6663 345.434 25.2583 353.042C25.7078 353.487 26.2519 353.824 26.8499 354.029C27.3198 357.087 28.7462 359.918 30.9244 362.115C31.501 362.724 32.1179 363.293 32.7707 363.819C39.2485 373.369 53.4616 376.155 65.5259 374.659C83.0336 372.478 103.008 363.007 96.7054 342.266C90.6414 322.13 73.1497 309.841 51.8381 313.248ZM49.1961 343.921C49.3711 343.126 49.578 342.33 49.8167 341.613L49.9759 342.234C50.7147 345.09 50.9888 348.046 50.7877 350.989C50.6285 351.307 50.5012 351.578 50.3738 351.864L48.7822 349.381C48.7031 347.551 48.842 345.718 49.1961 343.921V343.921ZM54.3369 321.111C55.1497 321.055 55.9662 321.087 56.7721 321.207C54.6102 321.371 52.4742 321.782 50.4057 322.432C51.602 321.706 52.9448 321.255 54.3369 321.111ZM67.0697 366.7C70.9586 365.121 74.3898 362.593 77.0491 359.346L77.5107 358.709C76.7058 360.893 75.2971 362.804 73.4487 364.219C71.6003 365.633 69.3881 366.494 67.0697 366.7V366.7Z" fill="#DEDC00"/>
<path d="M129.349 314.649C121.63 317.434 122.696 324.549 127.185 328.179C117.03 337.443 112.16 353.09 118.813 365.793C127.487 382.395 156.088 383.143 170.683 375.789C187.077 367.544 195.942 347.694 187.268 330.678C176.89 310.271 148.783 307.613 129.349 314.649Z" fill="#DEDC00"/>
<path d="M229.604 240.901H229.731C234.402 238.562 238.738 235.607 242.623 232.114C247.67 229.948 252.083 226.536 255.452 222.198C262.646 212.44 259.638 200.374 252.746 191.317C241.748 176.864 216.314 167.838 200.096 177.946C195.05 179.649 191.119 183.135 188.238 189.614C185.245 196.163 183.321 203.149 182.54 210.307C181.393 213.005 180.756 215.893 180.662 218.823C180.535 223.933 182.254 227.482 184.864 229.631C183.734 240.774 189.973 248.574 201.703 249.338C211.699 249.879 221.28 246.202 229.604 240.901ZM206.303 212.01C206.588 211.736 206.93 211.529 207.306 211.405C207.035 211.724 206.765 212.042 206.51 212.392L206.303 212.01ZM233.456 219.046C233.822 218.202 234.14 217.311 234.443 216.419C234.522 216.658 234.602 216.913 234.665 217.168C234.64 217.472 234.597 217.775 234.538 218.075C234.188 218.409 233.838 218.744 233.456 219.046ZM231.896 181.321C232.307 181.656 232.695 182.017 233.058 182.403C231.471 182.225 229.87 182.225 228.283 182.403L227.312 181.623H227.694C229.085 181.415 230.49 181.314 231.896 181.321V181.321Z" fill="#DEDC00"/>
<path d="M418.002 157.794C417.891 154.754 415.806 151.682 411.19 150.329C407.355 149.113 403.29 148.807 399.317 149.437C398.438 149.047 397.528 148.732 396.595 148.498C382.573 145.076 372.307 156.584 370.684 169.557C370.684 170.003 370.588 170.449 370.556 170.894C369.592 169.566 368.556 168.29 367.453 167.074C367.423 165.066 367.007 163.083 366.227 161.232C365.383 159.362 364.1 157.724 362.487 156.457C365.512 154.522 367.964 151.813 369.59 148.612C371.216 145.41 371.956 141.831 371.734 138.247C371.066 126.484 361.325 112.922 349.452 107.223C345.583 104.891 341.593 102.766 337.499 100.856C337.881 100.235 338.247 99.5985 338.565 98.9458C340.314 95.4498 340.792 91.4542 339.918 87.6441C348.64 86.0524 356.773 81.484 358.858 72.1402C361.309 61.125 358.062 49.3458 349.149 42.326C346.169 40.015 342.866 38.154 339.345 36.8026C336.88 35.3903 334.187 34.4205 331.387 33.9374C321.392 32.2023 308.691 32.5525 299.714 37.6781C299.221 37.9646 298.727 38.267 298.266 38.5853C295.114 40.0434 292.153 41.8824 289.448 44.0611C287.093 45.9871 288.891 47.4038 290.944 48.2157C289.485 52.1307 288.694 56.2632 288.605 60.4406C288.548 61.8384 288.655 63.238 288.923 64.611C284.469 66.7 280.468 69.6419 277.145 73.2703C273.389 74.687 270.015 76.9951 269.713 79.4783C269.422 81.5877 269.294 83.7164 269.331 85.8454C267.337 90.9003 266.552 96.3512 267.039 101.763C267.039 102.543 267.261 103.355 267.405 104.008C260.723 102.429 253.715 102.986 247.366 105.599C233.615 103.912 221.185 108.672 215.534 122.95C214.649 125.175 213.91 127.457 213.322 129.779C212.606 131.705 211.921 133.647 211.333 135.668C211.111 136.195 211.064 136.78 211.198 137.335C211.333 137.891 211.642 138.389 212.081 138.756C212.048 140.123 212.112 141.49 212.272 142.847C212.336 145.839 213.204 148.759 214.786 151.3C217.115 155.655 220.704 159.205 225.084 161.487C226.051 162.721 227.44 163.554 228.983 163.827C229.649 163.985 230.324 164.096 231.005 164.161L232.437 164.671C232.449 165.42 232.725 166.142 233.217 166.708C235.302 169.446 242.321 168.507 244.915 167.806L245.472 167.631C257.935 168.889 270.015 165.307 278.673 154.101C286.074 144.55 285.947 135.605 281.952 127.614C280.535 124.499 278.579 121.659 276.174 119.225C274.121 116.909 271.914 114.734 269.569 112.715L270.683 111.744C276.636 119.337 288.398 120.515 298.887 119.703C300.892 119.559 302.993 119.289 305.142 118.939C300.484 129.346 300.062 141.159 303.964 151.873C305.218 155.549 307.245 158.914 309.908 161.742C312.571 164.57 315.808 166.795 319.402 168.268C318.925 168.968 318.463 169.701 318.034 170.433C316.445 171.072 314.921 171.861 313.482 172.789C298.091 182.737 302.611 200.963 314.118 211.931C326.994 224.187 349.34 223.774 364.461 216.006C367.755 214.364 370.679 212.067 373.055 209.256C373.626 209.925 374.242 210.553 374.901 211.135C380.042 215.592 386.966 217.311 393.81 217.422C400.176 221.02 408.468 222.421 411.683 214.414C418.117 212.373 424.106 209.133 429.334 204.863C436.003 199.244 444.327 190.537 443.866 181.161C443.213 166.963 430.91 159.768 418.002 157.794ZM235.907 149.533L235.716 149.708L235.907 149.533ZM306.606 82.9165L307.943 83.4737C307.952 83.7732 308.029 84.0668 308.166 84.3333L308.723 85.4793C307.416 87.2282 305.662 88.592 303.645 89.4269C302.796 89.7808 301.924 90.0785 301.035 90.3183C302.251 88.0861 303.685 85.98 305.317 84.0308C305.695 83.5811 306.128 83.1801 306.606 82.837V82.9165ZM297.152 100.426L298.743 100.012L298.52 100.219C297.534 101.286 297.884 103.482 298.52 105.377C297.913 104.735 297.47 103.954 297.232 103.103C296.993 102.251 296.966 101.354 297.152 100.49V100.426ZM326.978 43.9497C327.716 44.7757 328.357 45.6836 328.888 46.6557C325.888 46.3282 322.858 46.4085 319.88 46.8945C319.729 46.917 319.581 46.9489 319.434 46.99C321.551 44.0452 324.352 42.915 326.978 43.9497V43.9497ZM327.472 64.1813C327.886 64.1813 328.029 63.8152 328.029 63.2421C328.411 63.2421 328.777 63.2421 329.159 63.1466C328.965 63.4269 328.715 63.6636 328.424 63.8418C328.134 64.0199 327.809 64.1356 327.472 64.1813V64.1813ZM349.563 179.044C349.563 179.204 349.563 179.363 349.452 179.522L348.656 180.238C346.984 178.02 345.013 176.043 342.799 174.365C344.944 173.29 347.202 172.457 349.531 171.881C350.125 174.231 350.136 176.69 349.563 179.044V179.044ZM333.647 185.284C335.6 185.215 337.555 185.322 339.488 185.603C338.899 185.841 338.326 186.048 337.722 186.255C336.334 186.733 334.921 187.131 333.488 187.449C333.393 187.21 333.329 186.971 333.249 186.733C333.377 186.255 333.504 185.778 333.647 185.284V185.284ZM334.984 205.086L335.207 205.213C334.682 205.213 334.141 205.213 333.615 205.309C334.077 205.245 334.459 205.182 334.984 205.086V205.086ZM407.179 201.329C406.049 201.25 404.139 201.043 402.548 200.804C401.633 200.175 400.818 199.414 400.128 198.544C397.264 194.994 396.85 190.076 396.627 185.268C397.055 183.498 397.646 181.772 398.394 180.111C398.996 180.238 399.591 180.398 400.176 180.588C402.677 181.352 404.977 182.663 406.909 184.425C409.487 186.812 412.161 192.193 411.588 196.459C410.641 198.488 409.105 200.186 407.179 201.329V201.329ZM401.306 166.788C401.86 166.127 402.542 165.585 403.312 165.196C403.821 165.339 404.346 165.482 404.903 165.658C403.725 165.976 402.548 166.358 401.306 166.788ZM292.759 72.8724C294.069 74.5091 295.565 75.9887 297.215 77.2817C294.042 79.5937 291.171 82.2943 288.668 85.3202C288.009 84.0103 287.619 82.5812 287.523 81.1178L288.048 79.9081C289.528 76.9951 290.738 74.2254 292.823 72.9201L292.759 72.8724ZM411.429 208.731C410.886 207.828 410.186 207.03 409.36 206.375C411.286 205.595 413.132 204.784 414.803 203.988L416.395 203.192L417.556 202.698C415.879 205.049 413.805 207.09 411.429 208.731V208.731Z" fill="#DEDC00"/>
<path d="M416.458 306.069C413.167 301.978 409.065 298.612 404.41 296.184C411.461 290.819 416.633 283.02 417.413 274.392C417.861 269.76 417.076 265.092 415.137 260.862C416.322 256.34 416.598 251.627 415.949 246.998C413.864 230.491 397.916 228.851 383.958 229.934C368.758 231.112 353.94 236.651 340.571 243.989C328.888 240.471 313.991 237.94 303.661 243.989C301.101 245.032 298.675 246.379 296.435 248.001C283.703 257.201 273.707 277.305 277.559 293.048C279.835 302.376 286.584 307.088 294.605 309.284C300.774 313.48 307.769 316.308 315.121 317.577C326.182 319.583 335.541 314.935 344.82 309.443C351.217 305.818 357.105 301.359 362.328 296.184C362.837 296.55 363.362 296.916 363.919 297.25C362.24 299.262 360.979 301.589 360.211 304.095C357.569 308.378 355.936 313.206 355.436 318.214C355.248 320.551 355.513 322.902 356.216 325.138C352.254 324.783 348.265 325.423 344.613 327.001C333.87 331.776 310.251 344.367 316.935 359.425C317.479 360.604 318.157 361.715 318.957 362.736C318.576 365.898 318.992 369.104 320.166 372.064C323.35 380.437 334.602 387.377 344.756 387.855C353.558 391.15 363.315 391.627 371.814 386.74C372.482 386.358 373.119 385.96 373.74 385.531C377.383 385.193 380.911 384.074 384.083 382.251C387.256 380.427 389.998 377.94 392.123 374.961C397.614 367.352 398.123 356.512 394.128 348.012C400.942 348.631 407.803 347.536 414.087 344.829C424.384 340.197 431.849 330.105 426.899 318.803C424.499 313.777 420.916 309.407 416.458 306.069V306.069ZM397.359 305.002C396.135 303.902 394.837 302.886 393.475 301.962L394.796 301.5C396.06 302.305 396.974 303.555 397.359 305.002V305.002ZM384.34 311.369C383.09 311.761 381.872 312.245 380.695 312.818C381.859 311.104 383.251 309.556 384.833 308.218C388.016 305.448 388.255 307.072 388.637 311.163C388.629 311.311 388.629 311.46 388.637 311.608C387.254 311.121 385.755 311.066 384.34 311.449V311.369ZM374.201 333.654L372.848 333.447C372.595 333.07 372.386 332.664 372.228 332.238C372.864 332.747 373.533 333.209 374.249 333.67L374.201 333.654ZM354.831 351.26C355.009 350.352 355.298 349.47 355.691 348.633C356.407 348.283 357.123 347.965 357.839 347.662C357.133 349.081 356.102 350.313 354.831 351.26ZM395.672 243.352C391.013 241.367 386.072 240.121 381.029 239.66C376.187 239.12 371.286 239.793 366.768 241.619C362.251 243.444 358.258 246.365 355.15 250.118C354.396 249.587 353.616 249.094 352.81 248.637C361.58 243.432 371.336 238.259 381.347 235.903C389.083 234.2 393.491 236.046 395.672 243.352V243.352Z" fill="#DEDC00"/>
<path d="M92.6468 120.578C95.7185 121.31 100.239 121.565 102.658 119.193C105.125 119.735 107.544 120.148 109.788 120.419C114.827 121.177 119.977 120.447 124.606 118.318C121.739 124.941 121.179 132.334 123.015 139.313C121.844 141.633 121.577 144.305 122.266 146.811C124.829 157.078 137.96 159.959 146.984 159.641C158.288 159.293 169.035 154.648 177.034 146.652L177.256 146.413C185.46 143.688 192.3 137.907 196.355 130.272C198.966 125.322 194.589 120.944 189.48 119.353C190.186 113.281 189.422 107.128 187.252 101.413C194.241 104.377 202.07 104.699 209.279 102.32C217.651 99.5666 222.617 92.7697 230.209 88.9812C237.801 85.1928 236.687 80.0513 232.326 77.8387C232.724 76.82 233.09 75.7853 233.424 74.7507C234.142 72.6022 234.706 70.4053 235.111 68.1766C243.674 69.4182 252.332 67.906 258.746 62.2393C273.946 48.7887 265.749 27.0608 252.284 16.0775C241 6.84517 211.937 -3.5651 204.807 16.6665C203.348 21.6804 202.899 26.934 203.486 32.1227C198.656 32.1288 193.891 33.2409 189.556 35.3737C185.222 37.5065 181.434 40.6035 178.482 44.4272C168.932 56.2382 164.301 72.0765 169.808 84.9063C168.189 84.6129 166.529 84.64 164.921 84.9859C162.723 84.4076 160.403 84.4853 158.248 85.2094C156.093 85.9335 154.197 87.2723 152.793 89.0608C150.976 91.5567 149.474 94.2673 148.321 97.1312C144.963 95.8896 141.031 95.6986 138.294 97.2903C140.825 84.2377 138.517 68.8452 129.349 59.3741C119.656 49.3777 103.39 46.8786 90.8801 52.6567C63.3931 65.3273 59.3823 112.667 92.6468 120.578ZM99.9999 104.485C98.3281 103.761 96.7685 102.802 95.3684 101.636C98.9814 102.692 102.76 103.065 106.51 102.734C104.558 103.943 102.295 104.552 99.9999 104.485V104.485ZM159.383 133.917C159.383 133.647 159.383 133.312 159.383 132.899C163.06 129.729 166.399 126.187 169.346 122.329C169.346 122.6 169.203 122.87 169.123 123.141C167.951 127.096 166.063 130.803 163.553 134.077C162.164 134.277 160.751 134.223 159.383 133.917V133.917ZM143.721 145.458C144.549 144.694 145.313 143.866 146.093 143.102C146.889 143.611 147.684 144.073 148.607 144.519C147.014 145.023 145.37 145.354 143.705 145.506L143.721 145.458ZM193.236 60.7271C193.17 61.1165 193.133 61.5102 193.125 61.905C192.711 61.905 192.297 61.9687 191.883 62.096C191.883 61.5707 191.883 61.0454 191.979 60.5042L190.976 60.2336V60.0426C191.737 60.2455 192.486 60.49 193.22 60.7748L193.236 60.7271ZM206.956 86.4185C207.672 86.0842 208.388 85.734 209.072 85.3361C208.56 86.1019 207.872 86.7348 207.067 87.1826C207.354 87.0234 207.274 86.7687 206.94 86.4662L206.956 86.4185ZM228.665 45.812L228.41 45.5415C228.238 44.3666 228.185 43.1773 228.251 41.9918C228.34 40.2798 228.7 38.5928 229.318 36.9935C231.358 40.5857 234.142 43.7008 237.483 46.1304C236.999 47.3671 236.286 48.5013 235.382 49.4732C234.652 50.3095 233.799 51.0289 232.851 51.6062C231.681 49.532 230.271 47.6031 228.649 45.8598L228.665 45.812ZM244.135 27.8567C243.547 27.3314 242.958 26.8221 242.353 26.2649C242.779 26.2632 243.192 26.4159 243.515 26.6947C243.832 27.0291 244.042 27.4502 244.119 27.9045L244.135 27.8567Z" fill="#DEDC00"/>
<path d="M239.456 325.871C246.608 325.137 253.249 321.828 258.142 316.559C260.884 313.206 262.685 309.185 263.362 304.907C265.823 299.754 267.132 294.126 267.198 288.416C267.341 274.774 259.845 261.356 247.303 255.434C235.079 249.72 222.506 255.052 214.086 264.667C204.648 275.443 199.618 290.644 205.078 304.461C210.537 318.278 224.734 327.558 239.456 325.871Z" fill="#DEDC00"/>
<path d="M299.873 385.865C300.574 385.435 301.258 385.005 301.926 384.528C313.068 376.473 310.473 363.644 311.317 351.737C311.619 347.535 308.755 344.67 305.157 343.38C304.17 340.609 302.746 338.013 300.94 335.692C287.57 318.596 262.025 320.968 247.717 335.262C239.345 343.619 233.679 356.592 236.146 368.499C238.835 381.583 250.04 387.982 262.375 389.813C264.158 390.067 266.02 390.306 267.93 390.497C267.811 391.273 267.85 392.064 268.045 392.825C268.239 393.585 268.584 394.298 269.06 394.922C269.921 396.053 271.004 396.995 272.243 397.692C269.637 400.701 267.894 404.358 267.198 408.277C262.423 435.481 303.327 459.819 321.551 435.751C329.159 425.723 331.101 405.412 322.585 395.272C317.174 388.778 308.802 386.422 299.873 385.865ZM271.225 352.199C271.734 354.698 271.431 358.295 270.269 359.648C269.78 360.264 269.138 360.741 268.407 361.033C268.18 360.718 267.93 360.42 267.659 360.142C267.07 358.056 267.23 354.714 268.917 353.249C269.583 352.736 270.355 352.377 271.177 352.199H271.225ZM293.077 418.242C294.016 418.528 295.019 418.799 296.038 419.022C293.746 420.152 292.632 419.993 291.979 417.828C292.334 417.993 292.701 418.131 293.077 418.242V418.242ZM292.631 431.613C294.004 431.857 295.392 432.006 296.786 432.058C295.394 432.296 293.964 432.13 292.663 431.581L292.631 431.613Z" fill="#DEDC00"/>
<path d="M50.6763 235.425C55.2771 231.978 58.8398 227.33 60.9739 221.991C67.0856 217.709 71.3034 211.023 70.7304 203.048C80.9167 201.075 87.0921 190.044 87.9356 180.493C88.2601 176.918 87.9912 173.315 87.1398 169.828C87.7031 164.479 86.3836 159.102 83.4086 154.621C80.4337 150.141 75.9896 146.838 70.8418 145.283C66.6473 143.887 62.2073 143.382 57.8066 143.802C53.1002 142.798 48.2604 142.577 43.4822 143.15C38.405 143.786 36.9407 147.527 37.7206 151.427C29.7626 156.409 22.2184 163.158 23.0937 173.123C23.1834 173.741 23.4418 174.322 23.8406 174.802C24.2394 175.282 24.763 175.643 25.3538 175.845C19.7977 175.943 14.4283 177.867 10.0744 181.321C9.67655 181.655 9.32638 182.021 8.96031 182.371C6.69477 183.647 4.63444 185.257 2.84861 187.147C2.17281 187.844 1.79489 188.778 1.79489 189.749C1.79489 190.721 2.17281 191.654 2.84861 192.352C1.13976 195.409 0.189922 198.832 0.0791358 202.332C-0.589337 215.401 2.86449 226.511 14.7538 233.229C25.0992 239.118 40.2672 243.384 50.6763 235.425ZM34.235 196.968L34.3464 196.888V197.032L34.235 196.968ZM34.1395 176.275C34.1395 176.386 34.1395 176.498 34.2509 176.609L33.2322 176.434L34.1395 176.275ZM23.8895 225.333C25.7506 226.132 27.6858 226.745 29.6671 227.164C27.5918 227.193 25.5636 226.545 23.8895 225.318V225.333Z" fill="#DEDC00"/>
<path d="M100.493 212.09C91.7236 215.401 80.5029 222.612 78.0518 232.242C75.6008 241.872 81.3941 251.041 87.7606 257.599C100.493 270.779 131.339 284.946 145.647 265.956C160.29 246.52 146.3 219.157 130.654 205.548C129.429 204.481 123.54 198.91 121.678 200.947C119.815 202.985 126.102 208.715 127.025 209.511C130.287 212.458 132.769 216.165 134.251 220.303C124.654 212.169 111.778 207.824 100.493 212.09ZM105.268 251.598C105.083 250.907 104.86 250.227 104.6 249.56C105.092 248.238 105.486 246.882 105.778 245.501C107.369 246.807 108.961 247.921 109.932 248.685C111.371 249.682 112.947 250.465 114.611 251.009C113.012 252.03 111.143 252.546 109.247 252.489C107.882 252.406 106.539 252.105 105.268 251.598V251.598ZM113.051 227.833C114.908 227.584 116.787 227.541 118.654 227.705C119.384 227.968 120.128 228.191 120.882 228.374C121.081 229.264 121.209 230.169 121.264 231.08C121.373 232.265 121.41 233.456 121.375 234.645C118.942 231.987 116.138 229.693 113.051 227.833V227.833ZM92.6149 251.598C95.7018 254.592 99.0466 257.309 102.61 259.716C97.8354 258.443 93.8882 256.071 92.6149 251.614V251.598ZM133.296 233.07C131.571 229.761 129.318 226.756 126.627 224.172C131.291 225.047 133.042 227.833 133.296 233.085V233.07Z" fill="#DEDC00"/>
<path d="M185.899 253.11C185.393 252.659 184.825 252.284 184.212 251.996C178.236 250.32 172.145 249.086 165.988 248.303C163.413 247.806 160.761 247.882 158.219 248.526C155.678 249.17 153.309 250.365 151.281 252.028C150.911 252.389 150.628 252.83 150.454 253.317C146.769 261.984 139.814 268.848 131.1 272.418C128.207 273.629 125.207 274.567 122.139 275.22C117.143 276.146 111.981 275.349 107.497 272.96C105.984 272.212 104.472 271.368 103.04 270.508C98.5357 267.755 95.6868 263.584 92.9652 259.159C90.9036 255.922 89.4374 252.343 88.636 248.589C88.109 246.329 87.7683 244.029 87.6173 241.713C87.49 237.049 87.299 232.337 89.1134 227.849C89.1563 227.462 89.1563 227.073 89.1134 226.687C85.023 226.336 80.9485 225.922 76.874 225.636C72.4755 225.22 68.0381 225.57 63.7592 226.671C61.8868 227.257 60.0996 228.086 58.4433 229.138C56.3902 230.364 54.5597 231.955 52.5066 233.197C49.7828 234.91 46.9608 236.462 44.0552 237.845C37.5338 240.8 30.2718 241.716 23.2212 240.471C18.9648 239.607 15.0247 237.599 11.8252 234.661C3.54892 227.562 0.174776 218.202 0.142944 207.601C0.287712 202.204 1.53909 196.895 3.81954 192.002C6.43924 185.323 11.1743 179.688 17.3004 175.956C20.2276 174.446 23.2349 173.096 26.3089 171.913C27.577 166.823 30.1371 162.146 33.7416 158.335C38.8547 152.385 45.5231 147.976 53 145.601C57.2366 144.258 61.8189 144.519 65.8761 146.333C70.7179 148.714 75.116 151.906 78.8794 155.773C82.2195 158.887 85.3761 162.193 88.3336 165.673C90.0932 167.533 92.034 169.213 94.127 170.688C97.9628 173.744 101.608 177.055 105.268 180.238C109.566 184.027 113.751 187.958 118.128 191.683C122.505 195.408 127.153 199.356 131.975 202.826C136.876 206.291 141.966 209.48 147.223 212.376C153.589 215.91 160.115 219.062 166.624 222.261C169.123 223.487 171.765 224.378 174.344 225.445L181.538 228.39C182.799 229.072 184.232 229.371 185.66 229.249C184.88 226.671 184.068 224.235 183.432 221.72C182.504 218.137 182.256 214.412 182.7 210.737C183.002 208.174 181.601 205.961 180.567 203.892C175.992 194.441 170.29 185.58 163.585 177.5C159.526 172.598 155.722 167.504 151.759 162.426L152.284 161.376C152.137 161.27 151.977 161.184 151.807 161.121C141.843 159.274 134.824 153.56 130.018 144.805C128.637 142.355 127.781 139.645 127.503 136.846C127.185 133.535 125.195 131.243 123.253 128.887C121.662 127.057 119.752 125.592 118.049 123.905C117.301 123.157 116.696 122.313 115.996 121.39C112.94 121.836 109.852 122.345 106.748 122.759C100.659 123.715 94.4225 122.788 88.8747 120.101C85.9257 118.548 83.3468 116.376 81.3146 113.733C74.9602 105.936 71.4516 96.2065 71.3671 86.1478C71.3645 81.4679 72.4201 76.848 74.4548 72.6336C75.994 69.0028 78.1779 65.6807 80.9008 62.8282C83.7299 59.8102 87.1481 57.4048 90.9438 55.7607C95.4542 53.984 100.246 53.0298 105.093 52.9432C112.892 52.6567 118.908 55.9199 124.192 61.125C128.699 65.2346 132.534 70.0258 135.556 75.3237C138.74 81.1656 138.962 86.8642 135.556 92.7219C131.8 99.2917 126.65 104.959 120.468 109.324C118.747 110.658 116.721 111.542 114.573 111.895C112.424 112.248 110.222 112.059 108.165 111.346C109.819 110.42 111.584 109.708 113.417 109.229C117.444 108.672 120.341 106.379 123.142 103.817C127.267 100.066 130.746 95.6616 133.44 90.7799C134.728 88.4901 135.377 85.8957 135.319 83.2687C135.26 80.6416 134.495 78.0788 133.105 75.849C129.664 69.85 125.198 64.5003 119.911 60.0426C116.555 56.9884 112.25 55.184 107.719 54.933C101.114 54.5987 94.7318 55.2832 89.0657 58.9443C84.9777 61.5962 81.5484 65.1457 79.0387 69.3227C76.1116 73.8812 74.4625 79.1422 74.2638 84.5561C73.9431 89.3237 74.5762 94.1074 76.126 98.6274C77.081 101.031 77.8767 103.53 78.9909 105.87C81.0271 110.303 84.2288 114.099 88.254 116.853C92.9069 119.883 98.4923 121.143 103.995 120.403C108.101 119.957 112.16 119.066 116.25 118.429C119.306 117.952 119.752 118.429 119.147 121.47L126.627 129.349C127.134 126.307 127.863 123.307 128.808 120.371C129.978 117.58 131.48 114.94 133.28 112.508C136.989 107.207 137.96 106.459 140.172 106.555C139.36 107.685 138.708 108.688 137.944 109.595C133.145 114.793 130.071 121.348 129.142 128.362C129.082 129.956 129.141 131.552 129.317 133.137C129.413 133.568 129.488 134.004 129.54 134.443C129.254 140.937 132.134 146.063 136.48 150.52C140.548 154.89 145.97 157.761 151.87 158.67C152.905 158.829 153.955 158.845 155.229 158.94C155.19 158.329 155.078 157.725 154.894 157.141C154.592 156.521 154.337 155.979 155.054 155.55C155.77 155.12 156.39 155.55 156.884 156.075C157.377 156.6 158.141 157.587 158.73 158.272C164.746 158.16 169.728 155.677 174.423 152.462C174.232 150.09 174.344 150.058 176.508 149.931C177.448 149.89 178.346 149.531 179.055 148.912C184.339 143.452 188.907 137.642 190.546 129.811C191.437 126.249 191.738 122.566 191.438 118.907C191.042 115.692 190.139 112.56 188.764 109.627C185.881 103.43 181.852 97.8349 176.89 93.1358C175.106 91.5048 173.141 90.0841 171.033 88.9017C169.901 88.369 168.671 88.0764 167.42 88.0421C160.488 87.4322 153.539 89.0015 147.541 92.5309C142.04 95.5973 136.944 99.3406 132.373 103.673C132.135 103.912 131.928 104.167 131.673 104.437C132.405 105.552 134.617 104.04 134.506 106.3C132.469 108.146 129.843 107.637 127.407 107.892C126.946 107.892 126.421 107.08 125.657 106.395C128.84 103.689 131.625 101.031 134.681 98.723C139.493 94.9694 144.69 91.7359 150.183 89.0767C156.03 86.3467 162.533 85.3364 168.932 86.1638C171.159 86.5559 173.241 87.5338 174.964 88.9972C175.585 89.4588 176.254 89.8726 176.906 90.3183L177.336 89.9682C176.843 89.2041 176.317 88.456 175.872 87.6601C173.338 83.4115 171.38 78.8458 170.046 74.0821C168.78 69.2648 168.703 64.2116 169.824 59.3581C171.76 51.7303 175.796 44.7984 181.474 39.3494C184.684 36.0521 188.709 33.6631 193.141 32.4251C195.544 31.7725 197.915 31.0403 200.462 30.3081C201.576 22.3491 205.985 15.8706 211.603 10.0924C212.908 8.7394 214.245 7.4182 215.582 6.09702C221.344 0.430268 228.315 -1.08191 235.971 0.716806C239.202 1.54432 242.168 3.1887 244.581 5.49216C251.425 11.9325 257.747 18.9051 263.489 26.3445C266.404 29.9697 268.858 33.9423 270.795 38.1715C273.851 44.857 272.768 51.049 268.28 56.7795C265.276 60.3359 261.597 63.2626 257.457 65.391C254.017 67.1114 250.713 69.091 247.573 71.3125C245.139 73.4871 242.999 75.97 241.207 78.6983C238.027 83.2643 235.653 88.3412 234.188 93.7088C233.199 97.1937 232.543 100.765 232.23 104.374C237.453 101.536 243.245 99.9041 249.181 99.5984C255.075 99.1347 260.985 100.267 266.291 102.878C266.291 101.286 266.291 99.9805 266.291 98.6593C266.182 93.4223 267.334 88.236 269.649 83.5373C271.426 80.1153 273.73 76.9944 276.477 74.2891C279.25 71.3647 282.39 68.8124 285.82 66.6962C292.647 62.8282 299.857 60.2018 307.863 60.7907C310.929 61.0166 313.887 62.0191 316.458 63.7037C324.101 68.5821 329.82 75.9555 332.644 84.572C332.979 85.5907 333.09 86.6732 333.345 87.7556C333.599 88.838 333.965 89.2359 335.016 89.0449C340.471 88.3051 345.605 86.0308 349.818 82.4868C352.439 80.1211 354.132 76.8988 354.593 73.3977C355.264 68.0134 354.339 62.5505 351.935 57.6867C350.996 55.5537 350.12 53.373 349.022 51.3196C345.361 44.4749 340.873 38.1396 334.459 33.6986C332.154 32.0842 329.496 31.0465 326.707 30.6726C323.918 30.2987 321.08 30.5994 318.431 31.5497C310.849 34.1411 303.995 38.5071 298.441 44.2839C297.693 45.0321 296.849 45.7325 297.502 47.0855C297.511 47.3959 297.443 47.7038 297.304 47.9816C297.166 48.2594 296.96 48.4984 296.706 48.6773C295.786 48.9965 294.799 49.0733 293.841 48.9001C292.584 48.6295 292.25 47.5948 293.077 46.4169C295.486 42.7108 298.628 39.5365 302.308 37.0891C305.173 35.1153 308.166 33.3165 311.206 31.6133C316.967 28.4298 323.095 26.838 329.636 28.7163C333.581 29.7072 337.146 31.8387 339.886 34.8446C342.668 37.7488 345.288 40.8044 347.733 43.9974C352.165 49.9913 355.328 56.8269 357.028 64.0857C357.839 67.6055 357.888 71.2582 357.171 74.7984C356.281 79.1482 353.837 83.0246 350.295 85.7021C345.672 89.3995 340.043 91.6183 334.141 92.0693C333.79 93.6611 333.472 95.2529 333.074 96.9401C332.676 98.6274 332.183 100.235 331.689 101.986C332.637 102.066 333.59 102.066 334.538 101.986C337.078 101.584 339.673 101.706 342.163 102.344C344.654 102.982 346.988 104.122 349.022 105.695C356.317 111.094 362.613 117.725 367.628 125.29C369.813 128.263 371.432 131.614 372.403 135.175C373.271 138.57 373.188 142.138 372.164 145.49C370.814 149.666 368.445 153.441 365.272 156.473C364.158 157.635 362.98 157.555 361.452 156.775C361.742 156.293 362.078 155.84 362.455 155.422C364.444 153.75 366.129 151.747 367.437 149.501C371.511 142.465 370.413 135.573 366.498 129.031C362.193 122.187 356.911 116.009 350.821 110.693C347.269 107.17 342.569 105.04 337.578 104.692C334.878 104.753 332.214 105.331 329.732 106.395C329.262 106.63 328.87 106.995 328.602 107.446C325.295 112.292 320.979 116.365 315.949 119.384C314.564 120.221 313.436 121.421 312.686 122.854C310.471 126.558 308.693 130.505 307.386 134.618C306.613 138.038 306.255 141.538 306.319 145.044C305.992 149.094 306.71 153.161 308.404 156.855C308.93 157.874 308.229 159.863 307.545 161.121C304.535 166.528 300.719 171.444 296.229 175.702C293.602 178.28 291.056 180.939 288.382 183.454C284.514 187.051 280.631 190.664 276.604 194.087C272.243 197.812 267.707 201.313 263.251 204.911C263.123 205.006 263.091 205.213 262.853 205.723C264.444 205.102 266.036 204.577 267.357 204.035C275.952 200.661 284.562 197.366 293.109 193.896C295.912 192.681 298.634 191.288 301.258 189.725C301.628 189.503 301.946 189.205 302.193 188.851C302.44 188.497 302.609 188.096 302.69 187.672C303.292 180.897 306.196 174.532 310.919 169.637C314.102 166.024 317.445 162.474 321.933 160.341C323.189 159.744 324.487 159.238 325.816 158.829C315.487 165.355 308.181 174.062 304.871 186.367L307.927 185.969C308.293 187.56 307.242 187.847 306.463 188.388C305.867 188.714 305.391 189.222 305.105 189.838C304.819 190.454 304.737 191.145 304.871 191.811C305.762 196.586 307.083 201.361 310.378 205.118C313.524 209.15 317.697 212.262 322.458 214.127C326.074 215.175 329.841 215.6 333.599 215.385C336.123 215.417 338.645 215.258 341.144 214.907C346.904 213.778 352.273 211.173 356.725 207.346C362.153 202.996 366.346 197.299 368.885 190.824C371.473 185.189 371.741 178.763 369.633 172.932C368.183 169.533 366.067 166.459 363.41 163.891C359.87 160.198 355.798 157.054 351.33 154.563C348.947 153.288 346.322 152.528 343.627 152.334C338.678 151.955 333.701 152.412 328.904 153.687C326.904 154.301 324.943 155.034 323.031 155.884L322.57 157.476C319.657 158.224 318.909 157.921 318.177 155.613C321.347 153.793 324.777 152.467 328.347 151.682C332.97 150.195 337.82 149.543 342.671 149.756C345.887 150.01 349.015 150.932 351.855 152.462C355.526 154.352 358.938 156.706 362.009 159.465C366.784 163.811 370.954 168.586 372.737 174.985C373.736 178.941 373.648 183.093 372.482 187.003C370.596 194.422 366.696 201.176 361.214 206.519C355.92 211.822 349.24 215.529 341.939 217.215C335.442 218.66 328.68 218.369 322.331 216.372C318.461 215.104 314.956 212.92 312.113 210.005C311.614 209.445 310.963 209.043 310.239 208.848C309.516 208.653 308.751 208.673 308.038 208.906C302.627 210.243 297.12 211.23 291.788 212.79C284.526 214.813 277.598 217.885 271.225 221.911C265.049 225.922 259.51 230.777 253.462 234.932C252.316 235.728 252.889 236.667 252.698 237.463L246.332 238.513C245.902 236.922 246.873 236.444 247.685 235.998C252.969 233.07 257.409 228.995 262.312 225.556C268.733 220.811 275.721 216.886 283.114 213.873C290.451 211.199 298.023 209.222 305.73 207.967C306.685 207.792 307.609 207.506 309.025 207.155C305.54 202.597 303.282 197.22 302.468 191.54C301.852 191.642 301.253 191.824 300.685 192.081C296.292 194.819 291.342 196.22 286.599 198.13C280.949 200.406 275.204 202.491 269.569 204.815C265.192 206.614 260.927 208.683 256.582 210.546C255.955 210.739 255.403 211.12 255.001 211.639C254.599 212.158 254.368 212.788 254.338 213.443C253.525 218.336 251.364 222.906 248.099 226.639C245.302 230.135 242.003 233.198 238.31 235.728C232.033 240.102 224.762 242.838 217.158 243.687C212.359 244.312 207.483 243.944 202.833 242.604C200.401 241.76 198.052 240.694 195.814 239.421C194.096 238.498 192.631 237.558 190.387 238.052C185.329 239.002 180.126 238.867 175.124 237.654C173.023 237.208 170.858 237.049 168.757 236.747C161.367 235.506 154.277 232.881 147.859 229.01C149.101 232.29 150.151 235.378 151.425 238.291C152.698 241.204 152.03 244.658 152.268 247.953C153.494 247.555 154.608 247.284 155.658 246.838C159.535 245.337 163.762 244.983 167.834 245.82C171.543 246.393 175.331 246.695 178.975 247.603C183.32 248.685 187.538 250.261 191.708 251.662C192.695 251.98 193.538 252.601 193.491 253.763C193.443 254.925 192.727 255.721 191.263 255.88C190.451 253.078 188.079 252.696 185.66 252.696L185.899 253.11ZM207.879 36.1977C204.791 36.5638 202.897 34.8924 201.306 32.8868C197.744 33.0251 194.247 33.8805 191.024 35.4018C184.96 37.9805 180.758 42.7717 177.209 48.136C175.06 51.5461 173.45 55.2667 172.434 59.1671C171.162 63.8517 171.113 68.7842 172.291 73.4932C173.375 77.6593 175.03 81.6553 177.209 85.3679C178.682 88.4319 180.864 91.1003 183.575 93.1517C186.488 95.1415 189.703 96.8287 193.395 96.0487C195.512 95.4422 197.778 95.6348 199.762 96.5899C206.373 121.838 210.11 147.752 210.903 173.839L216.839 172.12C216.648 170.051 216.346 168.109 216.282 166.167C216.06 159.322 215.932 152.493 215.709 145.649C215.598 142.608 215.423 139.552 215.073 136.528C214.675 132.915 215.932 129.492 216.044 125.911C216.235 120.18 217.285 114.482 217.89 108.767C218.572 102.23 220.547 95.8941 223.699 90.1273C224.009 89.4044 224.264 88.6595 224.463 87.8988C218.734 92.9448 213.195 96.9402 205.03 96.2079C206.621 95.5235 207.608 95.0141 208.675 94.6162C215.626 92.0585 221.75 87.6563 226.389 81.8819C227.938 80.0185 229.223 77.9511 230.209 75.7376C233.026 69.0521 232.151 62.3029 229.875 55.6811C228.03 50.7208 225.593 46.0014 222.617 41.6256C218.511 35.2585 212.638 32.6161 205.3 32.6321C205.03 32.6321 204.759 32.9027 204.52 33.03L207.879 36.1977ZM129.222 209.097L128.824 209.623C129.832 210.31 130.804 211.049 131.737 211.835C135.27 215.114 138.777 218.43 142.257 221.784C147.352 226.761 153.513 230.512 160.274 232.751C167.511 234.993 174.993 236.345 182.556 236.778C185.476 236.857 188.398 236.783 191.31 236.556C189.448 234.216 188.207 232.385 185.294 231.923C182.142 231.2 179.078 230.132 176.158 228.74C170.763 226.559 165.24 224.569 160.051 221.943C152.65 218.17 145.456 213.984 138.23 209.814C130.462 205.167 123.197 199.725 116.553 193.577C110.33 188.038 104.281 182.308 98.1219 176.689C97.0078 175.67 95.7505 174.826 94.5568 173.903C94.478 174.146 94.4487 174.402 94.4706 174.656C94.4925 174.91 94.565 175.158 94.684 175.383C95.7127 177.4 96.2008 179.648 96.1006 181.91C96.135 182.532 96.0031 183.153 95.7186 183.708C95.5425 183.929 95.3164 184.105 95.0591 184.221C94.8018 184.337 94.5205 184.391 94.2384 184.377C93.9836 184.268 93.7616 184.095 93.5941 183.875C93.4266 183.654 93.3195 183.394 93.2834 183.119C93.6654 179.299 92.0261 176.131 90.2276 172.996C87.7704 169.026 84.7884 165.406 81.3623 162.235C77.0491 157.921 72.895 153.448 67.6268 150.217C64.2707 147.87 60.1236 146.943 56.0877 147.638C53.9699 148.035 51.9109 148.698 49.9601 149.612C42.7978 153.016 36.7567 158.395 32.5479 165.116C31.3542 167.026 29.8581 168.889 29.8422 171.483C30.2244 171.562 30.614 171.599 31.0041 171.595C36.718 170.958 41.7792 172.916 46.7609 175.367C52.5075 178.32 57.8071 182.071 62.5019 186.51C66.0757 189.462 68.3965 193.66 68.9957 198.257C69.5392 204.202 68.53 210.186 66.0671 215.624C64.8256 218.441 63.4091 221.195 62.0721 223.965C71.6217 222.15 81.0918 223.216 90.721 223.965C90.8324 223.789 91.1984 223.487 91.1984 223.2C91.1984 222.086 91.3099 221.131 92.6628 220.876C92.8697 220.876 93.0129 220.479 93.1721 220.272L97.5171 214.159C91.6892 212.382 86.3104 209.375 81.7443 205.341C77.2418 201.263 73.0644 196.841 69.2503 192.113C70.1575 190.664 71.1284 190.521 72.1789 191.667C72.6245 192.113 73.0224 192.606 73.4362 193.084C76.4964 196.816 79.8609 200.287 83.4951 203.462C88.0471 207.155 92.806 210.45 98.6949 211.66C99.1909 211.814 99.7155 211.852 100.229 211.772C100.742 211.692 101.23 211.496 101.655 211.198C108.372 206.917 115.582 204.593 123.651 206.312C127.579 207.086 131.138 209.14 133.774 212.154L129.222 209.097ZM228.952 109.117C226.883 111.553 224.622 113.893 222.776 116.487C220.637 119.078 219.407 122.299 219.275 125.656C219.275 126.118 219.37 126.786 219.688 126.993C220.834 127.773 220.755 128.585 219.816 129.333C219.492 129.562 219.23 129.868 219.055 130.224C218.88 130.58 218.797 130.974 218.813 131.37C218.686 136.337 218.511 141.287 218.367 146.238C218.273 147.952 218.682 149.656 219.545 151.14C220.504 152.763 221.303 154.474 221.933 156.25C223.131 159.456 225.315 162.198 228.172 164.082C230.065 165.415 232.061 166.597 234.14 167.615C236.341 168.447 238.642 168.982 240.984 169.207C243.912 169.772 246.921 169.772 249.849 169.207C258.89 167.615 267.214 164.273 274.042 157.73C276.473 155.525 278.446 152.861 279.847 149.892C281.248 146.923 282.049 143.707 282.207 140.428C282.516 134.842 281.749 129.249 279.947 123.953C278.919 120.929 277.467 118.067 275.633 115.453C273.739 116.694 273.007 116.615 271.591 115.341C269.766 113.566 268.538 111.27 268.073 108.767C267.888 107.95 267.517 107.187 266.99 106.535C266.463 105.884 265.794 105.362 265.033 105.011C263.598 104.095 262.045 103.377 260.418 102.878C251.282 100.745 242.401 101.063 234.045 105.934C232.564 106.793 231.228 107.526 231.769 109.786L228.952 109.117ZM207.927 177.246L201.99 181.018L205.555 186.176C202.372 187.306 201.799 184.09 199.65 183.072C198.059 184.982 196.34 186.94 194.637 188.85C192.488 191.253 191.167 193.8 192.631 197.095C192.875 197.629 192.919 198.233 192.756 198.797C192.592 199.361 192.232 199.847 191.74 200.167C191.243 199.713 190.785 199.218 190.371 198.687C190.009 197.986 189.706 197.257 189.464 196.506C188.207 199.499 187.156 201.966 186.169 204.465C185.616 205.55 185.328 206.75 185.328 207.967C185.328 209.185 185.616 210.385 186.169 211.469C186.488 212.042 186.806 213.061 186.535 213.427C186.265 213.793 185.294 214.191 184.514 214.605C184.689 218.935 184.928 223.296 187.092 226.925C188.079 227.005 189.002 226.814 189.305 227.148C190.53 228.581 190.228 230.332 189.687 232.369C190.053 232.608 190.674 232.815 190.928 233.229C191.325 234.083 191.992 234.781 192.827 235.216C193.662 235.651 194.617 235.797 195.544 235.632C196.217 235.694 196.874 235.872 197.486 236.158L196.658 238.37C198.823 239.214 200.86 240.153 203.024 240.774C209.234 242.428 215.762 242.478 221.996 240.917C227.749 239.556 233.165 237.038 237.912 233.515C243.192 229.743 247.497 224.767 250.47 218.998C251.303 217.043 251.985 215.026 252.507 212.965H250.184C251.298 211.935 252.03 210.557 252.262 209.057C252.493 207.557 252.209 206.022 251.457 204.704C251.218 204.226 251.154 203.653 250.948 203.112C249.269 199.316 246.912 195.859 243.992 192.909C243.165 197.493 242.289 201.616 239.217 204.752C238.151 209.05 233.679 210.721 231.785 214.382C228.156 216.276 225.418 219.874 221.089 220.463C222.231 219.617 223.416 218.831 224.638 218.107C230.967 213.963 236.216 208.37 239.95 201.791C241.659 199.119 242.611 196.032 242.703 192.861C242.711 191.998 242.406 191.161 241.844 190.505C238.87 187.388 235.318 184.88 231.387 183.119C226.647 181.155 221.572 180.122 216.442 180.079C215.893 180.161 215.358 180.317 214.85 180.541L217.317 183.979C214.134 185.38 213.545 181.926 211.555 181.337C211.651 185.045 211.428 185.364 208.786 185.029C208.499 182.658 208.245 180.175 207.927 177.246V177.246ZM57.7271 194.31C55.1299 191.343 52.0786 188.807 48.6868 186.796C47.7955 186.192 47.0156 185.443 46.172 184.759C43.8165 182.833 41.5245 180.779 39.0735 178.981C36.6371 176.979 33.8379 175.466 30.829 174.524C29.874 174.285 28.9191 173.935 28.1233 174.858C26.4044 176.832 26.3726 176.895 24.0329 175.861C23.5148 175.597 22.9387 175.467 22.3575 175.484C21.7762 175.5 21.2085 175.663 20.7064 175.956C18.9674 176.877 17.2924 177.914 15.6928 179.06C9.89057 183.702 5.82932 190.17 4.16965 197.414C1.55942 207.219 2.14831 216.865 7.35285 225.827C12.3346 234.263 19.7514 238.641 29.6353 238.291C37.3347 238.068 44.7821 235.496 50.9787 230.921C54.8245 228.257 58.0361 224.779 60.385 220.733C63.2576 215.736 65.2091 210.264 66.1466 204.577C66.831 199.881 66.4968 195.456 63.4409 191.54C57.6407 184.38 50.1308 178.796 41.6041 175.304C39.653 174.253 37.451 173.757 35.2377 173.871C35.5271 174.242 35.8464 174.588 36.1927 174.906C38.4846 176.498 40.872 177.898 43.1003 179.554C45.8378 181.591 48.2889 184.027 51.1538 185.841C53.644 187.596 55.9432 189.607 58.0136 191.842C58.6025 192.479 58.9844 193.211 57.7271 194.31V194.31ZM285.231 140.046L300.908 124.637C298.6 123.969 296.356 123.396 294.175 122.632C292.838 122.154 291.661 121.215 290.308 120.817C287.379 119.926 285.31 117.633 282.764 116.201C282.445 116.01 282.413 115.325 282.238 114.864C282.764 114.704 283.384 114.275 283.83 114.418C284.648 114.773 285.423 115.222 286.138 115.755C290.642 118.604 295.178 121.374 300.765 121.374C306.351 121.374 311.444 120.69 314.834 115.007C317.29 111.231 320.635 108.115 324.575 105.934C326.671 104.791 328.345 103.006 329.35 100.84C332.008 95.1255 331.53 89.411 329.891 83.7443C328.425 79.0982 325.871 74.869 322.442 71.408C318.766 67.4922 314.612 64.1813 309.232 63.0511C302.484 61.6185 296.229 63.7515 290.133 66.4734C285.571 68.769 281.454 71.8573 277.973 75.5943C274.189 79.3397 271.385 83.9592 269.808 89.0449C268.446 93.9219 268.223 99.0466 269.155 104.024C269.305 104.798 269.695 105.505 270.27 106.045C273.248 108.61 275.828 111.603 277.925 114.927C278.848 116.548 279.662 118.228 280.36 119.957C281.518 122.268 282.456 124.682 283.162 127.168C284.132 131.466 284.594 135.827 285.231 140.046V140.046ZM239.902 75.0213C238.835 72.8565 238.835 72.6654 240.236 71.8377C245.393 68.9407 250.581 66.0914 255.754 63.1784C259.861 61.138 263.444 58.1807 266.227 54.535C268.598 51.1445 270.397 47.4993 269.187 43.2174C268.486 40.9966 267.608 38.8355 266.561 36.7548C264.498 32.6784 261.926 28.8807 258.906 25.4531C253.43 18.7995 247.955 12.114 241.175 6.686C234.395 1.25801 227.344 0.239247 219.911 5.66723C217.424 7.55714 215.132 9.69005 213.067 12.0344C209.651 15.4949 206.848 19.5102 204.775 23.9091C203.826 25.8929 203.378 28.0791 203.47 30.2762C205.062 30.2762 206.478 30.2762 207.895 30.2762C210.64 30.3453 213.337 31.0204 215.791 32.2532C218.245 33.486 220.397 35.246 222.092 37.4074C225.675 42.0004 228.635 47.0477 230.893 52.4179C233.443 57.7986 234.54 63.7527 234.077 69.6888C233.919 73.2937 232.822 76.7947 230.893 79.8444C229.986 81.1178 229.127 82.439 228.172 83.8239L230.941 83.6806C228.756 86.7645 226.773 89.9866 225.004 93.3268C223.628 96.8213 222.511 100.413 221.662 104.071C220.732 107.885 220.199 111.784 220.07 115.707C221.491 113.739 223.089 111.906 224.845 110.232C226.169 109.192 227.262 107.888 228.054 106.403C228.846 104.917 229.32 103.283 229.445 101.604C230.194 95.7046 231.932 89.9735 234.586 84.6516C236.177 81.5158 238.072 78.3481 239.902 75.0213ZM91.1189 227.037C90.529 228.664 90.0452 230.329 89.6705 232.019C88.6013 238.435 89.0371 245.013 90.9438 251.232C92.993 258.463 97.4948 264.755 103.677 269.028C108.256 272.14 113.752 273.615 119.274 273.214C125.573 272.655 131.594 270.363 136.67 266.593C141.278 263.284 145.023 258.917 147.589 253.858C149.236 250.906 150.135 247.596 150.207 244.216C150.279 240.836 149.522 237.49 148.003 234.47C146.809 231.987 145.074 229.695 143.737 227.307C141.589 223.455 137.848 220.94 135.318 217.375C132.631 213.718 128.852 211.009 124.527 209.639C123.218 209.04 121.764 208.836 120.341 209.05L120.882 211.692C119.993 211.261 119.249 210.579 118.743 209.731C118.237 208.882 117.99 207.904 118.033 206.917C112.821 207.199 107.781 208.876 103.438 211.771L105.029 213.825C104.066 214.222 103.045 214.458 102.005 214.525C101.293 214.41 100.563 214.499 99.8982 214.78C99.2338 215.062 98.6623 215.525 98.2493 216.117C96.8009 217.836 95.3684 219.555 93.9837 221.322C93.7997 221.719 93.6866 222.144 93.6495 222.58C95.0835 223.996 96.8603 225.016 98.8063 225.54C99.2361 225.636 99.8886 226.591 99.7772 226.83C99.6294 227.127 99.4237 227.391 99.1723 227.607C98.9208 227.823 98.6286 227.986 98.3129 228.087C97.6032 228.125 96.8922 228.039 96.212 227.833L91.1189 227.037ZM247.764 172.12C244.677 171.913 242.003 171.674 239.313 171.611C238.932 171.601 238.554 171.678 238.206 171.835C237.859 171.992 237.552 172.226 237.308 172.518C236.432 174.556 235 176.625 236.655 178.965C236.655 178.965 236.528 179.251 236.48 179.347C231.705 176.291 226.93 173.457 220.994 173.616C219.991 176.052 218.972 176.1 216.744 173.807L210.664 175.893L211.126 178.742C213.274 178.44 215.025 178.058 216.792 177.962C220.202 177.968 223.59 178.505 226.835 179.554C230.762 180.525 234.471 182.226 237.769 184.568C239.344 185.745 240.843 187.021 242.257 188.388C246.873 192.797 251.123 197.477 253.303 203.669C253.701 204.831 254.178 205.977 254.751 207.49C256.021 206.96 257.236 206.31 258.38 205.548C263.076 201.95 267.803 198.4 272.259 194.532C278.944 188.738 285.469 182.769 291.915 176.72C294.632 174.125 297.159 171.338 299.475 168.379C301.591 165.603 303.551 162.712 305.349 159.72C305.548 159.34 305.664 158.922 305.689 158.494C305.713 158.066 305.646 157.637 305.492 157.237C303.285 152.996 302.466 148.168 303.152 143.436C303.375 141.749 303.645 140.062 303.773 138.374C303.927 135.674 304.592 133.028 305.73 130.575C306.972 128.06 308.102 125.465 309.487 122.425C307.895 122.982 306.192 123.077 305.794 123.857C304.823 125.831 302.834 126.42 301.481 127.821C298.075 131.376 294.584 134.846 291.008 138.231C287.132 142.084 283.954 146.581 281.618 151.522C280.949 152.968 280.121 154.334 279.151 155.597C274.669 161.145 268.799 165.406 262.136 167.95C258.953 169.128 255.77 170.274 252.587 171.42L253.033 173.823L250.693 172.327C250.066 173.086 249.487 173.884 248.958 174.715C247.542 177.198 246.141 179.697 244.82 182.244C244.183 183.501 243.451 183.963 241.923 183.072L247.764 172.12ZM208.229 174.985C208.038 170.624 207.958 166.215 207.608 161.837C207.067 155.008 206.51 148.196 205.603 141.415C204.584 133.679 203.279 125.974 201.863 118.286C200.717 112.11 199.236 105.997 197.915 99.8531C197.645 98.5797 196.929 98.3727 195.735 98.6274C193.903 99.0716 191.999 99.137 190.141 98.8195C188.283 98.502 186.509 97.8083 184.928 96.781C184.008 96.2613 183.062 95.7885 182.095 95.3643C182.095 95.5394 181.999 95.6349 182.095 95.6986C182.19 95.7622 182.381 96.1443 182.54 96.3512C187.067 101.457 190.539 107.408 192.759 113.861C194.213 118.133 194.601 122.696 193.889 127.152C192.735 135.082 192.88 143.146 194.318 151.029C195.114 156.441 196.372 161.805 197.581 167.138C198.345 170.465 199.348 173.712 200.319 176.991C200.632 177.75 201.022 178.475 201.481 179.156L208.229 174.985ZM160.385 161.36C169.426 174.922 176.858 188.882 184.578 202.921C185.321 201.093 186.177 199.312 187.14 197.589C188.027 196.426 188.567 195.037 188.699 193.582C188.832 192.126 188.55 190.662 187.888 189.359C187.763 188.932 187.672 188.496 187.618 188.054C186.153 182.865 184.88 177.628 183.145 172.55C181.283 167.138 178.991 161.869 176.858 156.552C176.558 155.911 176.217 155.289 175.84 154.69C171.399 158.208 166.274 159.768 160.385 161.296V161.36ZM190.069 139.871C189.857 139.988 189.655 140.121 189.464 140.269C186.798 144.724 183.409 148.705 179.437 152.048C178.561 152.716 178.689 153.64 179.071 154.483C179.707 155.964 180.408 157.412 180.997 158.908C184.533 167.606 187.489 176.529 189.846 185.618C190.196 187.051 190.721 188.452 191.247 190.171L199.109 181.241C193.905 168.045 191.708 154.133 190.069 139.807V139.871ZM235.429 170.528C231.581 169.404 228.103 167.272 225.355 164.352C222.867 161.212 220.561 157.933 218.447 154.531C218.718 160.484 218.59 166.183 220.039 171.563C222.537 172.104 224.925 172.486 227.217 173.155C229.509 173.823 231.641 174.826 233.79 175.67C234.331 174.062 234.841 172.47 235.429 170.528ZM153.669 161.519C158.682 167.79 163.6 173.903 168.503 180.015C168.503 180.015 168.678 180.015 168.757 180.015C168.837 180.015 168.885 179.904 169.044 179.777C168.725 179.172 168.455 178.503 168.073 177.914C165.097 173.218 161.977 168.618 159.176 163.827C158.677 162.857 157.848 162.097 156.838 161.686C155.827 161.274 154.703 161.238 153.669 161.583V161.519ZM272.02 110.407L271.511 110.836C271.569 111.349 271.764 111.836 272.074 112.248C272.385 112.66 272.801 112.98 273.278 113.176L273.803 112.762C273.214 112.03 272.625 111.25 272.02 110.47V110.407Z" fill="black"/>
<path d="M409.105 289.116C410.697 290.103 412.288 291.042 413.88 292.061C419.073 295.338 423.221 300.033 425.833 305.591C427.549 309.495 428.155 313.797 427.583 318.023C426.769 323.368 424.938 328.506 422.188 333.161C420.316 336.647 417.929 339.829 415.105 342.6C411.638 346.067 406.941 348.024 402.038 348.044C400.959 348.117 399.877 347.94 398.878 347.525C397.878 347.111 396.988 346.472 396.277 345.656C396.11 345.451 395.991 345.212 395.926 344.956C395.926 344.813 396.022 344.638 396.149 344.224C397.454 344.494 398.823 344.701 400.16 345.036C401.956 345.454 403.824 345.454 405.62 345.038C407.416 344.621 409.093 343.798 410.521 342.632C415.33 338.969 419.037 334.05 421.233 328.417C422.526 325.654 423.59 322.79 424.416 319.854C426.342 311.704 423.652 304.764 418.05 298.858C414.103 294.688 410.824 292.491 407.306 291.584C406.813 292.013 406.192 292.507 405.619 293.048C402.005 296.5 397.65 299.081 392.886 300.593C384.985 303.31 376.336 302.842 368.774 299.288C365.996 298.268 363.329 296.966 360.816 295.404C360.163 294.926 358.954 295.245 357.967 295.197C355.436 298.842 355.086 303.076 354.322 307.231C353.558 311.385 355.325 315.365 355.818 319.535C357.68 319.774 359.526 320.013 361.389 320.22C370.445 321.207 377.798 325.568 384.133 331.856C386.58 334.196 388.877 336.69 391.008 339.321C393.111 341.8 394.686 344.683 395.636 347.792C396.585 350.902 396.89 354.172 396.531 357.404C395.329 366.558 390.966 375.004 384.196 381.281C380.563 384.944 376.129 387.714 371.243 389.372C366.357 391.029 361.153 391.529 356.041 390.831C351.456 390.423 347.02 389 343.053 386.665C339.087 384.331 335.689 381.143 333.106 377.333C331.228 374.611 329.509 371.778 327.885 368.897C326.854 367.046 325.965 365.12 325.227 363.134C325.149 362.332 325.219 361.523 325.434 360.747C326.156 360.997 326.808 361.416 327.334 361.97C327.86 362.524 328.246 363.196 328.458 363.93C330.51 368.81 333.248 373.372 336.592 377.476C340.329 382.096 345.414 385.435 351.139 387.027C357.355 388.796 363.961 388.645 370.089 386.594C376.218 384.543 381.585 380.688 385.486 375.534C389.337 370.876 392.061 365.39 393.444 359.505C394.72 354.357 393.92 348.913 391.215 344.351C386.23 335.853 378.828 329.032 369.951 324.756C365.575 322.794 360.771 321.983 355.993 322.401C351.309 322.551 346.687 323.521 342.337 325.266C338.404 326.879 334.709 329.021 331.355 331.633L332.485 333.416C331.069 335.007 331.069 335.007 328.793 333.495C324.32 337.14 320.23 341.008 320.469 347.519C320.469 348.41 320.389 349.222 319.45 349.461C318.511 349.7 317.763 348.824 317.476 348.012C317.301 347.323 317.301 346.601 317.476 345.911C318.453 340.864 321.223 336.34 325.275 333.177C325.689 332.843 326.087 332.477 326.485 332.11C326.735 331.849 326.969 331.573 327.185 331.283C326.776 330.549 326.33 329.837 325.848 329.15C324.257 327.112 322.585 325.107 320.962 323.069C320.469 322.448 319.768 321.732 320.612 320.968C320.782 320.789 320.993 320.652 321.225 320.568C321.458 320.484 321.707 320.456 321.953 320.486C322.199 320.515 322.434 320.601 322.64 320.737C322.847 320.874 323.019 321.056 323.143 321.27C325.275 324.008 327.456 326.714 329.764 329.627C335.87 325.335 342.785 322.33 350.088 320.793C348.497 319.472 347.446 318.469 346.284 317.609C343.833 315.795 341.239 314.155 338.852 312.277C338.503 311.888 338.019 311.647 337.498 311.603C336.978 311.558 336.46 311.714 336.05 312.038C332.476 314.316 328.5 315.894 324.336 316.686C320.361 317.488 316.24 317.151 312.447 315.715C319.959 314.871 327.599 314.617 334.411 310.223C334.22 309.491 333.424 308.234 334.777 307.82C335.884 307.701 337.004 307.77 338.088 308.027C343.23 304.929 347.762 300.915 351.457 296.184C353.23 293.822 354.826 291.332 356.232 288.734C359.013 283.865 360.354 278.307 360.099 272.705C359.625 266.501 357.606 260.515 354.226 255.291C350.434 249.341 344.866 244.736 338.31 242.127C333.792 240.215 328.869 239.46 323.986 239.93C317.62 240.503 311.365 241.729 305.778 245.215C301.057 248.191 296.96 252.056 293.714 256.596C289.723 262.054 287.162 268.423 286.265 275.125C286.003 277.084 286.003 279.07 286.265 281.03C287.315 288.416 291.406 294.067 296.802 298.922C298.982 300.931 301.557 302.465 304.362 303.426C304.996 303.649 305.682 303.682 306.335 303.522C307.927 303.092 308.341 304.843 309.598 305.114C309.916 305.114 310.028 306.276 310.25 306.928C309.557 307.248 308.802 307.414 308.038 307.414C307.274 307.414 306.52 307.248 305.826 306.928C302.697 305.821 299.748 304.26 297.072 302.296C292.379 298.803 288.6 294.227 286.058 288.957C283.522 283.825 282.885 277.96 284.26 272.403C284.293 272.138 284.293 271.871 284.26 271.607L277.893 268.805L262.184 261.801C261.698 261.67 261.204 261.574 260.704 261.515C266.545 268.726 270.381 276.382 271.24 285.216C272.318 293.984 269.981 302.83 264.715 309.921C269.813 314.086 274.261 318.99 277.909 324.47C278.528 325.201 279.364 325.714 280.297 325.934C281.888 326.364 283.687 326.428 285.342 326.842C290.355 328.244 294.986 330.764 298.887 334.212C302.824 337.742 306.063 341.981 308.436 346.707C310.622 350.306 312.047 354.315 312.622 358.486C313.045 362.353 312.566 366.265 311.221 369.915C309.869 373.592 308.245 377.158 306.669 380.915C307.613 381.249 308.575 381.53 309.55 381.758C314.325 382.634 317.508 385.626 320.262 389.319C323.37 393.382 325.849 397.889 327.615 402.69C329.545 408.344 329.489 414.487 327.456 420.104C325.116 427.06 320.087 432.09 315.933 437.741C314.358 439.612 312.562 441.285 310.585 442.723C310.248 442.958 309.867 443.122 309.465 443.207C309.063 443.292 308.648 443.295 308.245 443.217L314.357 437.693C313.641 437.693 313.259 437.487 313.068 437.614C309.174 440.074 304.856 441.785 300.335 442.66C297.514 443.203 294.644 443.454 291.772 443.408C287.637 443.258 283.573 442.284 279.819 440.543C274.965 438.442 271.527 434.749 268.375 430.658C265.69 427.059 263.515 423.106 261.914 418.91C261.324 417.013 261.324 414.982 261.914 413.084C262.675 410.6 263.744 408.22 265.097 406.001C266.425 403.937 268.427 402.396 270.763 401.64C271.718 401.242 272.561 401.353 272.641 402.228C270.777 403.569 269.021 405.054 267.389 406.67C263.648 411.031 263.537 416.061 265.702 421.075C267.885 426.499 271.36 431.307 275.824 435.083C279.64 438.128 284.279 439.963 289.146 440.352C293.759 440.902 298.436 440.522 302.9 439.234C307.364 437.946 311.525 435.777 315.137 432.854C319.861 429.213 323.36 424.214 325.164 418.528C327.007 412.548 326.512 406.091 323.779 400.462C322.105 396.707 320.001 393.16 317.508 389.892C315.504 387.214 312.665 385.282 309.439 384.4C307.994 383.979 306.46 383.969 305.009 384.371C303.558 384.773 302.248 385.572 301.226 386.677C296.817 390.802 291.273 393.513 285.31 394.461C279.774 395.356 274.119 395.188 268.646 393.967C265.353 393.155 262.206 391.834 259.319 390.051C254.313 387.032 249.979 383.018 246.586 378.256C243.892 374.436 241.858 370.191 240.57 365.697C239.454 362.734 239.066 359.545 239.44 356.401C240.312 350.391 243.331 344.9 247.939 340.945C249.658 339.464 249.531 339.353 249.404 337.363C250.852 336.551 252.38 335.66 253.94 334.848C255.499 334.036 255.69 333.623 254.72 332.158C252.46 328.736 250.374 325.154 247.112 322.607C243.658 323.499 240.204 324.438 236.75 325.282C235.598 325.484 234.434 325.606 233.265 325.648C231.084 325.791 231.068 325.807 230.511 327.829C229.53 331.748 228.865 335.741 228.522 339.767C227.548 351.349 227.633 362.996 228.776 374.563C229.206 380.166 230.702 385.706 231.689 391.261C232.039 393.283 232.31 395.336 232.596 397.389C233.806 406.208 235.143 415.01 236.146 423.861C237.291 433.953 238.231 444.077 239.042 454.2C239.695 462.271 240.172 470.373 240.459 478.459C240.809 488.344 241.716 498.181 242.958 508.003C243.547 512.619 244.549 517.203 245.106 521.819C245.584 525.385 245.775 528.998 246.077 532.58L245.488 532.707C244.899 530.638 244.231 528.6 243.753 526.515C241.432 516.982 239.757 507.303 238.74 497.545C237.833 486.88 237.514 476.167 236.798 465.47C236.337 458.387 235.652 451.303 235.063 444.22C234.793 441.036 234.522 437.773 234.188 434.542C233.328 426.312 232.596 418.067 231.514 409.869C230.702 403.741 229.413 397.676 228.41 391.564C227.408 385.451 226.15 379.179 225.53 372.94C224.554 362.887 224.42 352.771 225.132 342.696C225.418 338.589 226.15 334.498 226.803 330.407C227.135 328.865 227.561 327.345 228.076 325.855C218.924 325.393 212.272 320.936 207.242 312.786C206.937 313.892 206.718 315.02 206.589 316.161C206.367 324.12 206.08 332.19 206.08 340.213C206.08 345.243 206.414 350.289 206.812 355.303C207.481 363.819 208.293 372.335 209.088 380.851C209.47 384.958 209.836 389.096 210.457 393.187C211.38 399.3 212.494 405.396 213.545 411.493C214.595 417.589 215.709 423.702 216.728 429.814C217.858 436.547 218.988 443.265 219.991 450.014C221.963 464.001 222.857 478.119 222.665 492.244C222.665 500.537 222.665 508.83 223.047 517.108C223.365 523.363 224.336 529.587 225.036 535.827C225.227 537.578 225.577 539.345 225.609 541.096C225.451 542.004 225.144 542.881 224.702 543.69L224.033 543.595C223.445 540.65 222.84 537.705 222.267 534.76C219.943 522.583 219.72 510.263 219.657 497.927C219.657 491.002 219.832 484.062 219.45 477.233C219.051 467.28 218.126 457.355 216.68 447.499C215.518 440.399 214.754 433.173 213.593 426.137C212.813 421.362 211.508 416.586 210.696 411.811C209.274 403.587 207.98 395.347 206.812 387.091C206.192 382.729 206.001 378.304 205.603 373.911C205.125 368.355 204.616 362.768 204.138 357.245C204.027 355.812 203.963 354.379 203.932 352.947C203.756 344.303 203.39 335.66 203.47 327.017C203.47 321.716 204.25 316.431 204.664 311.099C204.639 310.741 204.693 310.382 204.823 310.048C206.16 308.202 205.475 306.371 204.998 304.445C204.623 302.778 204.431 301.076 204.425 299.367C204.068 293.878 204.605 288.368 206.017 283.052C208.929 273.676 215.105 267.134 225.02 266.752C228.079 266.751 231.125 267.158 234.076 267.961C235.191 268.216 236.066 269.553 237.498 270.779C234.061 270.317 231.275 270.094 228.538 269.553C225.417 268.77 222.128 268.994 219.143 270.195C216.158 271.396 213.63 273.512 211.921 276.239C209.744 279.221 208.314 282.682 207.751 286.331C206.894 290.937 206.605 295.63 206.892 300.307C207.401 305.623 208.404 310.796 211.874 315.142C213.569 317.311 215.7 319.102 218.128 320.398C220.557 321.695 223.23 322.469 225.975 322.671C237.385 323.7 248.751 320.278 257.696 313.12C262.236 309.544 265.569 304.66 267.245 299.129C269.935 290.979 269.06 283.083 266.115 275.14C264.246 270.105 261.358 265.51 257.632 261.642C255.273 259.261 252.1 257.862 248.751 257.726L246.523 257.535L248.274 260.098C245.09 260.607 243.499 257.71 240.968 257.647V255.179C238.148 255.239 235.333 255.441 232.533 255.784C227.366 256.537 222.377 258.219 217.81 260.751C215.598 262.149 213.472 263.68 211.444 265.335C205.078 270.11 201.369 276.621 197.549 283.211C191.931 292.921 189.193 303.586 186.917 314.41C186.185 317.928 185.755 321.509 185.087 325.027C184.867 326.46 185.202 327.924 186.026 329.118C188.845 333.993 189.698 339.76 188.413 345.243C187.825 348.028 187.092 350.798 186.233 353.52C184.327 359.357 181.001 364.629 176.556 368.865C172.839 372.641 168.363 375.587 163.425 377.508C158.141 379.624 152.426 380.438 146.761 379.88C142.459 379.358 138.346 377.801 134.776 375.343C131.376 373.122 128.297 370.444 125.625 367.384C123.249 364.809 121.347 361.835 120.006 358.598C119.136 356.242 118.298 353.875 117.492 351.498C115.136 344.447 117.11 338.239 121.327 332.524C123.768 329.091 126.72 326.053 130.081 323.515C130.352 323.324 130.734 322.974 130.718 322.719C130.591 320.665 132.309 320.045 133.535 319.169C142.941 312.5 153.43 311.019 164.428 313.423C170.767 314.881 176.569 318.091 181.172 322.687C181.426 322.926 181.697 323.133 182.333 323.658C182.62 322.369 182.811 321.382 183.05 320.395C184.641 313.487 185.931 306.467 187.936 299.702C190.654 290.472 194.847 281.743 200.35 273.851C201.942 271.654 203.741 269.681 205.364 267.484C206.16 266.449 206.701 265.24 207.465 264.173C207.927 263.534 208.511 262.993 209.184 262.581C215.178 258.768 221.729 255.911 228.601 254.113C233.971 252.854 239.522 252.557 244.995 253.237C248.426 253.929 251.784 254.947 255.022 256.278C257.903 257.249 260.784 258.252 263.585 259.461C270.604 262.406 277.559 265.446 284.833 268.566C287.757 259.604 293.301 251.725 300.749 245.947L300.446 245.47C299.804 245.542 299.167 245.648 298.536 245.788C290.111 248.241 281.235 248.725 272.593 247.205C267.118 246.265 261.723 244.785 256.279 243.623C254.083 243.162 251.839 242.955 249.626 242.573C248.864 242.387 248.115 242.153 247.382 241.872C247.66 241.191 248.178 240.634 248.837 240.309C249.497 239.983 250.254 239.911 250.963 240.105C257.33 241.442 263.696 242.62 269.935 244.212C273.873 245.15 277.904 245.641 281.952 245.676C289.612 245.668 297.218 244.41 304.473 241.952C309.149 240.348 313.937 239.093 318.797 238.195C324.936 237.05 331.265 237.5 337.18 239.5C346.398 242.792 354.014 249.475 358.476 258.188C361.533 263.536 362.96 269.661 362.582 275.809C362.295 278.397 361.735 280.947 360.911 283.418C360.179 285.789 359.033 288.05 358.062 290.374C359.399 291.377 360.752 292.523 362.232 293.43C363.712 294.337 365.415 295.022 367.007 295.881C371.789 298.215 377.03 299.455 382.35 299.511C385.593 299.444 388.81 298.908 391.9 297.919C396.051 296.775 399.838 294.582 402.898 291.552C402.922 291.335 402.922 291.116 402.898 290.899C402.579 290.119 401.783 289.18 401.99 288.591C402.341 287.54 403.582 287.54 404.553 287.859C404.974 288.011 405.438 287.999 405.851 287.825C406.264 287.651 406.596 287.328 406.781 286.92C410.637 281.584 413.035 275.335 413.736 268.789C413.881 265.353 413.205 261.931 411.763 258.809C409.474 253.447 406.239 248.54 402.213 244.323C399.273 240.785 395.617 237.91 391.486 235.887C387.632 234.137 383.462 233.189 379.231 233.101C374.1 233.088 369.025 234.173 364.349 236.285C361.261 237.654 358.285 239.293 355.245 240.806C354.943 240.965 354.386 241.14 354.386 241.315C354.386 244.387 351.966 243.193 350.438 243.512C350.265 243.567 350.082 243.587 349.901 243.569C349.72 243.552 349.544 243.497 349.384 243.409C349.225 243.321 349.085 243.202 348.974 243.058C348.862 242.914 348.781 242.749 348.735 242.573C348.433 241.729 348.863 241.235 349.579 240.838C353.139 238.589 356.92 236.711 360.863 235.234C364.27 234.136 367.564 232.703 371.002 231.748C374.581 230.792 378.317 230.57 381.984 231.096C386.193 231.543 390.264 232.86 393.937 234.964C396.951 236.897 399.762 239.132 402.325 241.633C406.62 245.722 410.178 250.52 412.845 255.816C413.977 258.04 414.873 260.377 415.519 262.788C416.442 266.551 416.41 270.486 415.424 274.233C414.06 279.146 411.996 283.837 409.296 288.161C409.194 288.471 409.13 288.791 409.105 289.116V289.116ZM279.612 392.359C285.655 392.371 291.551 390.502 296.483 387.011C298.186 385.849 300.287 384.894 300.828 382.49C300.828 382.14 301.449 381.917 301.751 381.599C302.658 380.773 303.494 379.873 304.25 378.909C305.388 377.292 306.369 375.571 307.179 373.767C309.455 368.435 311.269 362.943 309.837 357.038C308.094 349.795 304.514 343.123 299.444 337.666C296.229 334.269 292.313 331.613 287.968 329.882C283.464 327.956 278.8 328.29 274.201 329.006C268.978 329.928 263.96 331.771 259.383 334.45C257.982 335.228 256.674 336.163 255.484 337.236C254.863 337.825 254.863 339.114 254.21 339.671C253.407 340.124 252.528 340.426 251.616 340.563C251.616 340.563 251.505 340.69 251.441 340.754C248.687 343.699 245.504 346.293 243.753 350.034C242.297 352.836 241.59 355.967 241.7 359.123C242.32 365.869 244.8 372.31 248.862 377.731C251.96 382.055 255.949 385.665 260.561 388.316C265.861 391.293 271.797 392.312 279.612 392.359ZM186.249 341.024C186.153 339.433 186.137 337.92 185.962 336.408C185.804 335.248 185.549 334.103 185.198 332.986C184.782 331.532 183.905 330.253 182.7 329.341C181.601 328.449 181.49 326.412 180.471 325.298C176.667 321.097 171.784 318.019 166.354 316.4C161.077 314.8 155.511 314.387 150.056 315.19C149.626 315.19 148.894 315.285 148.83 315.508C148.082 317.816 145.647 317.848 144.055 318.437C137.573 320.869 131.716 324.719 126.914 329.707C124.124 332.414 121.919 335.664 120.436 339.258C118.431 344.479 119.226 349.731 120.961 354.857C123.29 361.989 127.999 368.103 134.299 372.176C136.786 373.936 139.501 375.349 142.368 376.378C146.949 377.761 151.812 377.914 156.47 376.824C162.303 375.641 167.744 373.008 172.29 369.167C176.456 365.714 179.851 361.424 182.255 356.577C184.659 351.729 186.02 346.431 186.249 341.024V341.024ZM275.761 326.523C272.735 322.008 269.344 317.749 265.622 313.789C264.19 312.197 262.884 312.595 261.213 313.789C258.364 315.906 255.372 317.848 252.428 319.838C251.775 320.267 251.075 320.618 250.247 321.079L258.364 332.063C263.839 329.834 269.203 327.176 275.761 326.523ZM351.759 318.31C350.574 311.732 351.028 304.964 353.081 298.603L340.236 309.746L351.759 318.31Z" fill="black"/>
<path d="M185.819 253.046C186.742 254.304 185.947 255.02 184.976 255.641C183.034 256.914 181.044 258.124 179.103 259.43C174.508 262.518 169.924 265.622 165.351 268.741C160.778 271.861 156.226 275.002 151.695 278.165L142.464 284.627C135.054 289.827 127.36 294.61 119.418 298.953C113.513 302.137 107.56 305.225 101.464 308.011C95.3685 310.796 88.7315 313.343 82.3651 315.97C81.2828 316.415 80.1369 316.67 78.609 317.148C80.7278 318.605 82.7482 320.2 84.657 321.923C86.5034 323.758 88.0838 325.842 89.3523 328.115C90.488 330.458 91.3634 332.919 91.9625 335.453C92.6628 337.936 93.0448 340.499 93.5541 343.126C96.2917 339.783 98.9178 336.456 101.687 333.225C105.215 328.745 109.021 324.491 113.083 320.49C115.932 317.912 118.351 314.887 121.152 312.261C125.704 308.011 130.209 303.697 135.079 299.829C141.7 294.544 148.608 289.626 155.452 284.596C158.412 282.431 161.452 280.361 164.508 278.308C172.093 273.225 180.133 268.855 188.525 265.255C189.798 264.714 191.406 265.112 192.504 263.886C192.615 263.743 193.395 263.887 193.602 264.205C193.696 264.39 193.745 264.594 193.745 264.802C193.745 265.009 193.696 265.214 193.602 265.399C191.374 268.932 189.018 272.403 186.822 275.984C184.259 280.17 181.888 284.5 179.294 288.718C175.474 294.879 172.163 301.373 167.054 306.674C166.386 307.374 165.813 308.186 165.112 309.014L165.638 309.857C164.906 311.067 162.327 310.78 160.497 309.173C160.915 308.629 161.408 308.147 161.961 307.74C164.924 305.999 167.369 303.499 169.044 300.498C174.678 291.536 180.01 282.383 185.469 273.31C186.153 272.164 186.87 271.034 187.538 269.935C186.901 268.805 186.122 268.932 185.198 269.346C182.827 270.429 180.344 271.272 178.068 272.53C174.169 274.695 170.317 277.003 166.545 279.406C162.088 282.256 157.68 285.169 153.382 288.257C147.844 292.236 142.337 296.216 137.021 300.545C129.098 306.849 121.615 313.689 114.627 321.016C109.343 326.603 104.472 332.604 99.4908 338.525C97.7718 340.579 96.3076 342.903 94.716 344.892C93.7878 345.992 93.2308 347.357 93.1244 348.792C92.6755 353.358 91.4707 357.818 89.5592 361.988C87.1623 367.039 83.3818 371.305 78.6568 374.293C74.9761 376.545 70.9141 378.104 66.672 378.893C61.2268 380.248 55.5231 380.166 50.1193 378.654C41.2859 375.932 34.1237 370.95 29.9537 362.466C28.2466 359.113 26.8764 355.599 25.8633 351.976C24.1218 345.77 24.3049 339.181 26.3886 333.081C28.3666 327.188 31.8506 321.915 36.4952 317.784C37.5068 317.031 38.5705 316.35 39.6784 315.747C40.6263 315.296 41.3945 314.539 41.8589 313.598C42.6388 311.799 44.8352 311.576 46.4905 311.29C52.9438 309.897 59.6516 310.249 65.924 312.309C68.1045 313.089 70.3008 313.9 72.4336 314.76C75.9669 316.256 79.3729 315.413 82.6675 314.187C87.2036 312.516 91.6601 310.637 96.0688 308.695C102.196 305.989 108.388 303.395 114.309 300.275C120.675 296.932 126.787 293.223 132.819 289.339C139.949 284.755 146.857 279.788 153.86 275.013C159.319 271.272 164.762 267.532 170.237 263.871C173.643 261.563 177.097 259.35 180.487 257.042C181.571 256.445 182.477 255.572 183.113 254.511C183.48 253.795 184.944 253.651 185.915 253.253L185.819 253.046ZM50.2148 313.311L50.0716 313.869C50.52 314.094 50.9825 314.291 51.4563 314.458C57.2975 316.352 62.0245 320.124 66.9108 323.594C67.6588 324.136 67.9293 325.393 68.3272 326.364C68.3272 326.523 67.993 326.873 67.8816 327.048C63.8708 324.358 60.035 321.732 56.1197 319.201C54.7427 318.351 53.3004 317.611 51.8064 316.988C49.9283 316.161 47.9707 316.67 46.013 316.638C43.7792 316.437 41.5504 317.073 39.7581 318.421C38.0257 319.701 36.4261 321.151 34.9833 322.751C31.2589 327.335 28.3144 332.301 27.7096 338.398C26.9733 344.037 27.6065 349.77 29.5558 355.112C31.5931 360.333 33.7576 365.41 38.1823 369.135C41.8591 372.434 46.2668 374.813 51.0424 376.075C58.4635 377.795 66.2457 377 73.1657 373.815C78.9691 371.457 83.7505 367.121 86.6625 361.574C87.697 359.553 88.3655 357.34 89.3364 354.841L86.6943 355.892C87.6493 353.568 88.2859 351.801 89.1135 350.145C89.8645 348.711 90.2577 347.116 90.2595 345.497C90.3259 340.632 89.411 335.803 87.5697 331.299C86.268 327.651 83.9482 324.452 80.885 322.082C77.8609 319.901 74.8688 317.45 70.6828 317.816C69.8683 317.761 69.0652 317.595 68.2954 317.323L68.5819 315.604C62.5975 313.471 56.5494 312.197 50.2148 313.311Z" fill="black"/>
<path d="M379.215 162.999C378.848 162.981 378.49 162.883 378.164 162.713C377.416 162.14 376.764 161.455 376.063 160.818C376.61 160.162 377.23 159.569 377.91 159.052C382.414 156.103 387.311 153.804 392.457 152.223C398.258 150.78 404.325 150.78 410.126 152.223C415.928 153.666 421.287 156.508 425.737 160.5C430.838 165.55 434.861 171.583 437.563 178.233C439.608 182.961 440.222 188.185 439.329 193.259C438.76 196.255 437.543 199.091 435.764 201.568C433.129 205.617 429.715 209.101 425.721 211.819C421.242 214.803 416.367 217.145 411.238 218.775C406.604 220.32 401.789 221.252 396.913 221.545C391.798 221.913 386.661 221.247 381.809 219.587C378.069 218.597 374.523 216.982 371.32 214.812C369.327 213.326 367.444 211.698 365.686 209.941C365.428 209.681 365.228 209.369 365.098 209.027C364.968 208.685 364.91 208.319 364.93 207.953C364.949 207.587 365.045 207.23 365.211 206.903C365.377 206.577 365.609 206.288 365.893 206.057C367.053 206.968 368.119 207.992 369.076 209.113C371.037 211.594 373.633 213.497 376.589 214.621C385.514 218.9 395.672 219.853 405.237 217.311C411.852 215.663 418.165 212.977 423.939 209.352C429.818 205.782 434.257 200.261 436.48 193.752C437.652 190.124 437.608 186.211 436.353 182.61C435.069 178.407 433.256 174.385 430.958 170.64C428.798 167.164 426.156 164.013 423.111 161.28C415.153 154.324 405.906 152.462 395.783 154.022C390.728 154.902 385.933 156.898 381.745 159.863C380.782 160.806 379.933 161.859 379.215 162.999V162.999Z" fill="black"/>
<path d="M152.348 111.091L148.814 109.229C147.461 109.038 145.631 111.632 144.04 108.656L147.493 106.57C148.241 102.639 149.706 100.92 154.019 100.363C158.332 99.8054 162.438 99.885 166.656 99.7735C167.102 99.7735 167.563 100.394 168.009 100.729C167.579 101.206 167.197 101.97 166.704 102.082C165.134 102.418 163.535 102.6 161.929 102.623C158.619 102.623 157.568 104.979 158.921 107.541C161.929 108.735 164.746 109.818 167.547 110.964C168.709 111.441 169.569 112.174 169.06 113.781C167.49 114.277 165.813 114.324 164.218 113.916C162.623 113.508 161.174 112.662 160.035 111.473C159.208 110.837 158.336 110.262 157.425 109.754C156.343 114.752 155.388 119.305 154.401 123.825C152.586 123.443 152.029 122.52 152.332 121.04C152.809 118.668 153.303 116.264 153.796 113.925C154.13 112.333 154.528 110.741 154.815 109.149C155.069 107.812 155.117 106.395 156.852 106.141V102.4C156.118 102.197 155.35 102.149 154.597 102.258C153.843 102.368 153.121 102.633 152.475 103.037C151.027 103.737 150.883 104.915 151.854 106.427C152.331 107.097 152.626 107.877 152.713 108.694C152.799 109.511 152.674 110.337 152.348 111.091V111.091Z" fill="black"/>
<path d="M246.507 297.203C248.601 294.96 250.182 292.287 251.139 289.371C251.759 287.7 251.727 287.684 253.335 286.983C253.738 288.823 253.496 290.745 252.651 292.427C251.902 294.019 251.059 295.611 250.295 297.346C251.912 297.761 253.607 297.773 255.23 297.382C256.853 296.991 258.355 296.208 259.606 295.101C259.876 295.834 260.354 296.486 260.179 296.836C259.855 297.646 259.302 298.343 258.587 298.842C257.055 299.801 255.267 300.267 253.462 300.179C252.109 300.084 250.757 300.179 249.356 300.179C248.556 301.009 247.929 301.989 247.511 303.063C247.093 304.137 246.893 305.283 246.921 306.435C246.835 307.694 246.654 308.944 246.38 310.176C245.982 311.767 244.788 312.197 243.196 311.592C243.753 308.759 244.311 305.926 244.931 302.742C242.114 303.92 239.743 304.923 237.355 305.926C236.388 306.399 235.375 306.773 234.331 307.04C233.27 307.125 232.203 307.098 231.148 306.96C231.406 306.325 231.828 305.77 232.37 305.35C232.912 304.931 233.556 304.663 234.236 304.573C237.889 303.814 241.373 302.395 244.517 300.386C243.76 296.581 242.125 293.006 239.743 289.944C238.644 288.623 237.849 286.904 235.557 287.333C235.175 287.333 234.586 286.267 234.092 285.742C234.618 285.36 235.127 284.675 235.684 284.643C236.478 284.593 237.267 284.806 237.928 285.248C241.222 287.46 243.739 290.65 245.122 294.369C245.52 295.165 245.966 296.025 246.507 297.203Z" fill="black"/>
<path d="M352.539 275.443C349.627 270.397 344.39 268.312 340.507 264.682C342.099 263.489 343.022 263.441 344.359 264.396L351.107 269.171C351.417 268.051 351.46 266.873 351.234 265.733C351.234 264.364 351.441 263.218 353.097 262.9C355.07 263.536 355.229 265.606 356.041 267.086C357.832 270.216 358.837 273.733 358.97 277.337C359.006 277.668 358.97 278.002 358.866 278.318C358.762 278.634 358.591 278.924 358.365 279.168C357.999 279.406 357.091 278.993 356.534 278.674C354.306 277.369 353.112 277.289 351.187 278.993C348.847 281.062 346.73 283.354 344.486 285.519C343.447 286.619 342.295 287.606 341.048 288.464C339.759 289.275 339.075 288.83 338.502 287.413C340.65 285.36 342.831 283.45 344.772 281.332C346.974 278.905 349.608 276.908 352.539 275.443ZM355.022 271.527L354.529 271.638L355.293 275.061L355.882 274.918L355.022 271.527Z" fill="black"/>
<path d="M282.986 406.908C285.422 403.932 285.422 403.932 286.727 404.584C286.393 405.301 286.106 406.033 285.724 406.717C284.928 408.102 284.721 408.118 282.986 406.908Z" fill="black"/>
<path d="M296.26 57.05L295.258 59.2945C294.191 59.0398 293.284 58.61 293.666 57.5754C294.048 56.5407 294.892 56.2223 296.26 57.05Z" fill="black"/>
<path d="M355.022 271.527L355.882 274.918L355.293 275.061L354.529 271.638L355.022 271.527Z" fill="white"/>
<path d="M116.202 243.957C114.181 243.83 114.356 241.442 112.749 240.599C110.959 245.281 110.084 250.263 110.17 255.275C110.137 256.171 110.314 257.062 110.688 257.878C111.061 258.693 111.619 259.41 112.319 259.971C111.96 260.249 111.534 260.428 111.084 260.489C110.634 260.55 110.176 260.492 109.756 260.319C109.336 260.146 108.969 259.865 108.693 259.505C108.416 259.145 108.24 258.718 108.181 258.268C107.458 255.677 107.317 252.96 107.767 250.309C108.101 247.746 108.038 245.119 109.359 242.684C109.741 241.968 109.359 240.806 109.215 239.5C107.48 240.455 106.032 241.188 105.332 242.891C104.632 244.594 103.629 246.441 103.072 248.303C102.995 249.44 103.114 250.581 103.422 251.678C102.706 251.455 101.607 251.423 101.369 250.961C100.808 249.964 100.559 248.822 100.653 247.682C100.925 245.429 101.791 243.289 103.161 241.479C104.531 239.67 106.357 238.257 108.451 237.383C108.691 237.268 108.925 237.141 109.152 237.001C109.518 233.818 109.9 230.73 110.202 227.61C110.448 226.088 111.247 224.71 112.446 223.742C112.613 223.611 112.809 223.525 113.018 223.491C113.227 223.458 113.441 223.478 113.64 223.551C113.819 223.715 113.958 223.918 114.046 224.144C114.134 224.37 114.17 224.614 114.149 224.856C113.659 226.105 113.239 227.38 112.892 228.676C112.51 231.143 112.383 233.659 112.096 236.794C113.688 234.884 114.786 233.42 116.075 232.162C117.839 230.461 120.198 229.519 122.648 229.536C124.845 229.536 125.832 230.539 125.991 233.038C123.317 232.146 120.643 231.78 118.367 233.706C117.463 234.387 116.713 235.251 116.164 236.241C115.616 237.231 115.282 238.325 115.184 239.453L129.89 243.512C130.097 244.769 129.795 245.326 128.553 245.422C127.037 245.55 125.528 245.758 124.033 246.043C121.454 246.449 118.816 245.881 116.632 244.451C116.425 244.339 116.362 244.005 116.234 243.766C116.966 244.037 117.699 244.323 118.447 244.578C119.495 245.106 120.644 245.401 121.817 245.445C122.99 245.489 124.158 245.28 125.243 244.833C122.06 243.114 119.004 242.955 115.852 242.35L116.202 243.957Z" fill="black"/>
<path d="M284.26 371.093C288.573 369.788 288.875 369.883 289.035 372.398C287.427 372.828 286.058 372.032 284.26 371.093Z" fill="black"/>
<path d="M21.9956 222.717C21.7859 223.117 21.4748 223.455 21.0934 223.697C20.712 223.939 20.2737 224.077 19.8224 224.096C19.3711 224.116 18.9227 224.016 18.522 223.808C18.1212 223.599 17.7823 223.289 17.5392 222.908C15.7775 220.849 14.4946 218.424 13.783 215.809C13.019 213.342 11.8412 211.034 11.9845 208.248C11.9845 207.42 11.1249 206.561 10.5201 205.462C9.35824 207.054 8.33961 208.328 8.43511 210.158C8.53061 211.989 8.43513 214.106 8.65796 216.016C8.8012 216.955 9.69254 217.799 10.3929 218.929C9.6448 219.024 8.64203 219.47 8.24412 219.152C7.31434 218.483 6.60512 217.552 6.20692 216.477C5.52417 214.325 5.42064 212.031 5.90684 209.826C6.39304 207.621 7.45177 205.584 8.9763 203.918C9.15138 203.727 9.29462 203.504 9.46969 203.282C8.46698 200.273 7.51199 197.281 6.46153 194.32C6.04357 192.834 6.19102 191.246 6.87537 189.863C6.98678 189.545 7.60751 189.115 7.87809 189.194C8.108 189.269 8.31781 189.396 8.49155 189.564C8.66529 189.732 8.79842 189.938 8.88081 190.165C9.11955 191.486 8.97627 192.887 9.34234 194.161C10.0426 196.564 10.9339 198.936 12.0322 201.865C12.7006 199.445 13.0667 197.663 13.7033 195.975C14.5695 193.708 16.2811 191.865 18.4781 190.834C20.4677 189.895 21.7728 190.404 22.9984 192.601C20.1812 192.919 17.6028 193.715 16.3454 196.421C15.8045 197.42 15.4796 198.521 15.3919 199.654C15.3041 200.786 15.4555 201.925 15.8361 202.995L30.8768 200.48C31.593 201.547 31.5453 202.183 30.463 202.772C29.1409 203.531 27.8605 204.36 26.6273 205.255C24.3831 206.847 20.7701 204.619 17.6823 205.383C18.128 205.908 15.9794 205.048 14.165 204.953C14.5094 209.956 15.8115 214.847 18.0007 219.359C18.3485 220.184 18.8833 220.916 19.5628 221.499C20.2422 222.082 21.0479 222.499 21.9161 222.717" fill="black"/>
<path d="M377.209 353.584L381.029 352.406C382.127 351.578 381.538 348.506 384.833 349.397L383.878 353.313C386.122 356.624 386.297 358.868 383.639 362.307C380.962 365.569 378.12 368.693 375.124 371.666C374.822 371.985 374.042 371.857 373.533 371.937C373.533 371.3 373.23 370.504 373.533 370.059C374.381 368.712 375.367 367.458 376.477 366.318C378.833 363.978 377.894 361.542 375.124 360.699C372.164 361.988 369.395 363.198 366.609 364.376C365.431 364.853 364.317 364.949 363.537 363.453C364.286 361.993 365.428 360.772 366.834 359.928C368.241 359.084 369.855 358.651 371.495 358.677C372.534 358.541 373.56 358.328 374.567 358.041L366.752 345.943C368.344 344.94 369.347 345.195 370.19 346.468C371.527 348.495 372.854 350.517 374.169 352.533C375.061 353.886 375.888 355.287 376.811 356.608C377.734 357.929 378.53 358.773 377.496 360.174L380.154 362.832C380.817 362.461 381.395 361.954 381.85 361.346C382.305 360.737 382.627 360.039 382.796 359.298C383.337 357.706 382.653 356.799 380.854 356.465C380.055 356.326 379.303 355.99 378.666 355.487C378.029 354.984 377.529 354.329 377.209 353.584V353.584Z" fill="black"/>
<path d="M271.718 115.341C273.914 116.551 275.585 117.299 277.066 118.302C279.094 119.684 280.504 121.803 280.997 124.207C281.458 126.34 280.663 127.502 278.243 128.187C278.578 125.385 278.387 122.695 276.031 120.865C275.188 120.1 274.19 119.525 273.105 119.179C272.021 118.833 270.875 118.724 269.744 118.859C269.426 123.905 269.108 129.015 268.789 134.092C267.596 134.538 266.975 134.363 266.641 133.169C266.243 131.705 267.039 123.316 266.991 120.117C266.386 120.451 267.707 118.525 268.2 116.806C263.255 116.006 258.203 116.168 253.319 117.283C252.434 117.434 251.597 117.788 250.873 118.319C250.149 118.849 249.559 119.541 249.149 120.339C248.809 120.042 248.553 119.661 248.405 119.235C248.258 118.808 248.224 118.35 248.308 117.906C248.391 117.463 248.589 117.048 248.882 116.705C249.175 116.361 249.552 116.099 249.977 115.946C252.379 114.689 255.034 113.993 257.744 113.909C260.322 113.702 262.884 113.097 265.511 113.909C266.306 114.147 267.357 113.463 268.566 113.129C267.277 111.632 266.259 110.343 264.444 110.025C262.63 109.706 260.624 109.085 258.699 108.926C257.586 109.087 256.51 109.437 255.515 109.961C255.515 109.197 255.388 108.13 255.786 107.796C256.652 107.046 257.721 106.57 258.858 106.427C261.108 106.251 263.364 106.67 265.401 107.643C267.438 108.615 269.183 110.106 270.46 111.967C270.604 112.174 270.779 112.365 270.954 112.587" fill="black"/>
<path d="M437.006 175.145C434.698 174.221 432.231 173.553 429.287 172.534C430.767 174.54 431.96 175.924 432.884 177.469C434.147 179.572 434.535 182.086 433.966 184.472C433.488 186.605 432.263 187.322 429.78 186.924C431.276 184.52 432.231 182.005 430.878 179.347C430.426 178.303 429.758 177.367 428.918 176.599C428.079 175.831 427.087 175.248 426.008 174.89L418.718 188.277C417.445 188.277 421.679 177.787 422.984 174.858C422.299 174.858 424.305 173.744 425.483 172.359C421.332 169.551 416.679 167.567 411.779 166.517C410.914 166.284 410.007 166.255 409.128 166.431C408.25 166.608 407.425 166.986 406.718 167.536C406.097 165.387 407.115 164.098 409.312 163.907C412.038 163.765 414.76 164.249 417.27 165.323C419.689 166.231 422.267 166.756 424.337 168.507C424.957 169.048 426.199 168.873 427.44 169.08C426.899 167.17 428.714 163.986 429.589 168.809C429.589 169.064 429.732 169.303 429.796 169.573" fill="black"/>
<path d="M344.725 40.5592C342.401 39.6359 339.95 38.9674 337.005 37.9327C338.486 39.9543 339.679 41.3391 340.602 42.8832C341.853 44.9853 342.235 47.4917 341.669 49.8711C341.191 52.02 339.982 52.7363 337.499 52.3384C338.979 49.9348 339.934 47.4038 338.581 44.7614C338.129 43.7153 337.462 42.7762 336.623 42.0055C335.784 41.2347 334.791 40.6497 333.711 40.2885L326.501 53.6914C325.228 53.6118 329.461 43.1856 330.75 40.2727C330.066 40.2727 332.071 39.1584 333.265 37.7735C329.108 34.9653 324.451 32.982 319.546 31.9317C318.681 31.6986 317.773 31.6693 316.895 31.846C316.017 32.0228 315.192 32.4008 314.484 32.9504C313.864 30.8015 314.898 29.4962 317.095 29.3211C319.82 29.1822 322.542 29.6668 325.053 30.7378C327.456 31.6451 330.05 32.1704 332.119 33.9214C332.74 34.4626 333.965 34.2875 335.207 34.4944C334.666 32.5843 336.48 29.3848 337.371 34.2079C337.371 34.4626 337.499 34.7173 337.562 34.9879" fill="black"/>
<path d="M244.597 6.28805C242.13 6.65417 239.695 7.29086 236.639 7.95941C238.947 8.9304 240.682 9.5512 242.257 10.3789C244.413 11.5489 246.02 13.5223 246.73 15.8706C247.398 17.9399 246.73 19.1815 244.374 20.1047C244.374 17.2714 243.992 14.6131 241.462 13.0213C240.557 12.3571 239.522 11.8917 238.425 11.6558C237.328 11.4198 236.193 11.4187 235.095 11.6524C235.27 16.6983 235.445 21.8079 235.62 26.8857C234.474 27.4588 232.835 16.3481 232.437 13.1646C231.864 13.5466 232.994 11.5728 233.313 9.74222C228.311 9.43231 223.297 10.0862 218.542 11.6683C217.678 11.9049 216.881 12.3406 216.215 12.9403C215.549 13.5401 215.032 14.2874 214.707 15.1224C214.334 14.8638 214.036 14.5113 213.843 14.1006C213.65 13.6899 213.569 13.2355 213.607 12.7833C213.646 12.3311 213.803 11.8972 214.064 11.5254C214.324 11.1535 214.677 10.8569 215.089 10.6655C217.364 9.18152 219.941 8.22437 222.633 7.86391C225.164 7.43412 227.662 6.57456 230.352 7.06801C231.164 7.21127 232.135 6.44723 233.313 5.98561C231.88 4.61668 231.817 0.955554 235.032 4.64849C235.207 4.85543 235.398 5.01461 235.589 5.22154" fill="black"/>
<path d="M138.469 373.863C140.968 373.736 143.451 373.354 146.586 373.003C144.39 371.794 142.718 371.045 141.238 370.027C139.21 368.655 137.803 366.539 137.323 364.137C136.861 361.988 137.657 360.826 140.076 360.142C139.742 362.959 139.933 365.649 142.273 367.48C143.133 368.243 144.145 368.816 145.242 369.162C146.339 369.507 147.497 369.618 148.639 369.485C148.958 364.44 149.292 359.33 149.61 354.252C150.804 353.806 151.345 365.029 151.377 368.228C151.982 367.894 150.661 369.82 150.167 371.555C155.118 372.354 160.176 372.192 165.065 371.077C165.945 370.927 166.779 370.575 167.5 370.047C168.221 369.519 168.809 368.831 169.219 368.037C169.559 368.332 169.816 368.712 169.964 369.138C170.112 369.563 170.146 370.02 170.062 370.463C169.978 370.906 169.78 371.319 169.487 371.662C169.194 372.004 168.816 372.264 168.391 372.414C165.99 373.676 163.335 374.378 160.624 374.468C158.046 374.659 155.483 375.264 152.857 374.468C152.061 374.245 151.011 374.913 149.801 375.248C151.09 376.76 150.788 380.405 147.955 376.41C147.796 376.194 147.626 375.987 147.446 375.789" fill="black"/>
</svg>
