<svg id="FLOWERS_MAIN_SHAPE" data-name="FLOWERS_MAIN SHAPE" xmlns="http://www.w3.org/2000/svg" viewBox="0 0 826.84 350.55"><defs><style>.cls-1,.cls-4{fill:#dedc00;}.cls-1{stroke:#dedc03;stroke-miterlimit:10;}.cls-2{fill:#585857;}.cls-3{fill:#b2b2b2;}.cls-5{fill:#fff;}</style></defs><title>WILD IVY_LOGO_CMYK HERO TITLE</title><path class="cls-1" d="M230,517.64v12h-1.63v-12H226.1v-1.38h2.29V515a8.82,8.82,0,0,1,.13-1.59,3.09,3.09,0,0,1,.49-1.25,2.42,2.42,0,0,1,1-.8,4,4,0,0,1,1.63-.29c.24,0,.46,0,.67,0s.44,0,.7.08v1.4l-.62-.09a3.64,3.64,0,0,0-.57,0,2.1,2.1,0,0,0-1,.21,1.27,1.27,0,0,0-.54.56,2.2,2.2,0,0,0-.19.82c0,.31,0,.65,0,1v1.17h2.66v1.38Z" transform="translate(-178.94 -232.85)"/><path class="cls-1" d="M252,511.11v18.57h-1.63V511.11Z" transform="translate(-178.94 -232.85)"/><path class="cls-1" d="M279.72,516.44a5.83,5.83,0,0,1,2,1.54,6.49,6.49,0,0,1,1.22,2.24,9.18,9.18,0,0,1,0,5.49,6.44,6.44,0,0,1-1.22,2.25,5.77,5.77,0,0,1-2,1.52,6.86,6.86,0,0,1-5.43,0,5.77,5.77,0,0,1-2-1.52,6.44,6.44,0,0,1-1.22-2.25,9.18,9.18,0,0,1,0-5.49A6.49,6.49,0,0,1,272.3,518a5.83,5.83,0,0,1,2-1.54,6.75,6.75,0,0,1,5.43,0Zm-4.77,1.3a4.48,4.48,0,0,0-1.47,1.3,5.91,5.91,0,0,0-.88,1.84,7.43,7.43,0,0,0,0,4.18,5.76,5.76,0,0,0,.88,1.83,4.48,4.48,0,0,0,1.47,1.3,4.47,4.47,0,0,0,4.11,0,4.48,4.48,0,0,0,1.47-1.3,5.76,5.76,0,0,0,.88-1.83,7.43,7.43,0,0,0,0-4.18,5.91,5.91,0,0,0-.88-1.84,4.48,4.48,0,0,0-1.47-1.3,4.55,4.55,0,0,0-4.11,0Z" transform="translate(-178.94 -232.85)"/><path class="cls-1" d="M303.45,516.26v3.15h.05a4.91,4.91,0,0,1,5.07-3.33v1.64a4.93,4.93,0,0,0-2,.29,4.51,4.51,0,0,0-1.57,1,4.44,4.44,0,0,0-1,1.54,5.27,5.27,0,0,0-.36,2v7.15h-1.64V516.26Z" transform="translate(-178.94 -232.85)"/><path class="cls-1" d="M326.61,518.34a3.91,3.91,0,0,1,1.13-1.4,4.69,4.69,0,0,1,1.68-.81,8.29,8.29,0,0,1,2.13-.26,9.65,9.65,0,0,1,1.77.17,4.13,4.13,0,0,1,1.59.64,3.49,3.49,0,0,1,1.14,1.31,4.68,4.68,0,0,1,.44,2.2v7.12a.86.86,0,0,0,1,1,1.21,1.21,0,0,0,.52-.11v1.38l-.5.08a4.39,4.39,0,0,1-.56,0,2.5,2.5,0,0,1-1-.17,1.49,1.49,0,0,1-.59-.48,1.77,1.77,0,0,1-.27-.74,6.94,6.94,0,0,1-.07-.95h-.05a11.19,11.19,0,0,1-.89,1.15,4.43,4.43,0,0,1-2.29,1.37A7.12,7.12,0,0,1,330,530a6.61,6.61,0,0,1-1.75-.22,4,4,0,0,1-1.43-.7,3.26,3.26,0,0,1-1-1.23,3.93,3.93,0,0,1-.35-1.75,3.45,3.45,0,0,1,.62-2.2,4,4,0,0,1,1.65-1.21,9.73,9.73,0,0,1,2.32-.58l2.61-.33a6.62,6.62,0,0,0,.91-.13,1.54,1.54,0,0,0,.65-.27,1.27,1.27,0,0,0,.4-.53,2.24,2.24,0,0,0,.14-.89,3,3,0,0,0-.27-1.36,2.14,2.14,0,0,0-.75-.85,3.07,3.07,0,0,0-1.12-.42,7.35,7.35,0,0,0-1.37-.12,4.12,4.12,0,0,0-2.54.74,2.89,2.89,0,0,0-1,2.38h-1.64A5.36,5.36,0,0,1,326.61,518.34Zm8.19,4a.9.9,0,0,1-.6.42,4.74,4.74,0,0,1-.78.18c-.69.12-1.4.23-2.14.33a10.57,10.57,0,0,0-2,.43,4,4,0,0,0-1.49.81,2,2,0,0,0-.59,1.53,2.44,2.44,0,0,0,.25,1.1,2.82,2.82,0,0,0,.66.83,3,3,0,0,0,1,.54,3.49,3.49,0,0,0,1.11.18,5.66,5.66,0,0,0,1.8-.29,4.42,4.42,0,0,0,1.49-.83,3.94,3.94,0,0,0,1-1.33,4,4,0,0,0,.37-1.76v-2.14Z" transform="translate(-178.94 -232.85)"/><path class="cls-1" d="M357.58,511.11v18.57h-1.64V511.11Z" transform="translate(-178.94 -232.85)"/><path class="cls-1" d="M410.54,529.68v-2.55h-.05a3.74,3.74,0,0,1-.77,1.19,4.75,4.75,0,0,1-1.16.93,5.91,5.91,0,0,1-1.39.58,5.33,5.33,0,0,1-1.47.21,6,6,0,0,1-2.66-.56,5.42,5.42,0,0,1-1.89-1.53,6.59,6.59,0,0,1-1.11-2.27,10.15,10.15,0,0,1,0-5.43,6.54,6.54,0,0,1,1.11-2.26,5.58,5.58,0,0,1,1.89-1.55,5.83,5.83,0,0,1,2.66-.57,5.92,5.92,0,0,1,1.47.18,4.81,4.81,0,0,1,1.34.56,4.69,4.69,0,0,1,1.11.92,3.87,3.87,0,0,1,.74,1.28h.05v-7.7h1.64v18.57Zm-9-4.64a5.56,5.56,0,0,0,.78,1.83,4.26,4.26,0,0,0,1.36,1.31,3.76,3.76,0,0,0,2,.51,4.24,4.24,0,0,0,3.66-1.82,5.4,5.4,0,0,0,.8-1.83,8.69,8.69,0,0,0,0-4.14,5.4,5.4,0,0,0-.8-1.83,4.42,4.42,0,0,0-1.46-1.32,4.5,4.5,0,0,0-2.2-.5,3.85,3.85,0,0,0-2,.5,4.29,4.29,0,0,0-1.36,1.32,5.56,5.56,0,0,0-.78,1.83,8.69,8.69,0,0,0,0,4.14Z" transform="translate(-178.94 -232.85)"/><path class="cls-1" d="M432.52,525.24a5.07,5.07,0,0,0,.8,1.71,4.54,4.54,0,0,0,1.37,1.24,3.89,3.89,0,0,0,2,.5,3.94,3.94,0,0,0,2.8-.94,4.87,4.87,0,0,0,1.41-2.49h1.64a6.55,6.55,0,0,1-1.92,3.53A5.69,5.69,0,0,1,436.7,530a6.3,6.3,0,0,1-2.75-.56,5,5,0,0,1-1.88-1.53,6.54,6.54,0,0,1-1.08-2.27,10,10,0,0,1-.35-2.71,9.48,9.48,0,0,1,.35-2.6,6.86,6.86,0,0,1,1.08-2.28,5.46,5.46,0,0,1,1.88-1.61,5.78,5.78,0,0,1,2.75-.61,5.32,5.32,0,0,1,4.61,2.35,7,7,0,0,1,1,2.42,10.72,10.72,0,0,1,.26,2.77H432.28A7.42,7.42,0,0,0,432.52,525.24Zm8.11-5a4.79,4.79,0,0,0-.84-1.52,4.08,4.08,0,0,0-1.33-1.07,3.77,3.77,0,0,0-1.76-.4,3.85,3.85,0,0,0-1.8.4,4,4,0,0,0-1.32,1.07,5.23,5.23,0,0,0-.88,1.53,7.32,7.32,0,0,0-.42,1.78H441A6,6,0,0,0,440.63,520.24Z" transform="translate(-178.94 -232.85)"/><path class="cls-1" d="M468.68,518.87a2.65,2.65,0,0,0-.77-.92,3.17,3.17,0,0,0-1.11-.53,4.68,4.68,0,0,0-1.32-.17,5.31,5.31,0,0,0-1.11.12,3.21,3.21,0,0,0-1,.38,2.19,2.19,0,0,0-.76.72,2,2,0,0,0-.28,1.09,1.52,1.52,0,0,0,.27.92,2.23,2.23,0,0,0,.69.64,4.48,4.48,0,0,0,.91.43c.33.11.63.2.91.27l2.18.5a6.35,6.35,0,0,1,1.39.37,5,5,0,0,1,1.23.72,3.74,3.74,0,0,1,.87,1.09,3.39,3.39,0,0,1,.33,1.54,3.34,3.34,0,0,1-.49,1.85,4,4,0,0,1-1.26,1.25,5.41,5.41,0,0,1-1.73.69,8.85,8.85,0,0,1-1.9.21,6.12,6.12,0,0,1-3.83-1.12,4.75,4.75,0,0,1-1.68-3.59h1.64a3.22,3.22,0,0,0,1.21,2.51,4.33,4.33,0,0,0,2.74.85,6.79,6.79,0,0,0,1.24-.13,4.41,4.41,0,0,0,1.18-.44,3,3,0,0,0,.9-.8,2,2,0,0,0,.35-1.18,1.92,1.92,0,0,0-.25-1,2.25,2.25,0,0,0-.66-.68,4.39,4.39,0,0,0-.95-.45,11,11,0,0,0-1.08-.31l-2.11-.47a12.26,12.26,0,0,1-1.48-.48,5,5,0,0,1-1.18-.68,3,3,0,0,1-.8-1,3.27,3.27,0,0,1-.28-1.44,3.22,3.22,0,0,1,.45-1.74,3.5,3.5,0,0,1,1.19-1.17,5.29,5.29,0,0,1,1.62-.65,7.79,7.79,0,0,1,1.78-.21,6.69,6.69,0,0,1,1.89.26,4.17,4.17,0,0,1,1.53.81,3.91,3.91,0,0,1,1.05,1.35,5,5,0,0,1,.45,1.9H469A3.17,3.17,0,0,0,468.68,518.87Z" transform="translate(-178.94 -232.85)"/><path class="cls-1" d="M491.27,511.11v2.63h-1.64v-2.63Zm0,5.15v13.42h-1.64V516.26Z" transform="translate(-178.94 -232.85)"/><path class="cls-1" d="M521.57,531.26a5.25,5.25,0,0,1-1,2,4.47,4.47,0,0,1-1.84,1.27,7.47,7.47,0,0,1-2.77.45,8.11,8.11,0,0,1-2-.24,5.47,5.47,0,0,1-1.73-.73,4.39,4.39,0,0,1-1.28-1.26,3.81,3.81,0,0,1-.58-1.83H512a2.75,2.75,0,0,0,.51,1.26,3.05,3.05,0,0,0,.9.82,3.86,3.86,0,0,0,1.19.45,5.81,5.81,0,0,0,1.32.15,4,4,0,0,0,3.31-1.3,6,6,0,0,0,1-3.75v-1.82h0a4.78,4.78,0,0,1-1.68,2,4.51,4.51,0,0,1-2.59.75,6.55,6.55,0,0,1-2.75-.53,5.22,5.22,0,0,1-1.89-1.47,6.2,6.2,0,0,1-1.08-2.2,10.6,10.6,0,0,1-.33-2.69,8.29,8.29,0,0,1,.4-2.61,6.42,6.42,0,0,1,1.17-2.16,5.41,5.41,0,0,1,1.9-1.46,6,6,0,0,1,2.58-.53,4.64,4.64,0,0,1,1.42.21,4.51,4.51,0,0,1,1.21.58,5.38,5.38,0,0,1,1,.87,4.08,4.08,0,0,1,.67,1h0v-2.31h1.64v12.32A10.09,10.09,0,0,1,521.57,531.26Zm-3.75-3.57a4.56,4.56,0,0,0,1.35-1.2,5.48,5.48,0,0,0,.82-1.7,7.28,7.28,0,0,0,.27-2,8.83,8.83,0,0,0-.23-2,5.78,5.78,0,0,0-.76-1.8,4.06,4.06,0,0,0-1.34-1.3,3.77,3.77,0,0,0-2-.49,4,4,0,0,0-2,.48,4.38,4.38,0,0,0-1.38,1.26,5.43,5.43,0,0,0-.79,1.78,8.76,8.76,0,0,0-.25,2,7.68,7.68,0,0,0,.26,2,5.25,5.25,0,0,0,.81,1.7,4.22,4.22,0,0,0,1.38,1.2,4.07,4.07,0,0,0,2,.45A3.82,3.82,0,0,0,517.82,527.69Z" transform="translate(-178.94 -232.85)"/><path class="cls-1" d="M542.78,516.26v2.31h.05a3.89,3.89,0,0,1,1.66-2,4.93,4.93,0,0,1,2.63-.74,6.67,6.67,0,0,1,2.35.36,3.83,3.83,0,0,1,1.52,1,3.91,3.91,0,0,1,.81,1.63A9.45,9.45,0,0,1,552,521v8.64h-1.64V521.3a8,8,0,0,0-.15-1.59,3.43,3.43,0,0,0-.55-1.29,2.63,2.63,0,0,0-1.05-.86,3.83,3.83,0,0,0-1.65-.31,4.25,4.25,0,0,0-1.76.35,3.77,3.77,0,0,0-1.3,1,4.52,4.52,0,0,0-.83,1.46,5.66,5.66,0,0,0-.32,1.83v7.83h-1.64V516.26Z" transform="translate(-178.94 -232.85)"/><path class="cls-2" d="M598,469.1a3.58,3.58,0,0,0-1.14-3c-1.38-1.46-3-2.68-4.23-4.27a48,48,0,0,1-4.61-7c-4.2-7.83-5.66-16.17-5.66-25a119.39,119.39,0,0,1,2-21.12q1.78-9.89,4.6-20.11t6.41-20.34q5.16-15.5,10-27.18t10-22.7q1.13-2.46,2.7-5.61L621,307q1.57-3.15,3.37-6.52A37.69,37.69,0,0,0,626,297c1.92-4.32,4.36-9.91,3.35-14.78a6.49,6.49,0,0,0-8.69-4.69l-.16.06c-5.52,2-8.91,7.4-11.57,12.28-3.62,6.64-7.19,13.31-10.63,20a360.39,360.39,0,0,0-18,40.72c-9.19,25.43-15.68,54.63-11.07,81.7a67.79,67.79,0,0,0,14.27,31.6C585.28,466.13,596.51,476.37,598,469.1Z" transform="translate(-178.94 -232.85)"/><path class="cls-2" d="M731,388.77c-.31-3-2.25-5.65-5.61-5.46s-5.47,3-7.31,5.58c-2.24,3.14-4.42,6.44-6.51,9.88-9.63,15.81-19.13,31.75-27.41,48.31-.75,1.35-1.43,2.47-2,3.37a23.37,23.37,0,0,1-1.79,2.36,2.53,2.53,0,0,1-1.8,1,1.93,1.93,0,0,1-2-1.58,4.9,4.9,0,0,1-.23-1.57c0-16.62,5.44-32.74,11.6-48,1-2.45,2-5,2-7.62s-1.24-5.48-3.68-6.51c-3.62-1.53-7.53,1.48-9.92,4.61A59.27,59.27,0,0,0,668,409.33c-.55,1.54-1.06,3.11-1.54,4.68a14.28,14.28,0,0,1-6.08-1.05,20.64,20.64,0,0,1-4.92-2.89c-.54-.41-4.15-3.17-3.92-3.88a73.36,73.36,0,0,0,2.36-9.55q.78-4.61,1.23-8a43.12,43.12,0,0,0,.23-7.42,45.67,45.67,0,0,0-1.13-9.32,23.7,23.7,0,0,0-2-5.5c-1.15-2.12-2.68-3.93-5.17-4.38-9.73-1.78-10.93,11.18-10.5,17.82a68.24,68.24,0,0,0,7.13,25.2,151.28,151.28,0,0,1-7.3,17.3c-4.93,10.11-11,20.63-18.85,28.8a8.77,8.77,0,0,1-3.36,2.48c-3.53,1.22-5.38-2.13-5.32-5.11.31-14.61,6-28.14,10.74-41.73a60.86,60.86,0,0,0,2.68-9.81c.6-3.5,1.33-9.57-1-12.67-3.18-4.26-9.3,3.8-10.71,6.43-4.76,8.85-6.75,18.3-8.67,28.05-2.34,11.94-4.54,25.16.72,36.68a10.08,10.08,0,0,0,4.53,5.09c3.79,1.81,8.34,0,11.65-2.06,8.48-5.25,13.84-14.21,19-22.44,1.8-2.85,3.41-5.65,4.83-8.43s2.66-5.28,3.71-7.52a71.94,71.94,0,0,0,2.92-7.64c3.91,3.55,8.94,6.53,14.25,7.26.44.06.87.1,1.3.13a81.74,81.74,0,0,0-2.33,17.81c-.08,5.41.53,11.07,3.43,15.64s8.63,7.7,13.82,6.16c6.07-1.8,9.4-8.49,12-13.73q7.8-15.86,16.74-31.11c-3.58,19.54-6.72,39.72-13,58.61a166,166,0,0,1-16.18,38.09q-9.76,16.4-23.7,25.27C639.35,547,617.7,545,601.89,534.83c-12.49-8-23.44-25.08-11.66-38.67,4.3-5,10.7-7.86,17.14-8.79,5.64-.81,14.37-.61,18.93,3.29,2.28,1.95,4.3,3.93,7.6,2.84a4.08,4.08,0,0,0,1.85-1.16,4,4,0,0,0,.31-4.28,9.31,9.31,0,0,0-3.68-3.63c-8.26-5-20.85-3.5-29.74-1.16-10.31,2.71-20.33,9.6-22.54,20.61a31.26,31.26,0,0,0,5,23.28c4,6,9.77,10.66,16,14.28a67.11,67.11,0,0,0,45,8.24c34-6.06,51.92-39.21,61.56-69.12,3.23-10.05,5.9-20.28,8.94-30.39,5.44-18.07,11.52-36.24,14.19-55A25.79,25.79,0,0,0,731,388.77Zm-81.64-9.08q-.12,2.3-.39,4.59c-.16,1.27-.35,2.54-.58,3.8-.26,1.42-.58,2.83-1,4.22-.32,1.14-.6,2.92-1.35,3.81-1.37-2.24-2-5.46-2.58-8a55.71,55.71,0,0,1-1.68-12,25.33,25.33,0,0,1,.64-6.08c.39-1.59.91-5.06,3.22-4.75a2.88,2.88,0,0,1,1.83,1.18,10.3,10.3,0,0,1,1.66,5A41,41,0,0,1,649.32,379.69Z" transform="translate(-178.94 -232.85)"/><path class="cls-2" d="M365.21,374.92a7.9,7.9,0,0,0,9.3-3,7.79,7.79,0,0,0-3.45-11.57,6.65,6.65,0,0,0-5.84,0,8.42,8.42,0,0,0-4.1,10.8A7.79,7.79,0,0,0,365.21,374.92Z" transform="translate(-178.94 -232.85)"/><path class="cls-2" d="M344.3,319.3c-.15-4.19-.44-8.37-.93-12.52-.69-5.76-1.29-15.84-6.34-19.73a3.73,3.73,0,0,0-5.7.89,5.86,5.86,0,0,0-.27,6c.81,1.46,2.22,2.49,3.24,3.82,2,2.64,2.4,6.18,2.62,9.51,1.75,26.73-.76,53.61-5.89,79.86-2.69,13.78-6.12,27.42-10,40.91q-3.18,11-6.62,20.76t-6.77,16.84a60,60,0,0,1-6.28,10.95q-3,3.86-5.41,3.18a6.12,6.12,0,0,1-3.38-3.52,29,29,0,0,1-2.17-7.16,74.31,74.31,0,0,1-1.08-10q-.27-5.69-.27-12.17,0-13.53.74-25.56t1-24.75q0-4.46-1.56-6.69a4.58,4.58,0,0,0-3.85-2.23,6.77,6.77,0,0,0-4.13,1.82,17.71,17.71,0,0,0-4.12,5.34v-.13c-1.08,1.71-2.35,4-3.79,6.76s-3,5.91-4.59,9.33q-3.25,7-7.38,15.21t-8.18,15.35a143.75,143.75,0,0,1-7.7,12.31q-3.66,5.13-6.09,6.08c-2,.79-1-8.23-.89-8.86.44-3.75,1.1-7.47,1.84-11.16,1.54-7.72,3.27-15.41,4.8-23.11q1.28-6.5,2.36-13.12t1.76-13a115,115,0,0,0,.68-12,59.3,59.3,0,0,0-1-10.61,32,32,0,0,0-3.18-9.4,18.65,18.65,0,0,0-6-6.76c-6.75-4.67-16.13-2.27-22.71,1.46-7.41,4.21-14,10.52-19.69,16.87-8.88,10-15,21.53-17.46,34.74-1.24,6.73-2,14.94,1.15,21.26q1.68,3.17,3.5,4a4.47,4.47,0,0,0,3.24.42,3.25,3.25,0,0,0,1.76-1.39,6.2,6.2,0,0,0-.53-7.15c-.41-.51-.9-1-1.29-1.49-2.28-3.12-2.61-8.64-2.57-12.35A34.82,34.82,0,0,1,188,395.59c6.05-15.12,20.26-33.74,36.58-39a8.47,8.47,0,0,1,4.93-.25c3.34.95,4.2,4.36,4.47,7.44.14,1.53.21,3.11.21,4.73a171,171,0,0,1-1.08,19.27q-1.09,9.54-2.37,19t-2.37,18.94a166.85,166.85,0,0,0-1.08,18.93,82.71,82.71,0,0,0,.54,9.87,28.27,28.27,0,0,0,1.89,7.64,10.35,10.35,0,0,0,3.66,4.73,8.58,8.58,0,0,0,5.67,1.29q4.2-.54,9.2-6.49a112,112,0,0,0,10.14-14.54q5.15-8.58,10-18.25,4.35-8.65,8.57-17.38c-1.38,2.85-1.17,6.53-1.43,9.63q-.45,5.39-.78,10.79-.52,8.61-.74,17.24c-.13,5.62.51,11.2.51,16.8.52,6.19,1.56,12.64,5.3,17.6,6,7.87,18.09,7.54,24.81.83q4.74-5,9.47-14.61a203.47,203.47,0,0,0,9.06-21.84q4.32-12.24,8-26.23c6.92-26,11.7-52.54,12.87-79.46C344.36,334.65,344.57,327,344.3,319.3Z" transform="translate(-178.94 -232.85)"/><path class="cls-2" d="M493.78,392.24c3.29-18.91,9.09-37.27,16-55.13,3.52-9,7.34-17.95,11.29-26.81,2.77-6.21,6-12.22,8.91-18.36s7.51-14.08,7.62-21.16a7.28,7.28,0,0,0-2.84-6.21c-2.1-1.39-5-1.11-7.2,0-9.47,4.86-13.6,16.67-18,25.73-12.3,25.35-22.44,52.82-26.53,80.79-.19,1.28-.92,4.08-1.35,6.7a11.11,11.11,0,0,0-3.35-2.61c-5.58-2.81-11-.67-15.73,2.58a44,44,0,0,0-6.52,5.47,79.34,79.34,0,0,0-9.86,13.32,97.58,97.58,0,0,0-6,12c0,.11-.08.23-.13.35l-.11.06q-3.37,7.63-6.52,13.48-3.6,7-7,13-2.47,4.27-4.95,7.87a75.67,75.67,0,0,1-4.72,5.95,21.56,21.56,0,0,1-4.26,3.93,3.35,3.35,0,0,1-4.5-1.35,18.66,18.66,0,0,1-2.25-7.3,75.46,75.46,0,0,1-.57-11.46q.12-6.62.58-13.81c1.93-28.65,7.18-56.85,16.78-83.93,5.13-14.45,13.45-30.42,14.26-45.86q.22-4.15-.9-5.95a6.06,6.06,0,0,0-2.69-2.47,6.77,6.77,0,0,0-3.26-.11,8.43,8.43,0,0,0-3,1.23,16.51,16.51,0,0,0-3.37,2.25q-3.81,3.38-7.75,10.56A130.25,130.25,0,0,0,408.4,312c-2.39,6.44-2.41,7-4.46,14.52s-3.76,15.24-5.12,23q-1.38,6.74-2.86,15.95t-2.51,19.32q-1,10.11-1.48,20.56c-.05,1-.06,2-.09,2.93-.09,1.37-.19,3.06-.31,5.17-.34,5.75-3.05,11.61-5,15.36a220.31,220.31,0,0,1-10.78,19.32c-1.5,2.4-3.11,4.75-4.83,7.08a81.31,81.31,0,0,1-5.17,6.29,27.63,27.63,0,0,1-5.17,4.49,9,9,0,0,1-4.83,1.69,5.46,5.46,0,0,1-4.6-4.05,25.75,25.75,0,0,1-1.13-8.87,84.59,84.59,0,0,1,1.13-11.57c.67-4.19,1.46-8.21,2.36-12s1.83-7.3,2.81-10.44,1.68-5.4,2.13-6.74q.9-2.7,2.58-6.63a57.07,57.07,0,0,0,2.7-7.64,14.81,14.81,0,0,0,.45-6.63c-.38-1.94-1.76-3.29-4.16-4a5.8,5.8,0,0,0-4.6.56,16.73,16.73,0,0,0-4,3.37,23.18,23.18,0,0,0-3.26,4.72q-1.35,2.58-2.24,4.38a123.93,123.93,0,0,0-4.5,11.91,115.6,115.6,0,0,0-3.25,12.24A56.92,56.92,0,0,0,336.92,440c.22,7,1,14.2,3.51,20.82a21.24,21.24,0,0,0,7.36,10c8.12,5.6,16.43.26,22.16-6a109.46,109.46,0,0,0,10.56-13.59,162,162,0,0,0,10.56-18.21c.61-1.17,1.17-2.37,1.76-3.56.44,2.93.91,5.71,1.42,8.31a102.78,102.78,0,0,0,2.85,10.34,26.66,26.66,0,0,0,4.23,8.31,12.64,12.64,0,0,0,2.05,2,10.07,10.07,0,0,0,2.62,1.46,11.4,11.4,0,0,0,3.94.56,11.91,11.91,0,0,0,4.38-1.68q1.9-1.24,3.71-2.59a40.5,40.5,0,0,0,3.59-3.59,82.73,82.73,0,0,0,9.78-13.48q2.81-4.71,5.26-9.34a41.85,41.85,0,0,0,1.25,8c1.68,6.54,5.15,11.85,11.61,14.35a11.56,11.56,0,0,0,7.58-.06,24.15,24.15,0,0,0,5.85-3.84,54,54,0,0,0,5.74-6.46A55.2,55.2,0,0,0,474.94,431c1.1-2.62,2.12-5.24,3.1-7.85,0,1.57,0,3.14.08,4.71a117.57,117.57,0,0,0,2.14,15.84c1.85,9.24,7,20.59,17.91,21.27,4,.25,7.86-1.23,11.37-3.13,10.32-5.58,17.53-14.59,22.21-25.19,5.28-12,4.6-23.07.53-35.24-.06-.2-.13-.39-.2-.58a8.53,8.53,0,0,0-2.33-3.68,4.31,4.31,0,0,0-4.1-1c-2.22.79-3,3.68-2.46,6,2.29,10.23,5.64,17.4,2.54,27.83a44.87,44.87,0,0,1-9.51,17.2c-2.91,3.23-6.5,6.46-10.57,8.12a9.76,9.76,0,0,1-8,.05c-2.5-1.27-4-3.88-5-6.51-3-8.27-2.59-18.52-2.26-27.21A220.44,220.44,0,0,1,493.78,392.24Zm-13.62,4a113.41,113.41,0,0,1-5.13,19c-1.82,5.08-3.91,10-6.13,14.9a42.37,42.37,0,0,1-3.1,5.69c-2.17,2.89-6.33,9.07-10.58,8.21a5.24,5.24,0,0,1-3.65-3.57,13.89,13.89,0,0,1-.44-5.3,95.42,95.42,0,0,1,9.31-36.35c2.13-4.44,4.66-9,8.13-12.58,4.56-4.63,10.73-4.72,11.92,2.95A22.06,22.06,0,0,1,480.16,396.24Z" transform="translate(-178.94 -232.85)"/><path class="cls-3" d="M875.16,534.16c-2.15-16.51-.82-32.76-4.68-49-4.14-17.43-1.54-35.21-.25-52.85.47-6.54-13-11.59-13.64-3.15-1.3,17.82-1.11,36.06,2.93,53.68,4,17.32,5.73,35,7,52.66,2.22,30.72-1.6,11.91,1.34,38.34.33,3,15.24,14.37,14,7.33C878.13,560,879.19,565.14,875.16,534.16Z" transform="translate(-178.94 -232.85)"/><path class="cls-3" d="M891.91,426.32a4.14,4.14,0,0,0-2.53-.1,27.16,27.16,0,0,0-5-2.51c-1.35-.53-5.26-1.73-3.77,1l2,3.73c-1,.4-2.1.82-3.1,1.32-.18.09-2.11,1.23-1.86,1.35a21.28,21.28,0,0,1,10.59,12.39c.17.5,2.4.1,5.05-.65a31.44,31.44,0,0,0,3,1.39c1.35.53,5.27,1.72,3.77-1L898.94,441c2.15-.89,3.73-1.76,3.57-2.25A21.33,21.33,0,0,0,891.91,426.32Z" transform="translate(-178.94 -232.85)"/><path class="cls-3" d="M949.54,433a4,4,0,0,0,.17-1.79,17.8,17.8,0,0,1,.94-8c1.12-3.34-2.73-7.14-5.49-8.26-2.94-1.18-6.78-1.25-8,2.27a25.92,25.92,0,0,0-1.14,10.71c-.7,0-1.4.07-2.08.13l-.45,0-.44-.88c-1.3-2.71-5-6.19-8.25-4.4s-3.27,6.17-1.83,9.16a42,42,0,0,0,9,12.31c2.29,2.18,6.58,2.42,8-.83a8,8,0,0,0,.11-6h.45c1.59,0,3.18-.11,4.77-.26a36.39,36.39,0,0,0,4.28-.59c.64-.13,1.76-.23,2.14-.83a3.12,3.12,0,0,0,.51-2.12C952.29,433.21,951.16,433,949.54,433Z" transform="translate(-178.94 -232.85)"/><path class="cls-3" d="M840,357.94c.15.8.32,1.59.54,2.39s1,1.19,2,1.28c3.72,4.52,16.79,4.62,11.94-2.62-.43-.65-.88-1.3-1.33-1.95a3.37,3.37,0,0,0,1-3.05c-1.74-6.35-.47-12.83-2.74-19.18s-5.81-12.36-4.12-19.42c.73-3.05-5.22-1.75-6.42-1.37-2.72.85-6.67,2.86-7.41,5.93a18.08,18.08,0,0,0-.48,4.68c-4.57-2.38-11.67-2.15-10.24,3.39C825.52,338.88,833.43,348.66,840,357.94Z" transform="translate(-178.94 -232.85)"/><path class="cls-3" d="M866.94,359.58l.53.83c.27.44,2.27,3.57,2.68,2.51,3.36-8.65,5.65-18.26,13.78-23.74,1.33-.9-3.89-9.39-4.81-8.77a24.59,24.59,0,0,0-7.75,8.83q-1.15-14-2.06-28a268,268,0,0,0,9.06-39c.44-2.84-11-.3-11.51,2.81-.27,1.72-.55,3.43-.85,5.13-3.56,0-11.75,4.06-11.62,6.91q1.7,37.13,5.13,74.13C859.59,362.1,863.43,361.24,866.94,359.58Z" transform="translate(-178.94 -232.85)"/><path class="cls-3" d="M900.17,328.22a235.18,235.18,0,0,1,15.59-19.47c4.56-5.12-4-17.32-9.17-11.55A236.86,236.86,0,0,0,891,316.67c-2.17,3-1.34,7.13.88,9.92C893.55,328.68,898,331.26,900.17,328.22Z" transform="translate(-178.94 -232.85)"/><path class="cls-3" d="M960.14,397.08c-1.74-2.13-5.56-5.6-8.58-5.69a416,416,0,0,1-53.44-5.07,66.68,66.68,0,0,0-10.29-2.9c-1.74-.35-3.5-.67-5.26-1,8.76-4.57,17.69-9.16,24.57-16.19q8.13-1.89,16.14-4.4c2.56-.81,7.51-2.84,8.74-5.43.7-1.46,0-1.78-1.06-1.68a29.69,29.69,0,0,0-3.93-2,44.81,44.81,0,0,0-6-2.37q5.52-5.17,11-10.34a2,2,0,0,0,.62-1.8q2.43-2.31,5-4.55c2.27-2-5.4-8.19-8.2-5.72-1.35,1.18-2.67,2.39-4,3.6a5.64,5.64,0,0,0-2.22,1.67c-.3.43-.6.87-.91,1.3-3.14,3-6.16,6.21-9.11,9.44q-7.34,6.84-14.7,13.66l-6.74,2.53c-.73.27.55,1.09,1.94,1.81-.31.26-.62.53-.94.78a70.7,70.7,0,0,0-9.37,5.44,45.13,45.13,0,0,0-3.63,3,122.53,122.53,0,0,1-14,6c-1.46.54-1.49,1.91-.78,3.37-1.81,0-3.63,0-5.44.07a5.24,5.24,0,0,0-2.17.6,8.66,8.66,0,0,0-1.3-.36c-3.25-.55-6.48-1.21-9.69-2-2.86-.76-5.72-1.51-8.57-2.31a110.46,110.46,0,0,1-21-8.74c-12.75-7-23-17.43-33.05-27.71-1-1-4-3-5.36-1.56-.69.75-.47,1.78.06,2.74a3.88,3.88,0,0,0-3.11,2.55l0,0c-1.54-1.93-4.14-3.44-6.63-2.26a4,4,0,0,0-1.48,5.88c5.58,7,13.08,10.91,20.44,15.17-2.15-1.11-4.27-2.28-6.34-3.56-4.44-2.73-7.9-5.82-13.21-6.47-5.73-.71-7.71,8-1.31,8.84a4.33,4.33,0,0,1,1,.27l-.3-.08c-5.15-1.33-4.86,3.92-2,6.6-3.14.08-6.28.2-9.42.33-2.27.09-2.69,2.08-1.71,3.76,1.2,2,4.22,3,6.44,2.92,8.57-.35,17.19-.69,25.78-.43,12,3.54,23.9,7.29,35.93,10.5a125.15,125.15,0,0,1-15.3,2.93c-2,.25,1.42,1,1.71,1.08a22.05,22.05,0,0,0,6.83.34,133.54,133.54,0,0,0,13.83-2.53c5.66,1.39,11.34,2.63,17.06,3.64a196.64,196.64,0,0,0-49.31,32.9c-1.81,1.16-3.62,2.36-5.39,3.62a4.22,4.22,0,0,0-.71,0c-8.65.55-16.48,5.59-24.14,9.26-1.84.89-2.69,3.13-1,4.58,1.85,1.64,5,.92,6.93,0l7.72-3.71A27.63,27.63,0,0,0,775,448.4c-.27,1.17,1.14,1,2.41.67,1.34,3,5.13,5.08,7.47,2.22a190.33,190.33,0,0,1,62.71-50.12l-.46.45C839.36,409.9,833.91,420.36,828,430c-1.59,2.57,6.5,8.39,7.89,6.14,5.64-9.17,10.85-19,18-27.11,5.39-6,12-10.71,18.81-15,4,.44,7.93,1.16,11.7,1.85,5.9,1.08,12.18,2.77,16.93,6.6,2.95,2.38,7.21,3.52,10.48,1a6.25,6.25,0,0,0,2.09-6.08,418.58,418.58,0,0,0,46.25,4C963.3,401.47,961.25,398.42,960.14,397.08Zm-146.84-22,.06,0h-.06Z" transform="translate(-178.94 -232.85)"/><path class="cls-4" d="M759.43,429.66a22.79,22.79,0,0,0-15.21,9c-3.44,4.72-6.26,11.22-1.49,16a2.64,2.64,0,0,0,1,.62,9.2,9.2,0,0,0,2.56,5.08,11.76,11.76,0,0,0,1.16,1.07c4.07,6,13,7.75,20.58,6.81,11-1.37,23.55-7.32,19.59-20.35C783.81,435.24,772.82,427.52,759.43,429.66Zm-1.66,19.27c.11-.5.24-1,.39-1.45l.1.39a17.26,17.26,0,0,1,.51,5.5c-.1.2-.18.37-.26.55l-1-1.56A14.5,14.5,0,0,1,757.77,448.93ZM761,434.6a7.08,7.08,0,0,1,1.53.06,17.87,17.87,0,0,0-4,.77A5.93,5.93,0,0,1,761,434.6Zm8,28.64a15.77,15.77,0,0,0,6.27-4.62l.29-.4A7.72,7.72,0,0,1,769,463.24Z" transform="translate(-178.94 -232.85)"/><path class="cls-4" d="M808.13,430.54c-4.85,1.75-4.18,6.22-1.36,8.5-6.38,5.82-9.44,15.65-5.26,23.63,5.45,10.43,23.42,10.9,32.59,6.28,10.3-5.18,15.87-17.65,10.42-28.34C838,427.79,820.34,426.12,808.13,430.54Z" transform="translate(-178.94 -232.85)"/><path class="cls-4" d="M871.12,384.21l.08,0a36.68,36.68,0,0,0,8.1-5.52,20.39,20.39,0,0,0,8.06-6.23c4.52-6.13,2.63-13.71-1.7-19.4-6.91-9.08-22.89-14.75-33.08-8.4-3.17,1.07-5.64,3.26-7.45,7.33a42.31,42.31,0,0,0-3.58,13,14.89,14.89,0,0,0-1.18,5.35c-.08,3.21,1,5.44,2.64,6.79-.71,7,3.21,11.9,10.58,12.38C859.87,389.85,865.89,387.54,871.12,384.21Zm-14.64-18.15a1.65,1.65,0,0,1,.63-.38c-.17.2-.34.4-.5.62Zm17.06,4.42c.23-.53.43-1.09.62-1.65.05.15.1.31.14.47a5.21,5.21,0,0,1-.08.57C874,370.08,873.78,370.29,873.54,370.48Zm-1.27-23.9Zm.29.2a7.61,7.61,0,0,1,.73.68,13.44,13.44,0,0,0-3,0l-.61-.49.24,0A17.28,17.28,0,0,1,872.56,346.78Z" transform="translate(-178.94 -232.85)"/><path class="cls-4" d="M989.49,332c-.07-1.91-1.38-3.84-4.28-4.69a16.26,16.26,0,0,0-7.46-.56,10.51,10.51,0,0,0-1.71-.59c-8.81-2.15-15.26,5.08-16.28,13.23,0,.28-.06.56-.08.84a28.35,28.35,0,0,0-1.95-2.4,9.83,9.83,0,0,0-.77-3.67,8,8,0,0,0-2.35-3,12.65,12.65,0,0,0,5.81-11.44c-.42-7.39-6.54-15.91-14-19.49a80.33,80.33,0,0,0-7.51-4c.24-.39.47-.79.67-1.2a10.58,10.58,0,0,0,.85-7.1c5.48-1,10.59-3.87,11.9-9.74,1.54-6.92-.5-14.32-6.1-18.73a24.21,24.21,0,0,0-6.16-3.47,15.29,15.29,0,0,0-5-1.8c-6.28-1.09-14.26-.87-19.9,2.35-.31.18-.62.37-.91.57a26.7,26.7,0,0,0-5.54,3.44c-1.48,1.21-.35,2.1.94,2.61a23.42,23.42,0,0,0-1.47,7.68,11.28,11.28,0,0,0,.2,2.62,23.65,23.65,0,0,0-7.4,5.44c-2.36.89-4.48,2.34-4.67,3.9a26,26,0,0,0-.24,4,21.91,21.91,0,0,0-1.44,10c0,.49.14,1,.23,1.41a20.62,20.62,0,0,0-12.59,1c-8.64-1.06-16.45,1.93-20,10.9a34.5,34.5,0,0,0-1.39,4.29c-.45,1.21-.88,2.43-1.25,3.7a1.68,1.68,0,0,0,.47,1.94,18.22,18.22,0,0,0,.12,2.57,10.47,10.47,0,0,0,1.58,5.31,15.41,15.41,0,0,0,6.47,6.4,4,4,0,0,0,2.45,1.47A9.37,9.37,0,0,0,872,336l.9.32a2,2,0,0,0,.49,1.28c1.31,1.72,5.72,1.13,7.35.69l.35-.11c7.83.79,15.42-1.46,20.86-8.5,4.65-6,4.57-11.62,2.06-16.64a18.26,18.26,0,0,0-3.63-5.27,43.39,43.39,0,0,0-4.15-4.09l.7-.61c3.74,4.77,11.13,5.51,17.72,5,1.26-.09,2.58-.26,3.93-.48a27.56,27.56,0,0,0-.74,20.69,17.1,17.1,0,0,0,9.7,10.3c-.3.44-.59.9-.86,1.36a16.93,16.93,0,0,0-2.86,1.48c-9.67,6.25-6.83,17.7.4,24.59,8.09,7.7,22.13,7.44,31.63,2.56a17,17,0,0,0,5.4-4.24,11.7,11.7,0,0,0,1.16,1.18c3.23,2.8,7.58,3.88,11.88,3.95,4,2.26,9.21,3.14,11.23-1.89a33.59,33.59,0,0,0,11.09-6c4.19-3.53,9.42-9,9.13-14.89C1005.33,337.76,997.6,333.24,989.49,332Zm-114.41-5.19-.12.11,0,0Zm44.42-41.85.84.35a1.27,1.27,0,0,0,.14.54l.35.72a7.62,7.62,0,0,1-3.19,2.48,13.24,13.24,0,0,1-1.64.56,24.16,24.16,0,0,1,2.69-3.95A4.47,4.47,0,0,1,919.5,284.91Zm-5.94,11,1-.26-.14.13c-.62.67-.4,2.05,0,3.24A3.42,3.42,0,0,1,913.56,296Zm18.74-35.48a9.1,9.1,0,0,1,1.2,1.7,21,21,0,0,0-5.66.15,2.3,2.3,0,0,0-.28.06C928.89,260.54,930.65,259.83,932.3,260.48Zm.31,12.71c.26,0,.35-.23.35-.59.24,0,.47,0,.71-.06A1.54,1.54,0,0,1,932.61,273.19Zm13.88,72.16c0,.1,0,.2-.07.3l-.5.45a18.92,18.92,0,0,0-3.68-3.69,20.35,20.35,0,0,1,4.23-1.56A9.34,9.34,0,0,1,946.49,345.35Zm-10,3.92a20.49,20.49,0,0,1,3.67.2c-.37.15-.73.28-1.11.41a24.41,24.41,0,0,1-2.66.75c-.06-.15-.1-.3-.15-.45C936.32,349.88,936.4,349.58,936.49,349.27Zm.84,12.44.14.08c-.33,0-.67,0-1,.06C936.76,361.81,937,361.77,937.33,361.71Zm45.36-2.36c-.71-.05-1.91-.18-2.91-.33a7,7,0,0,1-1.52-1.42c-1.8-2.23-2.06-5.32-2.2-8.34a18.49,18.49,0,0,1,1.11-3.24,10.88,10.88,0,0,1,1.12.3,11.08,11.08,0,0,1,4.23,2.41c1.62,1.5,3.3,4.88,2.94,7.56A7,7,0,0,1,982.69,359.35ZM979,337.65a4,4,0,0,1,1.26-1c.32.09.65.18,1,.29C980.52,337.14,979.78,337.38,979,337.65Zm-68.2-59a17.08,17.08,0,0,0,2.8,2.77,29.54,29.54,0,0,0-5.37,5.05,6.88,6.88,0,0,1-.72-2.64l.33-.76C908.77,281.24,909.53,279.5,910.84,278.68ZM985.36,364a5.5,5.5,0,0,0-1.3-1.48c1.21-.49,2.37-1,3.42-1.5l1-.5.73-.31A15.66,15.66,0,0,1,985.36,364Z" transform="translate(-178.94 -232.85)"/><path class="cls-4" d="M988.52,425.15a23.91,23.91,0,0,0-7.57-6.21c4.43-3.37,7.68-8.27,8.17-13.69a16.57,16.57,0,0,0-1.43-8.5,22.2,22.2,0,0,0,.51-8.71c-1.31-10.37-11.33-11.4-20.1-10.72-9.55.74-18.86,4.22-27.26,8.83-7.34-2.21-16.7-3.8-23.19,0a21.69,21.69,0,0,0-4.54,2.52c-8,5.78-14.28,18.41-11.86,28.3,1.43,5.86,5.67,8.82,10.71,10.2a32.87,32.87,0,0,0,12.89,5.21c6.95,1.26,12.83-1.66,18.66-5.11a52.17,52.17,0,0,0,11-8.33c.32.23.65.46,1,.67a12.37,12.37,0,0,0-2.33,4.3,20.84,20.84,0,0,0-3,8.87,11.45,11.45,0,0,0,.49,4.35,15,15,0,0,0-7.29,1.17c-6.75,3-21.59,10.91-17.39,20.37a10.53,10.53,0,0,0,1.27,2.08,12,12,0,0,0,.76,5.86c2,5.26,9.07,9.62,15.45,9.92,5.53,2.07,11.66,2.37,17-.7.42-.24.82-.49,1.21-.76a16,16,0,0,0,11.55-6.64c3.45-4.78,3.77-11.59,1.26-16.93a25.8,25.8,0,0,0,12.54-2c6.47-2.91,11.16-9.25,8.05-16.35A21.65,21.65,0,0,0,988.52,425.15Zm-12-.67a22.82,22.82,0,0,0-2.44-1.91l.83-.29A3.75,3.75,0,0,1,976.52,424.48Zm-8.18,4a16.55,16.55,0,0,0-2.29.91,14.33,14.33,0,0,1,2.6-2.89c2-1.74,2.15-.72,2.39,1.85a2.72,2.72,0,0,0,0,.28A4.55,4.55,0,0,0,968.34,428.53Zm-6.37,14-.85-.13a3.64,3.64,0,0,1-.39-.76C961.13,441.91,961.55,442.2,962,442.49ZM949.8,453.54a7.1,7.1,0,0,1,.54-1.65c.45-.22.9-.42,1.35-.61A6.35,6.35,0,0,1,949.8,453.54Zm25.66-67.79a30.59,30.59,0,0,0-9.2-2.32A18.46,18.46,0,0,0,950,390q-.71-.5-1.47-.93c5.51-3.27,11.64-6.52,17.93-8C971.32,380,974.09,381.16,975.46,385.75Z" transform="translate(-178.94 -232.85)"/><path class="cls-4" d="M785.07,308.62c1.93.46,4.77.62,6.29-.87,1.55.34,3.07.6,4.48.77a16.43,16.43,0,0,0,9.31-1.32,20.24,20.24,0,0,0-1,13.19,6.58,6.58,0,0,0-.47,4.71c1.61,6.45,9.86,8.26,15.53,8.06A27.92,27.92,0,0,0,838.09,325l.14-.15a21.13,21.13,0,0,0,12-10.14c1.64-3.11-1.11-5.86-4.32-6.86a23.94,23.94,0,0,0-1.4-11.27,19.67,19.67,0,0,0,13.84.57c5.26-1.73,8.38-6,13.15-8.38s4.07-5.61,1.33-7c.25-.64.48-1.29.69-1.94a29.92,29.92,0,0,0,1.06-4.13c5.38.78,10.82-.17,14.85-3.73,9.55-8.45,4.4-22.1-4.06-29-7.09-5.8-25.35-12.34-29.83.37a24.79,24.79,0,0,0-.83,9.71A19.88,19.88,0,0,0,839,260.78c-6,7.42-8.91,17.37-5.45,25.43a7.9,7.9,0,0,0-3.07.05,7.32,7.32,0,0,0-7.62,2.56,23.57,23.57,0,0,0-2.81,5.07c-2.11-.78-4.58-.9-6.3.1,1.59-8.2.14-17.87-5.62-23.82-6.09-6.28-16.31-7.85-24.17-4.22C766.69,273.91,764.17,303.65,785.07,308.62Zm4.62-10.11a12,12,0,0,1-2.91-1.79,19,19,0,0,0,7,.69A7.36,7.36,0,0,1,789.69,298.51ZM827,317c0-.17,0-.38,0-.64a44.17,44.17,0,0,0,6.26-6.64c0,.17-.09.34-.14.51a21.18,21.18,0,0,1-3.5,6.87A7.27,7.27,0,0,1,827,317Zm-9.84,7.25c.52-.48,1-1,1.49-1.48.5.32,1,.61,1.58.89A14.61,14.61,0,0,1,817.15,324.28Zm31.11-53.23a5.1,5.1,0,0,0-.07.74q-.39,0-.78.12c0-.33,0-.66.06-1l-.63-.17,0-.12A13.56,13.56,0,0,1,848.26,271.05Zm8.62,16.14c.45-.21.9-.43,1.33-.68a3.65,3.65,0,0,1-1.26,1.16C857.14,287.54,857.09,287.38,856.88,287.19Zm13.64-25.51-.16-.17a11.08,11.08,0,0,1-.1-2.23,10.19,10.19,0,0,1,.67-3.14,18.23,18.23,0,0,0,5.13,5.74,6.62,6.62,0,0,1-1.32,2.1,6.81,6.81,0,0,1-1.59,1.34A19,19,0,0,0,870.52,261.68Zm9.72-11.28c-.37-.33-.74-.65-1.12-1a1.11,1.11,0,0,1,.73.27A1.46,1.46,0,0,1,880.24,250.4Z" transform="translate(-178.94 -232.85)"/><path class="cls-4" d="M877.31,437.59a18.61,18.61,0,0,0,11.74-5.85,15.35,15.35,0,0,0,3.28-7.32,24.69,24.69,0,0,0,2.41-10.36c.09-8.57-4.62-17-12.5-20.72-7.68-3.59-15.58-.24-20.87,5.8-5.93,6.77-9.09,16.32-5.66,25S868.06,438.65,877.31,437.59Z" transform="translate(-178.94 -232.85)"/><path class="cls-4" d="M915.27,475.28c.44-.27.87-.54,1.29-.84,7-5.06,5.37-13.12,5.9-20.6.19-2.64-1.61-4.44-3.87-5.25a17.34,17.34,0,0,0-2.65-4.83c-8.4-10.74-24.45-9.25-33.44-.27-5.26,5.25-8.82,13.4-7.27,20.88,1.69,8.22,8.73,12.24,16.48,13.39,1.12.16,2.29.31,3.49.43a3.67,3.67,0,0,0,.71,2.78,6.55,6.55,0,0,0,2,1.74,13.86,13.86,0,0,0-3.17,6.65c-3,17.09,22.7,32.38,34.15,17.26,4.78-6.3,6-19.06.65-25.43C926.14,477.11,920.88,475.63,915.27,475.28Zm-18-21.15c.32,1.57.13,3.83-.6,4.68a2.84,2.84,0,0,1-1.17.87,5,5,0,0,0-.47-.56c-.37-1.31-.27-3.41.79-4.33A3.56,3.56,0,0,1,897.24,454.13ZM911,495.62c.59.18,1.22.35,1.86.49-1.44.71-2.14.61-2.55-.75A5,5,0,0,0,911,495.62Zm-.28,8.4a18.93,18.93,0,0,0,2.61.28A4.65,4.65,0,0,1,910.74,504Z" transform="translate(-178.94 -232.85)"/><path class="cls-4" d="M758.7,380.77a19.67,19.67,0,0,0,6.47-8.44c3.84-2.69,6.49-6.89,6.13-11.9,6.4-1.24,10.28-8.17,10.81-14.17a20.45,20.45,0,0,0-.5-6.7,14.52,14.52,0,0,0-10.24-15.42,19.94,19.94,0,0,0-8.19-.93,27.47,27.47,0,0,0-9-.41c-3.19.4-4.11,2.75-3.62,5.2-5,3.13-9.74,7.37-9.19,13.63a2.13,2.13,0,0,0,1.42,1.71,15.9,15.9,0,0,0-9.6,3.44c-.25.21-.47.44-.7.66a16.26,16.26,0,0,0-3.84,3,2.35,2.35,0,0,0,0,3.27,13.74,13.74,0,0,0-1.74,6.27c-.42,8.21,1.75,15.19,9.22,19.41C742.63,383.09,752.16,385.77,758.7,380.77Zm-10.33-24.16.07-.05,0,.09Zm-.06-13c0,.07,0,.14.07.21l-.64-.11Zm-6.44,30.82a19.38,19.38,0,0,0,3.63,1.15A6,6,0,0,1,741.87,374.42Z" transform="translate(-178.94 -232.85)"/><path class="cls-4" d="M790,366.11c-5.51,2.08-12.56,6.61-14.1,12.66S778,390.58,782,394.7c8,8.28,27.38,17.18,36.37,5.25,9.2-12.21.41-29.4-9.42-37.95-.77-.67-4.47-4.17-5.64-2.89s2.78,4.88,3.36,5.38a16.75,16.75,0,0,1,4.54,6.78C805.18,366.16,797.09,363.43,790,366.11Zm3,24.82a12.15,12.15,0,0,0-.42-1.28,17.89,17.89,0,0,0,.74-2.55c1,.82,2,1.52,2.61,2a11.37,11.37,0,0,0,2.94,1.46,5.93,5.93,0,0,1-3.37.93A8.08,8.08,0,0,1,793,390.93ZM797.89,376a16,16,0,0,1,3.52-.08,13.56,13.56,0,0,0,1.4.42,10.71,10.71,0,0,1,.24,1.7,18.5,18.5,0,0,1,.07,2.24A23.61,23.61,0,0,0,797.89,376Zm-12.84,14.93a46,46,0,0,0,6.28,5.1C788.33,395.23,785.85,393.74,785.05,390.94Zm25.56-11.64a21.6,21.6,0,0,0-4.19-5.59C809.35,374.25,810.45,376,810.61,379.3Z" transform="translate(-178.94 -232.85)"/><path d="M843.66,391.88a4.42,4.42,0,0,0-1.06-.7,79.55,79.55,0,0,0-11.45-2.32,11.22,11.22,0,0,0-9.24,2.34,2.13,2.13,0,0,0-.52.81,22.47,22.47,0,0,1-12.16,12,31.68,31.68,0,0,1-5.63,1.76,14.1,14.1,0,0,1-9.2-1.42c-.95-.47-1.9-1-2.8-1.54-2.83-1.73-4.62-4.35-6.33-7.13a20.22,20.22,0,0,1-2.72-6.64,26.66,26.66,0,0,1-.64-4.32c-.08-2.93-.2-5.89.94-8.71a3.31,3.31,0,0,0,0-.73c-2.57-.22-5.13-.48-7.69-.66a24,24,0,0,0-8.24.65,14.07,14.07,0,0,0-3.34,1.55c-1.29.77-2.44,1.77-3.73,2.55a51.69,51.69,0,0,1-5.31,2.92,22.32,22.32,0,0,1-13.09,1.65,15,15,0,0,1-7.16-3.65c-5.2-4.46-7.32-10.34-7.34-17a24.77,24.77,0,0,1,2.31-9.8,20.62,20.62,0,0,1,8.47-10.08,57,57,0,0,1,5.66-2.54,19.15,19.15,0,0,1,4.67-8.53,26.55,26.55,0,0,1,12.1-8,11.39,11.39,0,0,1,8.09.46,29.67,29.67,0,0,1,8.17,5.93,74.24,74.24,0,0,1,5.94,6.22A24.19,24.19,0,0,0,786,340.1c2.41,1.92,4.7,4,7,6,2.7,2.38,5.33,4.85,8.08,7.19s5.67,4.82,8.7,7a101,101,0,0,0,9.58,6c4,2.22,8.1,4.2,12.19,6.21,1.57.77,3.23,1.33,4.85,2l4.52,1.85a4.62,4.62,0,0,0,2.59.54c-.49-1.62-1-3.15-1.4-4.73a18.62,18.62,0,0,1-.46-6.9c.19-1.61-.69-3-1.34-4.3a81.68,81.68,0,0,0-10.67-16.58c-2.55-3.08-4.94-6.28-7.43-9.47l.33-.66a1.26,1.26,0,0,0-.3-.16c-6.26-1.16-10.67-4.75-13.69-10.25a12.76,12.76,0,0,1-1.58-5c-.2-2.08-1.45-3.52-2.67-5-1-1.15-2.2-2.07-3.27-3.13-.47-.47-.85-1-1.29-1.58-1.92.28-3.86.6-5.81.86a19,19,0,0,1-11.23-1.67,14.54,14.54,0,0,1-4.75-4,27.8,27.8,0,0,1-6.25-17.33,19.5,19.5,0,0,1,1.94-8.49,20.52,20.52,0,0,1,4.05-6.16A19,19,0,0,1,784,267.9a25.5,25.5,0,0,1,8.89-1.77c4.9-.18,8.68,1.87,12,5.14a36.65,36.65,0,0,1,7.14,8.92c2,3.67,2.14,7.25,0,10.93a32.55,32.55,0,0,1-9.48,10.43,8.22,8.22,0,0,1-7.73,1.27,14,14,0,0,1,3.3-1.33c2.53-.35,4.35-1.79,6.11-3.4a31.89,31.89,0,0,0,6.47-8.19,9.2,9.2,0,0,0-.21-9.38,37.2,37.2,0,0,0-8.29-9.93,12.4,12.4,0,0,0-7.66-3.21c-4.15-.21-8.16.22-11.72,2.52a20.13,20.13,0,0,0-6.3,6.52,19,19,0,0,0-3,9.57,22.58,22.58,0,0,0,1.17,8.84c.6,1.51,1.1,3.08,1.8,4.55a16.92,16.92,0,0,0,5.82,6.9,14.57,14.57,0,0,0,9.89,2.23c2.58-.28,5.13-.84,7.7-1.24,1.92-.3,2.2,0,1.82,1.91l4.7,4.95a39.68,39.68,0,0,1,1.37-5.64,23.73,23.73,0,0,1,2.81-4.94c2.33-3.33,2.94-3.8,4.33-3.74-.51.71-.92,1.34-1.4,1.91A21.55,21.55,0,0,0,808,313.51a20.25,20.25,0,0,0,.11,3,8.27,8.27,0,0,1,.14.82c-.18,4.08,1.63,7.3,4.36,10.1a16.68,16.68,0,0,0,9.67,5.12c.65.1,1.31.11,2.11.17a4.75,4.75,0,0,0-.21-1.13c-.19-.39-.35-.73.1-1s.84,0,1.15.33.79.95,1.16,1.38c3.78-.07,6.91-1.63,9.86-3.65-.12-1.49-.05-1.51,1.31-1.59a2.6,2.6,0,0,0,1.6-.64c3.32-3.43,6.19-7.08,7.22-12a21.11,21.11,0,0,0,.56-6.85,19.28,19.28,0,0,0-1.68-5.83A34.05,34.05,0,0,0,838,291.38a19.83,19.83,0,0,0-3.68-2.66,5.7,5.7,0,0,0-2.27-.54A21,21,0,0,0,819.56,291a47.4,47.4,0,0,0-9.53,7c-.15.15-.28.31-.44.48.46.7,1.85-.25,1.78,1.17-1.28,1.16-2.93.84-4.46,1-.29,0-.62-.51-1.1-.94,2-1.7,3.75-3.37,5.67-4.82a54.32,54.32,0,0,1,9.74-6.06A21.37,21.37,0,0,1,833,287a8,8,0,0,1,3.79,1.78c.39.29.81.55,1.22.83l.27-.22c-.31-.48-.64-.95-.92-1.45a35.15,35.15,0,0,1-3.66-8.53,19.3,19.3,0,0,1-.14-9.25,26.44,26.44,0,0,1,7.32-12.57,16.38,16.38,0,0,1,7.33-4.35c1.51-.41,3-.87,4.6-1.33.7-5,3.47-9.07,7-12.7.82-.85,1.66-1.68,2.5-2.51,3.62-3.56,8-4.51,12.81-3.38a12.23,12.23,0,0,1,5.41,3,111.75,111.75,0,0,1,11.88,13.1,35.35,35.35,0,0,1,4.59,7.43c1.92,4.2,1.24,8.09-1.58,11.69a22.17,22.17,0,0,1-6.8,5.41,47.67,47.67,0,0,0-6.21,3.72,23.58,23.58,0,0,0-4,4.64,30.61,30.61,0,0,0-4.41,9.43,35.9,35.9,0,0,0-1.23,6.7,25,25,0,0,1,10.65-3,20.68,20.68,0,0,1,10.75,2.06c0-1,0-1.82,0-2.65a20.53,20.53,0,0,1,2.11-9.5,23.08,23.08,0,0,1,4.29-5.81,29.27,29.27,0,0,1,5.87-4.77c4.29-2.43,8.82-4.08,13.85-3.71a11.38,11.38,0,0,1,5.4,1.83A24.67,24.67,0,0,1,935.86,286c.21.64.28,1.32.44,2s.39.93,1.05.81a18.26,18.26,0,0,0,9.3-4.12,9.33,9.33,0,0,0,3-5.71,17.41,17.41,0,0,0-1.67-9.87c-.59-1.34-1.14-2.71-1.83-4-2.3-4.3-5.12-8.28-9.15-11.07a11.05,11.05,0,0,0-10.07-1.35,31.6,31.6,0,0,0-12.56,8c-.47.47-1,.91-.59,1.76a1.18,1.18,0,0,1-.5,1,3.56,3.56,0,0,1-1.8.14c-.79-.17-1-.82-.48-1.56a20.37,20.37,0,0,1,5.8-5.86c1.8-1.24,3.68-2.37,5.59-3.44,3.62-2,7.47-3,11.58-1.82a13,13,0,0,1,6.44,3.85,68.65,68.65,0,0,1,4.93,5.75,34.42,34.42,0,0,1,5.84,12.62,15.9,15.9,0,0,1,.09,6.73,11.47,11.47,0,0,1-4.32,6.85,18.51,18.51,0,0,1-10.15,4c-.22,1-.42,2-.67,3.06s-.56,2.07-.87,3.17a10.67,10.67,0,0,0,1.79,0,11.85,11.85,0,0,1,9.1,2.33,49,49,0,0,1,11.69,12.31,18.87,18.87,0,0,1,3,6.21,12,12,0,0,1-.15,6.48,16.61,16.61,0,0,1-4.33,6.9c-.7.73-1.44.68-2.4.19a5.5,5.5,0,0,1,.63-.85,14.18,14.18,0,0,0,3.13-3.72c2.56-4.42,1.87-8.75-.59-12.86a52.15,52.15,0,0,0-9.85-11.52,13.11,13.11,0,0,0-8.32-3.77,13.27,13.27,0,0,0-4.93,1.07,1.72,1.72,0,0,0-.71.66,25.53,25.53,0,0,1-7.95,7.5,5.56,5.56,0,0,0-2.05,2.18,35.12,35.12,0,0,0-3.33,7.39,27.45,27.45,0,0,0-.67,6.55,14.91,14.91,0,0,0,1.31,7.42c.33.64-.11,1.89-.54,2.68a38.27,38.27,0,0,1-7.11,9.16c-1.65,1.62-3.25,3.29-4.93,4.87-2.43,2.26-4.87,4.53-7.4,6.68-2.74,2.34-5.59,4.54-8.39,6.8-.08.06-.1.19-.25.51,1-.39,2-.72,2.83-1.06,5.4-2.12,10.81-4.19,16.18-6.37a44.88,44.88,0,0,0,5.12-2.62,1.93,1.93,0,0,0,.9-1.29,18.7,18.7,0,0,1,5.17-11.33c2-2.27,4.1-4.5,6.92-5.84a18.11,18.11,0,0,1,2.44-.95c-6.49,4.1-11.08,9.57-13.16,17.3l1.92-.25c.23,1-.43,1.18-.92,1.52a2,2,0,0,0-1,2.15c.56,3,1.39,6,3.46,8.36a17.92,17.92,0,0,0,7.59,5.66,20.87,20.87,0,0,0,7,.79,31.27,31.27,0,0,0,4.74-.3,21.31,21.31,0,0,0,9.79-4.75,25,25,0,0,0,7.64-10.38,14.84,14.84,0,0,0,.47-11.24,17.39,17.39,0,0,0-3.91-5.68,32.3,32.3,0,0,0-7.59-5.86,12.1,12.1,0,0,0-4.84-1.4,27.75,27.75,0,0,0-9.25.85,32.75,32.75,0,0,0-3.69,1.38l-.29,1c-1.83.47-2.3.28-2.76-1.17a22.59,22.59,0,0,1,6.39-2.47,25.72,25.72,0,0,1,9-1.21,14.6,14.6,0,0,1,5.77,1.7,30.3,30.3,0,0,1,6.38,4.4c3,2.73,5.62,5.73,6.74,9.75a14.23,14.23,0,0,1-.16,7.55,26.1,26.1,0,0,1-7.08,12.26,25.09,25.09,0,0,1-12.11,6.72,23.83,23.83,0,0,1-12.32-.53,15.87,15.87,0,0,1-6.42-4,2.42,2.42,0,0,0-2.56-.69c-3.4.84-6.86,1.46-10.21,2.44a48.62,48.62,0,0,0-12.92,5.73c-3.88,2.52-7.36,5.57-11.16,8.18-.72.5-.36,1.09-.48,1.59l-4,.66c-.27-1,.34-1.3.85-1.58,3.32-1.84,6.11-4.4,9.19-6.56a60.28,60.28,0,0,1,13.07-7.34,78.21,78.21,0,0,1,14.21-3.71c.6-.11,1.18-.29,2.07-.51a21.08,21.08,0,0,1-4.12-9.81,4.49,4.49,0,0,0-1.12.34c-2.76,1.72-5.87,2.6-8.85,3.8-3.55,1.43-7.16,2.74-10.7,4.2-2.75,1.13-5.43,2.43-8.16,3.6a2,2,0,0,0-1.41,1.82,16.76,16.76,0,0,1-3.92,8.29,28.51,28.51,0,0,1-6.15,5.71,28.84,28.84,0,0,1-13.29,5,22.17,22.17,0,0,1-9-.68,26.48,26.48,0,0,1-4.41-2c-1.08-.58-2-1.17-3.41-.86a22.82,22.82,0,0,1-9.59-.25c-1.32-.28-2.68-.38-4-.57a37.42,37.42,0,0,1-13.13-4.86c.78,2.06,1.44,4,2.24,5.83s.38,4,.53,6.07c.77-.25,1.47-.42,2.13-.7a13.6,13.6,0,0,1,7.65-.64c2.33.36,4.71.55,7,1.12,2.73.68,5.38,1.67,8,2.55.62.2,1.15.59,1.12,1.32s-.48,1.23-1.4,1.33c-.51-1.76-2-2-3.52-2Zm13.81-136.27c-1.94.23-3.13-.82-4.13-2.08a16.65,16.65,0,0,0-6.46,1.58c-3.81,1.62-6.45,4.63-8.68,8a24.66,24.66,0,0,0-3,6.93,17.83,17.83,0,0,0-.09,9,29.33,29.33,0,0,0,3.09,7.46,13.43,13.43,0,0,0,4,4.89c1.83,1.25,3.85,2.31,6.17,1.82a5.64,5.64,0,0,1,4,.34,217.64,217.64,0,0,1,7,48.53L863.1,341c-.12-1.3-.31-2.52-.35-3.74-.14-4.3-.22-8.59-.36-12.89-.07-1.91-.18-3.83-.4-5.73-.25-2.27.54-4.42.61-6.67.12-3.6.78-7.18,1.16-10.77a31.15,31.15,0,0,1,3.65-11.71,10,10,0,0,0,.48-1.4c-3.6,3.17-7.08,5.68-12.21,5.22,1-.43,1.62-.75,2.29-1a25.63,25.63,0,0,0,11.13-8,16.61,16.61,0,0,0,2.4-3.86c1.77-4.2,1.22-8.44-.21-12.6a41.28,41.28,0,0,0-4.56-8.83c-2.58-4-6.27-5.66-10.88-5.65-.17,0-.34.17-.49.25ZM808.05,364.23l-.25.33a22.58,22.58,0,0,1,1.83,1.39q3.33,3.09,6.61,6.25a29.45,29.45,0,0,0,11.32,6.89,58.67,58.67,0,0,0,14,2.53,52.41,52.41,0,0,0,5.5-.14c-1.17-1.47-1.95-2.62-3.78-2.91a27.79,27.79,0,0,1-5.74-2c-3.39-1.37-6.86-2.62-10.12-4.27-4.65-2.37-9.17-5-13.71-7.62a82.15,82.15,0,0,1-13.62-10.2c-3.91-3.48-7.71-7.08-11.58-10.61-.7-.64-1.49-1.17-2.24-1.75a1.2,1.2,0,0,0,.08.93,8.22,8.22,0,0,1,.89,4.1,2.21,2.21,0,0,1-.24,1.13,1.12,1.12,0,0,1-.93.42,1,1,0,0,1-.6-.79c.24-2.4-.79-4.39-1.92-6.36a32.57,32.57,0,0,0-5.57-6.76c-2.71-2.71-5.32-5.52-8.63-7.55a9.76,9.76,0,0,0-7.25-1.62,16,16,0,0,0-3.85,1.24,26.15,26.15,0,0,0-10.94,9.74c-.75,1.2-1.69,2.37-1.7,4a3.43,3.43,0,0,0,.73.07c3.59-.4,6.77.83,9.9,2.37a43,43,0,0,1,9.89,7,11.5,11.5,0,0,1,4.08,7.38,21.66,21.66,0,0,1-1.84,10.91c-.78,1.77-1.67,3.5-2.51,5.24,6-1.14,11.95-.47,18,0,.07-.11.3-.3.3-.48,0-.7.07-1.3.92-1.46.13,0,.22-.25.32-.38l2.73-3.84a26.75,26.75,0,0,1-9.91-5.54,73.33,73.33,0,0,1-7.85-8.31c.57-.91,1.18-1,1.84-.28.28.28.53.59.79.89a54.81,54.81,0,0,0,6.32,6.52c2.86,2.32,5.85,4.39,9.55,5.15a2.14,2.14,0,0,0,1.86-.29c4.22-2.69,8.75-4.15,13.82-3.07a11.37,11.37,0,0,1,6.36,3.67Zm62.66-62.81c-1.3,1.53-2.72,3-3.88,4.63a9.64,9.64,0,0,0-2.2,5.76c0,.29.06.71.26.84.72.49.67,1,.08,1.47a1.49,1.49,0,0,0-.63,1.28c-.08,3.12-.19,6.23-.28,9.34a5.52,5.52,0,0,0,.74,3.08,18.37,18.37,0,0,1,1.5,3.21,10.15,10.15,0,0,0,3.92,4.92,27.6,27.6,0,0,0,3.75,2.22,16.69,16.69,0,0,0,4.3,1,14.7,14.7,0,0,0,5.57,0c5.68-1,10.91-3.1,15.2-7.21a15.69,15.69,0,0,0,5.13-10.87,27.41,27.41,0,0,0-1.42-10.35,21.15,21.15,0,0,0-2.71-5.34c-1.19.78-1.65.73-2.54-.07a7.73,7.73,0,0,1-2.21-4.13,3.44,3.44,0,0,0-1.91-2.36,11.88,11.88,0,0,0-2.9-1.34c-5.74-1.34-11.32-1.14-16.57,1.92-.93.54-1.77,1-1.43,2.42Zm-13.21,42.8-3.73,2.37,2.24,3.24c-2,.71-2.36-1.31-3.71-1.95-1,1.2-2.08,2.43-3.15,3.63-1.35,1.51-2.18,3.11-1.26,5.18a1.54,1.54,0,0,1-.56,1.93,7.52,7.52,0,0,1-.86-.93,9,9,0,0,1-.57-1.37c-.79,1.88-1.45,3.43-2.07,5a4.84,4.84,0,0,0,0,4.4c.2.36.4,1,.23,1.23s-.78.48-1.27.74c.11,2.72.26,5.46,1.62,7.74.62.05,1.2-.07,1.39.14.77.9.58,2,.24,3.28.23.15.62.28.78.54a2.68,2.68,0,0,0,2.9,1.51,3.67,3.67,0,0,1,1.22.33l-.52,1.39c1.36.53,2.64,1.12,4,1.51a23.83,23.83,0,0,0,11.92.09,27.35,27.35,0,0,0,10-4.65,25.65,25.65,0,0,0,7.89-9.12,25.94,25.94,0,0,0,1.28-3.79h-1.46a4.22,4.22,0,0,0,.8-5.19c-.15-.3-.19-.66-.32-1a21.44,21.44,0,0,0-4.37-6.41c-.52,2.88-1.07,5.47-3,7.44-.67,2.7-3.48,3.75-4.67,6.05-2.28,1.19-4,3.45-6.72,3.82a26.09,26.09,0,0,1,2.23-1.48,29.88,29.88,0,0,0,9.62-10.25,11,11,0,0,0,1.73-5.61,2.24,2.24,0,0,0-.54-1.48,20.86,20.86,0,0,0-6.57-4.64,25.08,25.08,0,0,0-9.39-1.91,3.92,3.92,0,0,0-1,.29l1.55,2.16c-2,.88-2.37-1.29-3.62-1.66.06,2.33-.08,2.53-1.74,2.32C857.86,347.62,857.7,346.06,857.5,344.22Zm-94.37,10.72a23.42,23.42,0,0,0-5.68-4.72c-.56-.38-1.05-.85-1.58-1.28-1.48-1.21-2.92-2.5-4.46-3.63a15.42,15.42,0,0,0-5.18-2.8c-.6-.15-1.2-.37-1.7.21-1.08,1.24-1.1,1.28-2.57.63a2.18,2.18,0,0,0-2.09.06,27.52,27.52,0,0,0-3.15,1.95,20.68,20.68,0,0,0-7.24,11.53c-1.64,6.16-1.27,12.22,2,17.85,3.13,5.3,7.79,8.05,14,7.83a23.73,23.73,0,0,0,13.41-4.63,20,20,0,0,0,5.91-6.4,30.23,30.23,0,0,0,3.62-10.15c.43-2.95.22-5.73-1.7-8.19A34.47,34.47,0,0,0,753,343a7.61,7.61,0,0,0-4-.9,5.37,5.37,0,0,0,.6.65c1.44,1,2.94,1.88,4.34,2.92,1.72,1.28,3.26,2.81,5.06,3.95a27.35,27.35,0,0,1,4.31,3.77C763.68,353.79,763.92,354.25,763.13,354.94Zm142.94-34.09,9.85-9.68c-1.45-.42-2.86-.78-4.23-1.26-.84-.3-1.58-.89-2.43-1.14-1.84-.56-3.14-2-4.74-2.9-.2-.12-.22-.55-.33-.84.33-.1.72-.37,1-.28a7.29,7.29,0,0,1,1.45.84c2.83,1.79,5.68,3.53,9.19,3.53s6.71-.43,8.84-4a17.29,17.29,0,0,1,6.12-5.7,7,7,0,0,0,3-3.2c1.67-3.59,1.37-7.18.34-10.74a19.24,19.24,0,0,0-4.68-7.75c-2.31-2.46-4.92-4.54-8.3-5.25-4.24-.9-8.17.44-12,2.15a27.07,27.07,0,0,0-7.64,5.73,20.38,20.38,0,0,0-5.13,8.45,20.76,20.76,0,0,0-.41,9.41,2.36,2.36,0,0,0,.7,1.27,24.88,24.88,0,0,1,4.81,5.58,26.28,26.28,0,0,1,1.53,3.16,25.87,25.87,0,0,1,1.76,4.53C905.38,315.46,905.67,318.2,906.07,320.85ZM877.59,280c-.67-1.36-.67-1.48.21-2,3.24-1.82,6.5-3.61,9.75-5.44a18.8,18.8,0,0,0,6.58-5.43c1.49-2.13,2.62-4.42,1.86-7.11a27.41,27.41,0,0,0-1.65-4.06,33.87,33.87,0,0,0-4.81-7.1c-3.44-4.18-6.88-8.38-11.14-11.79s-8.69-4.05-13.36-.64a29.56,29.56,0,0,0-4.3,4,27,27,0,0,0-5.21,7.46,8.45,8.45,0,0,0-.82,4c1,0,1.89,0,2.78,0a11.71,11.71,0,0,1,8.92,4.48,41.45,41.45,0,0,1,5.53,9.43,21.44,21.44,0,0,1,2,10.85,13,13,0,0,1-2,6.38c-.57.8-1.11,1.63-1.71,2.5l1.74-.09a55,55,0,0,0-3.73,6.06,48,48,0,0,0-2.1,6.75,35.77,35.77,0,0,0-1,7.31,24.83,24.83,0,0,1,3-3.44,7.61,7.61,0,0,0,2.89-5.42,33.26,33.26,0,0,1,3.23-10.65C875.25,284.08,876.44,282.09,877.59,280ZM784.11,375.5a25.18,25.18,0,0,0-.91,3.13A26.38,26.38,0,0,0,784,390.7a20.33,20.33,0,0,0,8,11.18,15.45,15.45,0,0,0,9.8,2.63,21.53,21.53,0,0,0,10.93-4.16,22.23,22.23,0,0,0,6.86-8,13,13,0,0,0,.26-12.18c-.75-1.56-1.84-3-2.68-4.5-1.35-2.42-3.7-4-5.29-6.24a13.46,13.46,0,0,0-6.78-4.86,4.66,4.66,0,0,0-2.63-.37l.34,1.66a3.18,3.18,0,0,1-1.79-3,18.32,18.32,0,0,0-9.17,3.05l1,1.29a6,6,0,0,1-1.9.44,2.41,2.41,0,0,0-2.36,1c-.91,1.08-1.81,2.16-2.68,3.27a2.35,2.35,0,0,0-.21.79,7.32,7.32,0,0,0,3.24,1.86c.27.06.68.66.61.81a1.56,1.56,0,0,1-.92.79,3.85,3.85,0,0,1-1.32-.16ZM882.53,341c-1.94-.13-3.62-.28-5.31-.32a1.59,1.59,0,0,0-1.26.57c-.55,1.28-1.45,2.58-.41,4.05,0,0-.08.18-.11.24-3-1.92-6-3.7-9.73-3.6-.63,1.53-1.27,1.56-2.67.12l-3.82,1.31.29,1.79c1.35-.19,2.45-.43,3.56-.49a20.65,20.65,0,0,1,6.31,1,20.27,20.27,0,0,1,6.87,3.15,29.29,29.29,0,0,1,2.82,2.4c2.9,2.77,5.57,5.71,6.94,9.6.25.73.55,1.45.91,2.4A13.46,13.46,0,0,0,889.2,362c2.95-2.26,5.92-4.49,8.72-6.92,4.2-3.64,8.3-7.39,12.35-11.19a49.15,49.15,0,0,0,4.75-5.24,59.7,59.7,0,0,0,3.69-5.44,1.89,1.89,0,0,0,.09-1.56,14.33,14.33,0,0,1-1.47-8.67c.14-1.06.31-2.12.39-3.18a13.46,13.46,0,0,1,1.23-4.9c.78-1.58,1.49-3.21,2.36-5.12-1,.35-2.07.41-2.32.9-.61,1.24-1.86,1.61-2.71,2.49q-3.21,3.35-6.58,6.54a29.64,29.64,0,0,0-5.9,8.35,13.53,13.53,0,0,1-1.55,2.56,25.38,25.38,0,0,1-10.69,7.76c-2,.74-4,1.46-6,2.18l.28,1.51-1.47-.94a15,15,0,0,0-1.09,1.5c-.89,1.56-1.77,3.13-2.6,4.73-.4.79-.86,1.08-1.82.52Zm-24.84,1.8c-.12-2.74-.17-5.51-.39-8.26-.34-4.29-.69-8.57-1.26-12.83-.64-4.86-1.46-9.7-2.35-14.53-.72-3.88-1.65-7.72-2.48-11.58-.17-.8-.62-.93-1.37-.77a8.7,8.7,0,0,1-6.79-1.16,19.69,19.69,0,0,0-1.78-.89c0,.11-.06.17,0,.21s.18.28.28.41a32.53,32.53,0,0,1,6.42,11,17.39,17.39,0,0,1,.71,8.35,46.36,46.36,0,0,0,.27,15c.5,3.4,1.29,6.77,2.05,10.12.48,2.09,1.11,4.13,1.72,6.19a7.68,7.68,0,0,0,.73,1.36Zm-30.06-8.56c5.68,8.52,10.35,17.29,15.2,26.11a30.06,30.06,0,0,1,1.61-3.35,4.88,4.88,0,0,0,.47-5.17,5.17,5.17,0,0,1-.17-.82c-.92-3.26-1.72-6.55-2.81-9.74-1.17-3.4-2.61-6.71-3.95-10.05a10.8,10.8,0,0,0-.64-1.17C834.55,332.26,831.33,333.24,827.63,334.2Zm18.65-13.5a3,3,0,0,0-.38.25,29.4,29.4,0,0,1-6.3,7.4c-.55.42-.47,1-.23,1.53.4.93.84,1.84,1.21,2.78a133.5,133.5,0,0,1,5.56,16.78c.22.9.55,1.78.88,2.86l4.94-5.61C848.69,338.44,847.31,329.7,846.28,320.7ZM874.78,340a14.14,14.14,0,0,1-6.33-3.88,66.22,66.22,0,0,1-4.34-6.17c.17,3.74.09,7.32,1,10.7,1.57.34,3.07.58,4.51,1s2.78,1.05,4.13,1.58C874.09,342.22,874.41,341.22,874.78,340Zm-51.37-5.66c3.15,3.94,6.24,7.78,9.32,11.62,0,0,.11,0,.16,0s.08-.07.18-.15c-.2-.38-.37-.8-.61-1.17-1.87-2.95-3.83-5.84-5.59-8.85A2.87,2.87,0,0,0,823.41,334.38Zm74.36-32.11-.32.27a1.81,1.81,0,0,0,1.11,1.47l.33-.26C898.52,303.25,898.15,302.76,897.77,302.27Z" transform="translate(-178.94 -232.85)"/><path d="M983.9,414.5c1,.62,2,1.21,3,1.85a20.22,20.22,0,0,1,7.51,8.5,14.55,14.55,0,0,1,1.1,7.81,26.56,26.56,0,0,1-3.39,9.51,24.64,24.64,0,0,1-4.45,5.93,11.68,11.68,0,0,1-8.21,3.42,4.41,4.41,0,0,1-3.62-1.5,1.14,1.14,0,0,1-.22-.44c0-.09.06-.2.14-.46.82.17,1.68.3,2.52.51a7.58,7.58,0,0,0,6.51-1.51,20.66,20.66,0,0,0,6.73-8.93,35.15,35.15,0,0,0,2-5.38c1.21-5.12-.48-9.48-4-13.19-2.48-2.62-4.54-4-6.75-4.57-.31.27-.7.58-1.06.92a20.61,20.61,0,0,1-8,4.74,20.19,20.19,0,0,1-15.15-.82,27.27,27.27,0,0,1-5-2.44c-.41-.3-1.17-.1-1.79-.13-1.59,2.29-1.81,4.95-2.29,7.56s.63,5.11.94,7.73c1.17.15,2.33.3,3.5.43,5.69.62,10.31,3.36,14.29,7.31a50.31,50.31,0,0,1,4.32,4.69A15,15,0,0,1,976,457.4a24.87,24.87,0,0,1-7.75,15,20.93,20.93,0,0,1-17.69,6,19.5,19.5,0,0,1-14.41-8.48c-1.18-1.71-2.26-3.49-3.28-5.3A26.12,26.12,0,0,1,931.2,461a4.12,4.12,0,0,1,.13-1.5,3,3,0,0,1,1.9,2,34.87,34.87,0,0,0,5.11,8.51,17.94,17.94,0,0,0,9.14,6,20.15,20.15,0,0,0,21.58-7.22,24.65,24.65,0,0,0,5-10.07,12.68,12.68,0,0,0-1.4-9.52,31.17,31.17,0,0,0-13.36-12.31,17.68,17.68,0,0,0-8.77-1.48,25.22,25.22,0,0,0-8.58,1.8,29.36,29.36,0,0,0-6.9,4l.71,1.12c-.89,1-.89,1-2.32.05-2.81,2.29-5.38,4.72-5.23,8.81,0,.56-.05,1.07-.64,1.22s-1.06-.4-1.24-.91a2.68,2.68,0,0,1,0-1.32,13.37,13.37,0,0,1,4.9-8c.26-.21.51-.44.76-.67a5.49,5.49,0,0,0,.44-.52,15.44,15.44,0,0,0-.84-1.34c-1-1.28-2.05-2.54-3.07-3.82-.31-.39-.75-.84-.22-1.32a1,1,0,0,1,1.59.19c1.34,1.72,2.71,3.42,4.16,5.25a34.6,34.6,0,0,1,12.77-5.55c-1-.83-1.66-1.46-2.39-2-1.54-1.14-3.17-2.17-4.67-3.35a1.29,1.29,0,0,0-1.76-.15,21,21,0,0,1-7.36,2.92,13.54,13.54,0,0,1-7.47-.61c4.72-.53,9.52-.69,13.8-3.45-.12-.46-.62-1.25.23-1.51a6.17,6.17,0,0,1,2.08.13,30.86,30.86,0,0,0,8.4-7.44,37.64,37.64,0,0,0,3-4.68,18.6,18.6,0,0,0,2.43-10.07,23.43,23.43,0,0,0-3.69-10.94,21.12,21.12,0,0,0-10-8.27,18.54,18.54,0,0,0-9-1.38c-4,.36-7.93,1.13-11.44,3.32a27.05,27.05,0,0,0-7.58,7.15,25.44,25.44,0,0,0-4.68,11.64,14,14,0,0,0,0,3.71c.66,4.64,3.23,8.19,6.62,11.24a13.44,13.44,0,0,0,4.75,2.83,2.18,2.18,0,0,0,1.24.06c1-.27,1.26.83,2.05,1,.2,0,.27.73.41,1.14a3.32,3.32,0,0,1-2.78,0,21.33,21.33,0,0,1-5.5-2.91,22.79,22.79,0,0,1-6.92-8.38A15.22,15.22,0,0,1,905.46,404a2,2,0,0,0,0-.5l-4-1.76-9.87-4.4a6.49,6.49,0,0,0-.93-.18c3.67,4.53,6.08,9.34,6.62,14.89a21.61,21.61,0,0,1-4.1,15.52,41.5,41.5,0,0,1,8.29,9.14,2.81,2.81,0,0,0,1.5.92c1,.27,2.13.31,3.17.57a21.66,21.66,0,0,1,8.51,4.63,26.54,26.54,0,0,1,6,7.85,19.34,19.34,0,0,1,2.63,7.4,15.8,15.8,0,0,1-.88,7.18c-.85,2.31-1.87,4.55-2.86,6.91a17.1,17.1,0,0,0,1.81.53c3,.55,5,2.43,6.73,4.75a32,32,0,0,1,4.62,8.4,16.49,16.49,0,0,1-.1,10.94c-1.47,4.37-4.63,7.53-7.24,11.08A19,19,0,0,1,922,511a1.93,1.93,0,0,1-1.47.31l3.84-3.47c-.45,0-.69-.13-.81-.05a23.24,23.24,0,0,1-8,3.17,26.26,26.26,0,0,1-5.38.47,19.52,19.52,0,0,1-7.51-1.8c-3.05-1.32-5.21-3.64-7.19-6.21a30.57,30.57,0,0,1-4.06-7.38,6.17,6.17,0,0,1,0-3.66,19.57,19.57,0,0,1,2-4.45,6.68,6.68,0,0,1,3.56-2.74c.6-.25,1.13-.18,1.18.37a27.63,27.63,0,0,0-3.3,2.79c-2.35,2.74-2.42,5.9-1.06,9.05a22.56,22.56,0,0,0,6.36,8.8,15.38,15.38,0,0,0,8.37,3.31,21.85,21.85,0,0,0,16.33-4.71,18.38,18.38,0,0,0,6.3-9,15.52,15.52,0,0,0-.87-11.35,33.32,33.32,0,0,0-3.94-6.64,9.44,9.44,0,0,0-5.07-3.45,5.09,5.09,0,0,0-5.16,1.43,19,19,0,0,1-10,4.89,27.74,27.74,0,0,1-10.47-.31,20.5,20.5,0,0,1-5.86-2.46,26.85,26.85,0,0,1-8-7.41,26.22,26.22,0,0,1-3.78-7.89,12.41,12.41,0,0,1-.71-5.84,15.78,15.78,0,0,1,5.34-9.71c1.08-.93,1-1,.92-2.25.91-.51,1.87-1.07,2.85-1.58s1.1-.77.49-1.69c-1.42-2.15-2.73-4.4-4.78-6-2.17.56-4.34,1.15-6.51,1.68a15.94,15.94,0,0,1-2.19.23c-1.37.09-1.38.1-1.73,1.37a47.53,47.53,0,0,0-1.25,7.5,120,120,0,0,0,.16,21.86c.27,3.52,1.21,7,1.83,10.49.22,1.27.39,2.56.57,3.85.76,5.54,1.6,11.07,2.23,16.63.72,6.34,1.31,12.7,1.82,19.06.41,5.07.71,10.16.89,15.24.22,6.21.79,12.39,1.57,18.56.37,2.9,1,5.78,1.35,8.68.3,2.24.42,4.51.61,6.76l-.37.08c-.37-1.3-.79-2.58-1.09-3.89a136.86,136.86,0,0,1-3.15-18.2c-.57-6.7-.77-13.43-1.22-20.15-.29-4.45-.72-8.9-1.09-13.35-.17-2-.34-4.05-.55-6.08-.54-5.17-1-10.35-1.68-15.5-.51-3.85-1.32-7.66-1.95-11.5s-1.42-7.78-1.81-11.7a113.72,113.72,0,0,1-.25-19c.18-2.58.64-5.15,1.05-7.72a24.67,24.67,0,0,1,.8-2.86c-5.75-.29-9.93-3.09-13.09-8.21a13.76,13.76,0,0,0-.41,2.12c-.14,5-.32,10.07-.32,15.11,0,3.16.21,6.33.46,9.48.42,5.35.93,10.7,1.43,16.05.24,2.58.47,5.18.86,7.75.58,3.84,1.28,7.67,1.94,11.5s1.36,7.67,2,11.51c.71,4.23,1.42,8.45,2.05,12.69a173.16,173.16,0,0,1,1.68,26.53c0,5.21,0,10.42.24,15.62.2,3.93.81,7.84,1.25,11.76.12,1.1.34,2.21.36,3.31a5.3,5.3,0,0,1-.57,1.63l-.42-.06c-.37-1.85-.75-3.7-1.11-5.55-1.46-7.65-1.6-15.39-1.64-23.14,0-4.35.11-8.71-.13-13A177.7,177.7,0,0,0,863,514c-.73-4.46-1.21-9-1.94-13.42-.49-3-1.31-6-1.82-9q-1.34-7.75-2.44-15.53c-.39-2.74-.51-5.52-.76-8.28-.3-3.49-.62-7-.92-10.47-.07-.9-.11-1.8-.13-2.7-.11-5.43-.34-10.86-.29-16.29,0-3.33.49-6.65.75-10a1.53,1.53,0,0,1,.1-.66c.84-1.16.41-2.31.11-3.52a14.78,14.78,0,0,1-.36-3.19,31.88,31.88,0,0,1,1-10.25c1.83-5.89,5.71-10,11.94-10.24a21.66,21.66,0,0,1,5.69.76c.7.16,1.25,1,2.15,1.77-2.16-.29-3.91-.43-5.63-.77a9.57,9.57,0,0,0-10.44,4.2,14.5,14.5,0,0,0-2.62,6.34,35.94,35.94,0,0,0-.54,8.78c.32,3.34.95,6.59,3.13,9.32a12.4,12.4,0,0,0,8.86,4.73,27.89,27.89,0,0,0,19.93-6,17.74,17.74,0,0,0,6-8.79c1.69-5.12,1.14-10.08-.71-15.07a24.52,24.52,0,0,0-5.33-8.48,8.33,8.33,0,0,0-5.58-2.46l-1.4-.12,1.1,1.61c-2,.32-3-1.5-4.59-1.54v-1.55a52.85,52.85,0,0,0-5.3.38,27.15,27.15,0,0,0-9.25,3.12,40.72,40.72,0,0,0-4,2.88c-4,3-6.33,7.09-8.73,11.23-3.53,6.1-5.25,12.8-6.68,19.6-.46,2.21-.73,4.46-1.15,6.67a3.57,3.57,0,0,0,.59,2.57,13.9,13.9,0,0,1,1.5,10.13c-.37,1.75-.83,3.49-1.37,5.2a23.31,23.31,0,0,1-6.08,9.64,23.57,23.57,0,0,1-8.25,5.43,22.29,22.29,0,0,1-10.47,1.49,16.86,16.86,0,0,1-7.53-2.85,27.87,27.87,0,0,1-5.75-5,18.69,18.69,0,0,1-3.53-5.52q-.82-2.22-1.58-4.46c-1.48-4.43-.24-8.33,2.41-11.92a25.9,25.9,0,0,1,5.5-5.66c.17-.12.41-.34.4-.5-.08-1.29,1-1.68,1.77-2.23,5.91-4.19,12.5-5.12,19.41-3.61a21.81,21.81,0,0,1,10.52,5.82c.16.15.33.28.73.61.18-.81.3-1.43.45-2.05,1-4.34,1.81-8.75,3.07-13a56.09,56.09,0,0,1,7.8-16.24c1-1.38,2.13-2.62,3.15-4,.5-.65.84-1.41,1.32-2.08a3.75,3.75,0,0,1,1.08-1,43,43,0,0,1,12.2-5.32,29.29,29.29,0,0,1,10.3-.55,34.53,34.53,0,0,1,6.3,1.91c1.81.61,3.62,1.24,5.38,2,4.41,1.85,8.78,3.76,13.35,5.72a29.61,29.61,0,0,1,10-14.21l-.19-.3a11.55,11.55,0,0,0-1.2.2,36,36,0,0,1-16.3.89c-3.44-.59-6.83-1.52-10.25-2.25-1.38-.29-2.79-.42-4.18-.66a11.69,11.69,0,0,1-1.41-.44,1.89,1.89,0,0,1,2.25-1.11c4,.84,8,1.58,11.92,2.58a33.9,33.9,0,0,0,7.55.92,44.24,44.24,0,0,0,14.15-2.34,63,63,0,0,1,9-2.36,22.93,22.93,0,0,1,11.55.82,24.16,24.16,0,0,1,13.38,11.74,19.85,19.85,0,0,1,2.58,11.07,23.21,23.21,0,0,1-1.05,4.78c-.46,1.49-1.18,2.91-1.79,4.37.84.63,1.69,1.35,2.62,1.92s2,1,3,1.54a22.52,22.52,0,0,0,9.64,2.28,21.12,21.12,0,0,0,6-1,15.77,15.77,0,0,0,6.91-4,1.82,1.82,0,0,0,0-.41c-.2-.49-.7-1.08-.57-1.45.22-.66,1-.66,1.61-.46a1.12,1.12,0,0,0,1.4-.59,23.77,23.77,0,0,0,4.37-11.39,13.59,13.59,0,0,0-1.24-6.27,30.54,30.54,0,0,0-6-9.1,20.47,20.47,0,0,0-6.74-5.3,19.61,19.61,0,0,0-7.7-1.75,22.57,22.57,0,0,0-9.35,2c-1.94.86-3.81,1.89-5.72,2.84-.19.1-.54.21-.54.32,0,1.93-1.52,1.18-2.48,1.38a.84.84,0,0,1-1.07-.59c-.19-.53.08-.84.53-1.09a38.7,38.7,0,0,1,7.09-3.52c2.14-.69,4.21-1.59,6.37-2.19a17.26,17.26,0,0,1,6.9-.41,19.19,19.19,0,0,1,7.51,2.43,33.22,33.22,0,0,1,5.27,4.19,32.45,32.45,0,0,1,6.61,8.91,22.46,22.46,0,0,1,1.68,4.38,14.59,14.59,0,0,1-.06,7.19,33.36,33.36,0,0,1-3.85,8.75A2.56,2.56,0,0,0,983.9,414.5Zm-81.36,64.86a18.29,18.29,0,0,0,10.6-3.36c1.07-.73,2.39-1.33,2.73-2.84,0-.22.39-.36.58-.56a13.85,13.85,0,0,0,1.57-1.69,19.49,19.49,0,0,0,1.84-3.23c1.43-3.35,2.57-6.8,1.67-10.51A27.24,27.24,0,0,0,915,445a20.24,20.24,0,0,0-7.21-4.89c-2.83-1.21-5.76-1-8.65-.55a28.09,28.09,0,0,0-9.31,3.42,13.3,13.3,0,0,0-2.45,1.75c-.39.37-.39,1.18-.8,1.53a4.76,4.76,0,0,1-1.63.56s-.07.08-.11.12c-1.73,1.85-3.73,3.48-4.83,5.83a11.51,11.51,0,0,0-1.29,5.71,23,23,0,0,0,4.5,11.69,23.37,23.37,0,0,0,7.35,6.65C893.9,478.69,897.63,479.33,902.54,479.36Zm-58.66-32.25c-.06-1-.07-1.95-.18-2.9a13.11,13.11,0,0,0-.48-2.15,4.39,4.39,0,0,0-1.57-2.29c-.69-.56-.76-1.84-1.4-2.54a19.48,19.48,0,0,0-8.87-5.59,23.5,23.5,0,0,0-10.24-.76c-.27,0-.73.06-.77.2-.47,1.45-2,1.47-3,1.84A29.18,29.18,0,0,0,806.6,440a17.85,17.85,0,0,0-4.07,6c-1.26,3.28-.76,6.58.33,9.8a20.55,20.55,0,0,0,8.38,10.88,21.12,21.12,0,0,0,5.07,2.64,17.14,17.14,0,0,0,8.86.28,22.26,22.26,0,0,0,9.94-4.81A24.3,24.3,0,0,0,843.88,447.11ZM900.12,438a62.38,62.38,0,0,0-6.37-8c-.9-1-1.72-.75-2.77,0-1.79,1.33-3.67,2.55-5.52,3.8-.41.27-.85.49-1.37.78l5.1,6.9C892.63,440.08,896,438.41,900.12,438Zm47.75-5.16a25.55,25.55,0,0,1,.83-12.38l-8.07,7Z" transform="translate(-178.94 -232.85)"/><path d="M843.61,391.84c.58.79.08,1.24-.53,1.63-1.22.8-2.47,1.56-3.69,2.38q-4.33,2.91-8.64,5.85t-8.58,5.92l-5.8,4.06a153.22,153.22,0,0,1-14.48,9c-3.71,2-7.45,3.94-11.28,5.69s-8,3.35-12,5c-.68.28-1.4.44-2.36.74a36.73,36.73,0,0,1,3.8,3A17.52,17.52,0,0,1,783,439a22.37,22.37,0,0,1,1.64,4.61c.44,1.56.68,3.17,1,4.82,1.72-2.1,3.37-4.19,5.11-6.22a85.26,85.26,0,0,1,7.16-8c1.79-1.62,3.31-3.52,5.07-5.17,2.86-2.67,5.69-5.38,8.75-7.81,4.16-3.32,8.5-6.41,12.8-9.57,1.86-1.36,3.77-2.66,5.69-3.95a92.89,92.89,0,0,1,15.09-8.2c.8-.34,1.81-.09,2.5-.86.07-.09.56,0,.69.2a.83.83,0,0,1,0,.75c-1.4,2.22-2.88,4.4-4.26,6.65-1.61,2.63-3.1,5.35-4.73,8-2.4,3.87-4.48,7.95-7.69,11.28-.42.44-.78.95-1.22,1.47l.33.53c-.46.76-2.08.58-3.23-.43a4.59,4.59,0,0,1,.92-.9,12.14,12.14,0,0,0,4.45-4.55c3.54-5.63,6.89-11.38,10.32-17.08.43-.72.88-1.43,1.3-2.12-.4-.71-.89-.63-1.47-.37-1.49.68-3.05,1.21-4.48,2-2.45,1.36-4.87,2.81-7.24,4.32-2.8,1.79-5.57,3.62-8.27,5.56-3.48,2.5-6.94,5-10.28,7.72a139.3,139.3,0,0,0-14.07,12.86c-3.32,3.51-6.38,7.28-9.51,11-1.08,1.29-2,2.75-3,4a4.29,4.29,0,0,0-1,2.45,26,26,0,0,1-2.24,8.29,18.56,18.56,0,0,1-6.85,7.73,22.21,22.21,0,0,1-7.53,2.89,20.36,20.36,0,0,1-10.4-.15c-5.55-1.71-10.05-4.84-12.67-10.17a35.72,35.72,0,0,1-2.57-6.59,20,20,0,0,1,.33-11.87,22.4,22.4,0,0,1,6.35-9.61,16.77,16.77,0,0,1,2-1.28,2.93,2.93,0,0,0,1.37-1.35c.49-1.13,1.87-1.27,2.91-1.45a23.35,23.35,0,0,1,12.21.64c1.37.49,2.75,1,4.09,1.54,2.22.94,4.36.41,6.43-.36,2.85-1.05,5.65-2.23,8.42-3.45,3.85-1.7,7.74-3.33,11.46-5.29,4-2.1,7.84-4.43,11.63-6.87,4.48-2.88,8.82-6,13.22-9,3.43-2.35,6.85-4.7,10.29-7,2.14-1.45,4.31-2.84,6.44-4.29a4.4,4.4,0,0,0,1.65-1.59c.23-.45,1.15-.54,1.76-.79Zm-85.2,37.86-.09.35a7.32,7.32,0,0,0,.87.37c3.67,1.19,6.64,3.56,9.71,5.74.47.34.64,1.13.89,1.74,0,.1-.21.32-.28.43-2.52-1.69-4.93-3.34-7.39-4.93a19.23,19.23,0,0,0-2.71-1.39c-1.18-.52-2.41-.2-3.64-.22a5.69,5.69,0,0,0-3.93,1.12,20.24,20.24,0,0,0-3,2.72c-2.34,2.88-4.19,6-4.57,9.83a22.23,22.23,0,0,0,1.16,10.5c1.28,3.28,2.64,6.47,5.42,8.81a19.6,19.6,0,0,0,8.08,4.36,21.59,21.59,0,0,0,13.9-1.42,16.66,16.66,0,0,0,8.48-7.69c.65-1.27,1.07-2.66,1.68-4.23l-1.66.66c.6-1.46,1-2.57,1.52-3.61a6.31,6.31,0,0,0,.72-2.92,22.75,22.75,0,0,0-1.69-8.92,12.73,12.73,0,0,0-4.2-5.79c-1.9-1.37-3.78-2.91-6.41-2.68a5.65,5.65,0,0,1-1.5-.31l.18-1.08C766.19,429.8,762.39,429,758.41,429.7Z" transform="translate(-178.94 -232.85)"/><path d="M965.12,335.27a1.6,1.6,0,0,1-.66-.18c-.47-.36-.88-.79-1.32-1.19a7.14,7.14,0,0,1,1.16-1.11,36,36,0,0,1,9.14-4.29,23,23,0,0,1,20.91,5.2,33.34,33.34,0,0,1,7.43,11.14,16.55,16.55,0,0,1,1.11,9.44,13.16,13.16,0,0,1-2.24,5.22,22.91,22.91,0,0,1-6.31,6.44,36.19,36.19,0,0,1-9.1,4.37,35.12,35.12,0,0,1-9,1.74,24,24,0,0,1-9.49-1.23,21.61,21.61,0,0,1-6.59-3,32.38,32.38,0,0,1-3.54-3.06,1.65,1.65,0,0,1,.13-2.44,14,14,0,0,1,2,1.92,11,11,0,0,0,4.72,3.46,26.12,26.12,0,0,0,18,1.69,40.53,40.53,0,0,0,11.75-5,18.44,18.44,0,0,0,7.88-9.8,11,11,0,0,0-.08-7,32.6,32.6,0,0,0-3.39-7.52,27.17,27.17,0,0,0-4.93-5.88c-5-4.37-10.81-5.54-17.17-4.56a21.71,21.71,0,0,0-8.82,3.67A10.84,10.84,0,0,0,965.12,335.27Z" transform="translate(-178.94 -232.85)"/><path d="M822.58,302.66l-2.22-1.17c-.85-.12-2,1.51-3-.36l2.17-1.31c.47-2.47,1.39-3.55,4.1-3.9s5.29-.3,7.94-.37c.28,0,.57.39.85.6-.27.3-.51.78-.82.85a15.36,15.36,0,0,1-3,.34c-2.08,0-2.74,1.48-1.89,3.09,1.89.75,3.66,1.43,5.42,2.15.73.3,1.27.76.95,1.77a5.54,5.54,0,0,1-5.67-1.45,13.33,13.33,0,0,0-1.64-1.08c-.68,3.14-1.28,6-1.9,8.84-1.14-.24-1.49-.82-1.3-1.75.3-1.49.61-3,.92-4.47.21-1,.46-2,.64-3,.16-.84.19-1.73,1.28-1.89V297.2a3.45,3.45,0,0,0-2.75.4c-.91.44-1,1.18-.39,2.13A3,3,0,0,1,822.58,302.66Z" transform="translate(-178.94 -232.85)"/><path d="M881.74,419.58a13.27,13.27,0,0,0,2.91-4.92c.39-1.05.37-1.06,1.38-1.5a5.16,5.16,0,0,1-.43,3.42c-.47,1-1,2-1.48,3.09a6.42,6.42,0,0,0,5.85-1.41c.17.46.47.87.36,1.09a2.81,2.81,0,0,1-1,1.26,5.56,5.56,0,0,1-3.22.84c-.85-.06-1.7,0-2.58,0a5.47,5.47,0,0,0-1.53,3.93,15.66,15.66,0,0,1-.34,2.35c-.25,1-1,1.27-2,.89.35-1.78.7-3.56,1.09-5.56-1.77.74-3.26,1.37-4.76,2a9.91,9.91,0,0,1-1.9.7,9.52,9.52,0,0,1-2-.05,2.44,2.44,0,0,1,1.94-1.5,19.28,19.28,0,0,0,6.46-2.63,15.66,15.66,0,0,0-3-6.56c-.69-.83-1.19-1.91-2.63-1.64-.24,0-.61-.67-.92-1,.33-.24.65-.67,1-.69a2.28,2.28,0,0,1,1.41.38,11.9,11.9,0,0,1,4.52,5.73C881.12,418.3,881.4,418.84,881.74,419.58Z" transform="translate(-178.94 -232.85)"/><path d="M948.36,405.91c-1.83-3.17-5.12-4.48-7.56-6.76,1-.75,1.58-.78,2.42-.18l4.24,3a4.69,4.69,0,0,0,.08-2.16c0-.86.13-1.58,1.17-1.78,1.24.4,1.34,1.7,1.85,2.63a14,14,0,0,1,1.84,6.44,1.46,1.46,0,0,1-.38,1.15c-.23.15-.8-.11-1.15-.31-1.4-.82-2.15-.87-3.36.2-1.47,1.3-2.8,2.74-4.21,4.1a13.47,13.47,0,0,1-2.16,1.85c-.81.51-1.24.23-1.6-.66,1.35-1.29,2.72-2.49,3.94-3.82A16.62,16.62,0,0,1,948.36,405.91Zm1.56-2.46-.31.07.48,2.15.37-.09Z" transform="translate(-178.94 -232.85)"/><path d="M904.66,488.5c1.53-1.87,1.53-1.87,2.35-1.46-.21.45-.39.91-.63,1.34C905.88,489.25,905.75,489.26,904.66,488.5Z" transform="translate(-178.94 -232.85)"/><path d="M913,268.71l-.63,1.41c-.67-.16-1.24-.43-1-1.08S912.14,268.19,913,268.71Z" transform="translate(-178.94 -232.85)"/><path class="cls-5" d="M949.92,403.45l.54,2.13-.37.09-.48-2.15Z" transform="translate(-178.94 -232.85)"/><path d="M799.87,386.13c-1.27-.08-1.16-1.58-2.17-2.11a24.64,24.64,0,0,0-1.62,9.22,3.61,3.61,0,0,0,1.35,2.95,1.62,1.62,0,0,1-2.6-1.07,11.46,11.46,0,0,1-.26-5c.21-1.61.17-3.26,1-4.79.24-.45,0-1.18-.09-2-1.09.6-2,1.06-2.44,2.13s-1.07,2.23-1.42,3.4a6.27,6.27,0,0,0,.22,2.12c-.45-.14-1.14-.16-1.29-.45a3.6,3.6,0,0,1-.45-2.06A8.06,8.06,0,0,1,795,382a4.77,4.77,0,0,0,.44-.24c.23-2,.47-3.94.66-5.9a3.93,3.93,0,0,1,1.41-2.43.78.78,0,0,1,.75-.12,1,1,0,0,1,.32.82,22.42,22.42,0,0,0-.79,2.4c-.24,1.55-.32,3.13-.5,5.1,1-1.2,1.69-2.12,2.5-2.91a5.89,5.89,0,0,1,4.13-1.65c1.38,0,2,.63,2.1,2.2-1.68-.56-3.36-.79-4.79.42a5.07,5.07,0,0,0-2,3.61l9.24,2.55c.13.79-.06,1.14-.84,1.2a27.67,27.67,0,0,0-2.84.39,6.61,6.61,0,0,1-4.65-1c-.13-.07-.17-.28-.25-.43.46.17.92.35,1.39.51a5.14,5.14,0,0,0,4.27.16c-2-1.08-3.92-1.18-5.9-1.56Z" transform="translate(-178.94 -232.85)"/><path d="M905.46,466c2.71-.82,2.9-.76,3,.82C907.45,467.09,906.59,466.59,905.46,466Z" transform="translate(-178.94 -232.85)"/><path d="M740.68,371.53a1.62,1.62,0,0,1-2.8.12,11.51,11.51,0,0,1-2.36-4.46c-.48-1.55-1.22-3-1.13-4.75,0-.52-.54-1.06-.92-1.75-.73,1-1.37,1.8-1.31,2.95s0,2.48.14,3.68c.09.59.65,1.12,1.09,1.83-.47.06-1.1.34-1.35.14a3.62,3.62,0,0,1-1.28-1.68,8.07,8.07,0,0,1,1.74-7.89c.11-.12.2-.26.31-.4-.63-1.89-1.23-3.77-1.89-5.63a3.92,3.92,0,0,1,.26-2.8c.07-.2.46-.47.63-.42a1,1,0,0,1,.63.61c.15.83.06,1.71.29,2.51.44,1.51,1,3,1.69,4.84.42-1.52.65-2.64,1.05-3.7a5.89,5.89,0,0,1,3-3.23c1.25-.59,2.07-.27,2.84,1.11-1.77.2-3.39.7-4.18,2.4a5.09,5.09,0,0,0-.32,4.13l9.45-1.58c.45.67.42,1.07-.26,1.44a26.76,26.76,0,0,0-2.41,1.56c-1.41,1-3.68-.4-5.62.08.28.33-1.07-.21-2.21-.27a24.6,24.6,0,0,0,2.41,9.05,3.63,3.63,0,0,0,2.46,2.11" transform="translate(-178.94 -232.85)"/><path d="M963.86,455l2.4-.74c.69-.52.32-2.45,2.39-1.89l-.6,2.46c1.41,2.08,1.52,3.49-.15,5.65a78.15,78.15,0,0,1-5.35,5.88c-.19.2-.68.12-1,.17,0-.4-.19-.9,0-1.18A14.28,14.28,0,0,1,963.4,463c1.48-1.47.89-3-.85-3.53-1.86.81-3.6,1.57-5.35,2.31-.74.3-1.44.36-1.93-.58a5.52,5.52,0,0,1,5-3,13.34,13.34,0,0,0,1.93-.4l-4.91-7.6c1-.63,1.63-.47,2.16.33q1.26,1.91,2.5,3.81c.56.85,1.08,1.73,1.66,2.56s1.08,1.36.43,2.24l1.67,1.67a3.41,3.41,0,0,0,1.66-2.22c.34-1-.09-1.57-1.22-1.78A3.06,3.06,0,0,1,963.86,455Z" transform="translate(-178.94 -232.85)"/><path d="M897.58,305.33c1.38.76,2.43,1.23,3.36,1.86a5.93,5.93,0,0,1,2.47,3.71c.29,1.34-.21,2.07-1.73,2.5.21-1.76.09-3.45-1.39-4.6a5,5,0,0,0-3.95-1.26c-.2,3.17-.4,6.38-.6,9.57-.75.28-1.14.17-1.35-.58-.25-.92.25-6.19.22-8.2-.38.21.45-1,.76-2.08a24.47,24.47,0,0,0-9.35.3,3.63,3.63,0,0,0-2.62,1.92,1.63,1.63,0,0,1,.52-2.76,11.28,11.28,0,0,1,4.88-1.28c1.62-.13,3.23-.51,4.88,0,.5.15,1.16-.28,1.92-.49-.81-.94-1.45-1.75-2.59-1.95s-2.4-.59-3.61-.69a6.2,6.2,0,0,0-2,.65c0-.48-.08-1.15.17-1.36a3.64,3.64,0,0,1,1.93-.86,8.08,8.08,0,0,1,7.29,3.48c.09.13.2.25.31.39" transform="translate(-178.94 -232.85)"/><path d="M1001.43,342.9c-1.45-.58-3-1-4.85-1.64.93,1.26,1.68,2.13,2.26,3.1a5.89,5.89,0,0,1,.68,4.4c-.3,1.34-1.07,1.79-2.63,1.54.94-1.51,1.54-3.09.69-4.76a5.08,5.08,0,0,0-3.06-2.8l-4.58,8.41c-.8,0,1.86-6.59,2.68-8.43-.43,0,.83-.7,1.57-1.57a24.55,24.55,0,0,0-8.61-3.67,3.64,3.64,0,0,0-3.18.64c-.39-1.35.25-2.16,1.63-2.28a11.23,11.23,0,0,1,5,.89c1.52.57,3.14.9,4.44,2,.39.34,1.17.23,1.95.36-.34-1.2.8-3.2,1.35-.17,0,.16.09.31.13.48" transform="translate(-178.94 -232.85)"/><path d="M943.45,258.35c-1.46-.58-3-1-4.85-1.65.93,1.27,1.68,2.14,2.26,3.11a5.91,5.91,0,0,1,.67,4.39c-.3,1.35-1.06,1.8-2.62,1.55.93-1.51,1.53-3.1.68-4.76a5.09,5.09,0,0,0-3.06-2.81L932,266.6c-.8-.05,1.86-6.6,2.67-8.43-.43,0,.83-.7,1.58-1.57a24.6,24.6,0,0,0-8.62-3.67,3.64,3.64,0,0,0-3.18.64c-.39-1.35.26-2.17,1.64-2.28a11.28,11.28,0,0,1,5,.89c1.51.57,3.14.9,4.44,2,.39.34,1.16.23,1.94.36-.34-1.2.8-3.21,1.36-.18,0,.16.08.32.12.49" transform="translate(-178.94 -232.85)"/><path d="M880.54,236.82c-1.55.23-3.08.63-5,1.05,1.45.61,2.54,1,3.53,1.52a5.85,5.85,0,0,1,2.81,3.45c.42,1.3,0,2.08-1.48,2.66,0-1.78-.24-3.45-1.83-4.45a5,5,0,0,0-4-.86c.11,3.17.22,6.38.33,9.57-.72.36-1.75-6.62-2-8.62-.36.24.35-1,.55-2.15a24.58,24.58,0,0,0-9.28,1.21,3.61,3.61,0,0,0-2.41,2.17,1.62,1.62,0,0,1,.24-2.8,11.46,11.46,0,0,1,4.74-1.76c1.59-.27,3.16-.81,4.85-.5.51.09,1.12-.39,1.86-.68-.9-.86-.94-3.16,1.08-.84.11.13.23.23.35.36" transform="translate(-178.94 -232.85)"/><path d="M813.86,467.74c1.57-.08,3.13-.32,5.1-.54-1.38-.76-2.43-1.23-3.36-1.87a5.85,5.85,0,0,1-2.46-3.7c-.29-1.35.21-2.08,1.73-2.51-.21,1.77-.09,3.46,1.38,4.61a5.14,5.14,0,0,0,4,1.26c.2-3.17.41-6.38.61-9.57.75-.28,1.09,6.77,1.11,8.78.38-.21-.45,1-.76,2.09a24.53,24.53,0,0,0,9.36-.3,3.62,3.62,0,0,0,2.61-1.91,1.62,1.62,0,0,1-.52,2.75,11.3,11.3,0,0,1-4.88,1.29c-1.62.12-3.23.5-4.88,0-.5-.14-1.16.28-1.92.49.81.95.62,3.24-1.16.73a5,5,0,0,0-.32-.39" transform="translate(-178.94 -232.85)"/></svg>